<?xml version="1.0" encoding="utf-8"?><svg xmlns="http://www.w3.org/2000/svg" xmlns:xlink="http://www.w3.org/1999/xlink"><symbol viewBox="0 0 32 32" id="basket" xmlns="http://www.w3.org/2000/svg"><path d="M28.089 21.905a.94.94 0 00.906-.7l2.974-11.2a.939.939 0 00-.849-1.177L5.462 7.243 4.767 2.96a.938.938 0 00-.499-.684L1.365.79A.938.938 0 00.51 2.46l2.481 1.27 2.8 17.234-.471 2.97a3.747 3.747 0 00.632 7.44c1.91 0 3.49-1.47 3.713-3.282h12.8c.222 1.813 1.802 3.282 3.711 3.282a3.75 3.75 0 003.741-3.747 3.74 3.74 0 00-7.198-1.41H9.41a3.716 3.716 0 00-2.217-2.112l.348-2.2h20.547zm-1.912 3.849a1.869 1.869 0 010 3.735 1.869 1.869 0 010-3.735zM7.82 27.62a1.87 1.87 0 01-1.866 1.868 1.869 1.869 0 010-3.735c1.029 0 1.866.838 1.866 1.867zM5.77 9.144l24.092 1.49-2.495 9.396H7.538L5.771 9.144z"/><defs><clipPath id="aclip0"><path d="M0 0h32v32H0z"/></clipPath></defs></symbol><symbol viewBox="0 0 111 111" id="card_fo" xmlns="http://www.w3.org/2000/svg"><path d="M97.533 22.474L55.814.244a2.073 2.073 0 00-1.975.012l-40.564 22.23a2.077 2.077 0 00-1.078 1.822v29.038c.024 23.87 14.167 45.465 36.037 55.027l5.63 2.454a2.07 2.07 0 001.653.002l6.345-2.739c22.276-9.356 36.768-31.16 36.77-55.32V24.308c0-.767-.422-1.473-1.1-1.834zM94.479 52.77c-.005 22.495-13.502 42.793-34.243 51.498l-.014.007-5.525 2.385-4.8-2.094a55.965 55.965 0 01-33.547-51.22V25.538l38.5-21.101 39.63 21.116V52.77z"/><path d="M39.528 52a2.077 2.077 0 00-3.16 2.696L47.34 67.544a2.076 2.076 0 002.89.263l25.55-20.788a2.076 2.076 0 10-2.621-3.222L49.18 63.303l-9.653-11.304z"/><defs><clipPath id="bclip0"><path d="M0 0h111v111H0z"/></clipPath></defs></symbol><symbol viewBox="0 0 112 112" id="card_on" xmlns="http://www.w3.org/2000/svg"><path d="M111.474 23.147a1.362 1.362 0 00-1.679-.256l-23.18 13.311-31.98-18.007c-.07-.038-.143-.06-.214-.086L45.431.848a1.359 1.359 0 00-1.865-.565L.708 23.82a1.37 1.37 0 00-.656.82c-.099.351-.056.726.122 1.044l10.154 17.818c-.004.036.129.07.129.109v40.818h-.264s.212 1.186.636 1.442l42.434 25.748c.217.133.46.266.705.266.24 0 .48-.029.696-.155l43.303-25.869c.429-.254.645-1.43.645-1.43h.498V43.825l12.728-18.983c.359-.526.07-1.23-.364-1.696zm-63.737 40.31l6.286-4.014 3.634 2.373-3.424 5.487-6.496-3.845zm5-6.345l-7.566 4.791-30.825-18.257 38.39-21.915v35.38zm-39.553-11.07l39.553 23.97v38.159L13.184 84.207V46.043zm42.28 23.979l40.917-24.004v38.18l-40.916 23.999V70.021zM59.17 59.5l-3.704-2.462v-35.32l28.462 16.066-17.205 9.863a1.3 1.3 0 00-.461.46L59.169 59.5zM43.656 3.344l8.171 15.691-39.56 22.601-9.04-16.088 40.43-22.204zm52.488 39.293l.056.038-37.065 21.926 9.209-14.76 37.644-21.619-9.844 14.415z"/><defs><clipPath id="cclip0"><path d="M0 0h112v112H0z"/></clipPath></defs></symbol><symbol viewBox="0 0 112 112" id="card_th" xmlns="http://www.w3.org/2000/svg"><path d="M106.424 91.895L83.327 68.798l9.342-3.4a1.746 1.746 0 001.122-1.945L91.29 49.261l7.205-12.48a1.746 1.746 0 00-.39-2.21l-11.039-9.264-2.502-14.192a1.746 1.746 0 00-1.72-1.443H68.43L57.393.41a1.747 1.747 0 00-2.246 0L44.108 9.672H29.697c-.848 0-1.573.608-1.72 1.443l-2.502 14.191-11.04 9.264a1.746 1.746 0 00-.39 2.21l7.206 12.48-2.503 14.193a1.746 1.746 0 001.123 1.944l8.946 3.256-23.24 23.242a1.747 1.747 0 001.09 2.975L21 96.065l1.195 14.334a1.746 1.746 0 002.975 1.09L56 80.659l30.83 30.83a1.748 1.748 0 002.975-1.09L91 96.065l14.334-1.195a1.748 1.748 0 001.09-2.975zm-81.06 14.461l-1.006-12.054a1.746 1.746 0 00-1.595-1.595L10.71 91.702l21.73-21.73.974.354 7.205 12.48a1.747 1.747 0 002.11.769l8.515-3.1-25.88 25.881zm32.33-30.908l-.827-.301a1.744 1.744 0 00-1.195 0l-1.225.446L42.91 79.79l-6.79-11.76a1.748 1.748 0 00-.915-.768l-2.616-.953-10.146-3.692L24.8 49.242a1.747 1.747 0 00-.207-1.177l-6.79-11.761 10.403-8.73c.315-.264.526-.63.597-1.034l2.359-13.375h13.58c.411 0 .809-.145 1.123-.409l10.404-8.73 10.404 8.73c.314.264.712.409 1.122.409h13.582l2.358 13.375c.071.404.283.77.597 1.034l10.404 8.73-6.79 11.761a1.746 1.746 0 00-.208 1.177l2.358 13.375-10.54 3.836-2.222.809c-.385.14-.71.412-.915.768L69.63 79.79l-11.933-4.343h-.003zm31.543 17.259c-.85.07-1.524.745-1.595 1.595l-1.005 12.054-26.189-26.19 9.364 3.409a1.747 1.747 0 002.11-.768l7.205-12.48.578-.211 21.586 21.586-12.054 1.005z"/><path d="M56 14.989c-15.343 0-27.825 12.482-27.825 27.826C28.175 58.158 40.657 70.64 56 70.64c15.344 0 27.826-12.482 27.826-27.825S71.344 14.989 56 14.989zm0 52.159c-13.417 0-24.333-10.916-24.333-24.333 0-13.418 10.916-24.333 24.333-24.333 13.417 0 24.333 10.916 24.333 24.333 0 13.417-10.916 24.333-24.333 24.333z"/><path d="M76.1 37.254a1.746 1.746 0 00-1.662-1.207h-12.89l-3.982-12.259a1.747 1.747 0 00-3.322 0l-3.983 12.259H37.372a1.746 1.746 0 00-1.026 3.16l10.427 7.575-3.983 12.259a1.746 1.746 0 002.688 1.952l10.427-7.576 10.427 7.576a1.746 1.746 0 002.688-1.953l-3.983-12.258 10.427-7.576a1.747 1.747 0 00.635-1.953zm-14.142 7.448a1.747 1.747 0 00-.635 1.953l2.714 8.353-7.106-5.162a1.746 1.746 0 00-2.052 0l-7.106 5.162 2.714-8.353a1.746 1.746 0 00-.635-1.952l-7.105-5.163h8.783c.757 0 1.427-.487 1.661-1.207l2.714-8.353 2.714 8.353c.234.72.904 1.207 1.661 1.207h8.783l-7.105 5.162z"/><defs><clipPath id="dclip0"><path d="M0 0h112v112H0z"/></clipPath></defs></symbol><symbol viewBox="0 0 111 111" id="card_tw" xmlns="http://www.w3.org/2000/svg"><path d="M94.18 17.33l2.36-4.818c1.41-2.88 1.31-6.362-.254-8.87C94.82 1.293 92.289 0 89.158 0H21.842c-3.131 0-5.663 1.293-7.128 3.642-1.564 2.507-1.664 5.99-.254 8.87l2.36 4.817c-2.768 13.085-3.974 25.115-3.794 37.806.154 10.903 1.296 22.438 3.816 38.486l-2.383 4.862c-1.41 2.885-1.309 6.369.257 8.878 1.466 2.346 3.996 3.639 7.126 3.639h67.316c3.13 0 5.66-1.293 7.126-3.639 1.566-2.509 1.667-5.993.257-8.88l-2.383-4.86c2.52-16.048 3.663-27.583 3.817-38.486.179-12.691-1.027-24.72-3.795-37.806zm-.655 88.308c-.861 1.381-2.371 2.11-4.367 2.11H21.842c-1.996 0-3.506-.73-4.367-2.11-.986-1.579-1.022-3.827-.095-5.725l2.161-4.412H91.46l2.16 4.41c.929 1.9.892 4.148-.094 5.727zm-2.445-13.39H19.92c-4.25-27.318-5.477-47.46-.07-73.504h34.063a1.625 1.625 0 100-3.252H19.541l-2.16-4.41c-.928-1.896-.892-4.141.092-5.719.863-1.381 2.372-2.11 4.37-2.11h67.315c1.996 0 3.507.729 4.368 2.11.985 1.578 1.021 3.823.093 5.718l-2.161 4.412H61.502a1.626 1.626 0 000 3.251H91.15c5.407 26.045 4.18 46.186-.07 73.505z"/><path d="M71.34 66.358c3.817-4.72 4.75-10.504 2.53-16.115-1.775-4.488-5.403-8.405-10.492-11.327-5.47-3.14-12.505-4.996-20.346-5.367l-.085-.002c-5.118.023-7.834 2.466-8.074 7.26l-.002.083c.005 6.601 1.899 13.341 5.336 18.979 3.313 5.433 7.797 9.508 12.624 11.477 2.145.874 4.266 1.307 6.32 1.307 3.602 0 6.995-1.335 9.94-3.946l6.177 5.96a1.622 1.622 0 002.3-.04 1.626 1.626 0 00-.042-2.3l-6.185-5.97zm-2.353-2.27l-3.61-3.485.526-6.869a1.625 1.625 0 10-3.243-.248l-.32 4.186-4.853-4.683.403-5.347a1.626 1.626 0 10-3.243-.245l-.2 2.658-3.242-3.128a1.626 1.626 0 10-2.258 2.34L52.1 52.31l-2.173.184a1.626 1.626 0 10.273 3.24l5.01-.424 4.782 4.615-3.596.306a1.626 1.626 0 10.275 3.24l6.43-.547 3.643 3.517c-4.583 3.926-9.373 3.243-12.685 1.892-7.711-3.143-15.91-13.814-15.935-27.403.134-2.53.994-4.103 4.797-4.13 16.635.796 25.332 8.082 27.926 14.638 1.73 4.376 1.041 8.9-1.86 12.65z"/></symbol><symbol viewBox="0 0 28 28" id="delete" xmlns="http://www.w3.org/2000/svg"><path d="M22.123 3.355h-4.358A3.795 3.795 0 0014.001 0a3.795 3.795 0 00-3.764 3.355H5.878A3.202 3.202 0 002.68 6.554v.164a3.2 3.2 0 002.021 2.971v15.112A3.203 3.203 0 007.9 28h12.202a3.203 3.203 0 003.199-3.199V9.689a3.202 3.202 0 002.021-2.971v-.164a3.203 3.203 0 00-3.198-3.2zm-8.122-1.838c1.105 0 2.027.792 2.231 1.838H11.77A2.277 2.277 0 0114 1.517zm7.783 23.284c0 .927-.755 1.682-1.682 1.682H7.9a1.684 1.684 0 01-1.682-1.682V9.917h15.566V24.8zm2.021-18.083c0 .927-.755 1.682-1.682 1.682H5.878a1.684 1.684 0 01-1.681-1.682v-.164c0-.928.754-1.682 1.681-1.682h16.245c.927 0 1.682.754 1.682 1.682v.164z"/><path d="M9.934 24.543c.42 0 .759-.34.759-.759v-8.54a.759.759 0 00-1.517 0v8.54c0 .42.34.759.758.759zm4.066 0c.42 0 .76-.34.76-.759v-8.54a.759.759 0 00-1.518 0v8.54c0 .42.34.759.759.759zm4.067 0a.76.76 0 00.759-.759v-8.54a.759.759 0 00-1.517 0v8.54c0 .42.34.759.758.759z"/></symbol><symbol viewBox="0 0 176 35" id="dorohov" xmlns="http://www.w3.org/2000/svg"><path d="M2.032 8.512C2.032 6.016 4.08 4 6.64 4c1.088 0 2.048.24 2.8.864V3.328c-.832-.192-1.584-.496-2.88-.496-3.328 0-5.856 2.544-5.856 5.68 0 3.12 2.528 5.664 5.856 5.664 1.216 0 2.048-.24 2.992-.528v-1.504c-.72.624-1.744.896-2.896.896-2.576 0-4.624-2.032-4.624-4.528zm8.655 1.904a3.698 3.698 0 003.696 3.696 3.701 3.701 0 003.712-3.696 3.718 3.718 0 00-3.712-3.728c-2.032 0-3.696 1.664-3.696 3.728zm1.2 0c0-1.456 1.104-2.64 2.495-2.64 1.393 0 2.513 1.184 2.513 2.64 0 1.44-1.12 2.608-2.512 2.608s-2.496-1.152-2.496-2.608zm9.538.304c1.088 0 1.696.48 1.696 1.184 0 .72-.592 1.264-1.632 1.264-.992 0-1.728-.352-2.208-.752h-.016v1.104c.48.16 1.136.608 2.48.608 1.472 0 2.592-.816 2.592-2.128 0-.976-.8-1.504-1.456-1.712.672-.256 1.28-.816 1.28-1.632 0-1.12-.976-1.968-2.576-1.968-1.248 0-1.648.416-2.064.48v1.12c.304-.336 1.056-.704 1.936-.704 1.008 0 1.504.512 1.504 1.104 0 .736-.672 1.152-1.648 1.152-.368 0-.816-.016-1.008-.064V10.8c.192-.048.704-.08 1.12-.08zm12.023 2.24c-.192.032-.608.048-1.008.048l-2.624-6.192h-1.104c.096.24.08.448 0 .656l-2.32 5.536c-.384 0-.768-.016-1.008-.048l.192 3.456H26.6L26.536 14h5.76l-.128 2.416h1.024l.256-3.456zm-2.336.048h-3.664l1.84-4.608 1.824 4.608zm5.614-5.328c1.36 0 1.856.928 1.856 2.064v.912c-.24-.4-.944-.72-1.696-.72-1.6 0-2.48.976-2.48 2.16 0 1.2.896 2.08 2.4 2.08.752 0 1.456-.304 1.824-.848.08.576.464.848.944.848.48 0 .736-.128.944-.272v-.784c-.08.064-.224.08-.352.08-.224 0-.416-.112-.416-.624V9.872c0-2.16-.896-3.184-2.752-3.184-1.04 0-1.616.4-2.064.48v1.248c.4-.416.944-.736 1.792-.736zm-1.088 4.352c0-.672.528-1.248 1.504-1.248.816 0 1.472.576 1.472 1.248 0 .72-.656 1.28-1.472 1.28-.976 0-1.504-.56-1.504-1.28zm7.62-3.36c0-.72.032-1.568.032-1.856h-1.504c-.112.272-.288.56-.448.768h.72c0 .336.016.736.016 1.088v3.824c0 .56-.032 1.216-.048 1.504h1.264a33.972 33.972 0 01-.032-1.504v-1.904h3.52v1.904c0 .56-.016 1.216-.048 1.504h1.28a30.042 30.042 0 01-.048-1.504V8.672c0-.56.016-1.408.048-1.856h-1.28c.032.432.048 1.264.048 1.856v1.04h-3.52v-1.04zm11.58 3.808c0 .56-.015 1.232-.031 1.52h1.232c-.032-.288-.048-.96-.048-1.536V8.72c0-.656.016-1.472.048-2.032h-.4c-.384.576-.688.976-1.2 1.616l-3.072 3.76v-3.36c0-.592.016-1.44.048-1.888h-1.456c-.112.272-.288.56-.448.768h.672c.016.384.032.8.032 1.12v3.952c0 .448-.016.976-.064 1.6h.496c.464-.624.784-1.008 1.248-1.584l2.944-3.632v3.44zm9.552-2.144c.016-.048.032-.176.032-.272 0-1.296-1.072-3.36-3.312-3.36-1.888 0-3.392 1.568-3.392 3.728 0 2.08 1.536 3.696 3.648 3.696 1.36 0 1.856-.352 2.4-.416v-1.184c-.704.464-1.312.592-2.208.592-1.552 0-2.608-1.328-2.56-2.784h5.392zm-3.28-2.704c1.152 0 1.904.992 2 1.824h-4.08c.256-1.024 1.024-1.824 2.08-1.824zm-59.27 17.8c0-1.456 1.104-2.656 2.512-2.656.752 0 1.2.176 1.632.496V21.88c-.512-.032-.96-.192-1.664-.192-2.112 0-3.712 1.664-3.712 3.744 0 2.032 1.6 3.68 3.712 3.68.768 0 1.152-.128 1.696-.192v-1.392c-.4.352-.864.512-1.664.512-1.392 0-2.512-1.168-2.512-2.608zm7.683-2.752c1.36 0 1.856.928 1.856 2.064v.912c-.24-.4-.944-.72-1.697-.72-1.6 0-2.48.976-2.48 2.16 0 1.2.896 2.08 2.4 2.08.752 0 1.457-.304 1.825-.848.08.576.463.848.944.848.48 0 .736-.128.944-.272v-.784c-.08.064-.224.08-.352.08-.224 0-.416-.112-.416-.624v-2.704c0-2.16-.897-3.184-2.753-3.184-1.04 0-1.616.4-2.064.48v1.248c.4-.416.944-.736 1.793-.736zm-1.088 4.352c0-.672.527-1.248 1.503-1.248.816 0 1.473.576 1.473 1.248 0 .72-.656 1.28-1.473 1.28-.976 0-1.504-.56-1.504-1.28zm11.06.448c0 .56-.016 1.232-.032 1.52h1.232c-.032-.288-.048-.96-.048-1.536V23.72c0-.656.016-1.472.048-2.032h-.4c-.384.576-.688.976-1.2 1.616l-3.072 3.76v-3.36c0-.592.016-1.44.048-1.888h-1.456c-.112.272-.288.56-.448.768h.672c.016.384.032.8.032 1.12v3.952c0 .448-.016.976-.064 1.6h.496c.464-.624.784-1.008 1.248-1.584l2.944-3.632v3.44zm-2.912-8.56h-.928c0 1.104.976 1.984 2.192 1.984 1.248 0 2.24-.88 2.24-1.984h-.928c0 .672-.592 1.168-1.296 1.168-.704 0-1.28-.496-1.28-1.168zm7.042 2.896c-.72 0-1.408-.016-1.712-.032v1.104c.304-.016.992-.032 1.712-.032h.704v4.24c0 .752-.032 1.6-.048 1.904h1.328c-.032-.304-.048-1.152-.048-1.904v-4.24h.72c.72 0 1.392.016 1.712.032v-1.104c-.32.016-.992.032-1.712.032h-2.656zm7.32.864c1.36 0 1.855.928 1.855 2.064v.912c-.24-.4-.944-.72-1.696-.72-1.6 0-2.48.976-2.48 2.16 0 1.2.896 2.08 2.4 2.08.752 0 1.456-.304 1.824-.848.08.576.464.848.944.848.48 0 .736-.128.944-.272v-.784c-.08.064-.224.08-.352.08-.224 0-.416-.112-.416-.624v-2.704c0-2.16-.896-3.184-2.752-3.184-1.04 0-1.616.4-2.064.48v1.248c.4-.416.944-.736 1.792-.736zm-1.089 4.352c0-.672.528-1.248 1.504-1.248.816 0 1.472.576 1.472 1.248 0 .72-.656 1.28-1.472 1.28-.976 0-1.504-.56-1.504-1.28zm9.233-2.288v1.024h13.904v-1.024H39.089zm77.648-9.159V7.88h3.205c2.373 0 4.122 1.432 4.122 3.831 0 2.4-1.707 3.831-4.08 3.831h-3.247v.043zm5.329-3.832c0-1.178-.708-2.105-2.082-2.105h-1.249v4.21h1.249c1.291 0 2.082-.968 2.082-2.104zm2.747.001c0-2.358 1.749-3.958 4.08-3.958s4.038 1.642 4.038 3.958c0 2.315-1.748 3.957-4.038 3.957-2.373 0-4.08-1.642-4.08-3.957zm6.12 0c0-1.263-.791-2.232-2.04-2.232s-2.081.969-2.081 2.232c0 1.263.79 2.23 2.081 2.23 1.207 0 2.04-1.01 2.04-2.23zm7.41 3.831l-1.291-2.569h-.999v2.569h-1.956V7.88h3.788c1.665 0 2.623 1.137 2.623 2.568 0 1.348-.791 2.063-1.499 2.316l1.54 2.82h-2.206zm.208-5.137c0-.505-.416-.8-.957-.8h-1.541v1.642h1.541c.499 0 .957-.294.957-.842zm2.748 1.306c0-2.358 1.748-3.958 4.079-3.958 2.332 0 4.038 1.642 4.038 3.958 0 2.315-1.748 3.957-4.038 3.957-2.331 0-4.079-1.642-4.079-3.957zm6.161 0c0-1.263-.791-2.232-2.04-2.232s-2.082.969-2.082 2.232c0 1.263.791 2.23 2.082 2.23 1.207 0 2.04-1.01 2.04-2.23zm8.242 3.831V12.51h-3.163v3.074h-1.957V7.88h1.957v2.905h3.163V7.922h1.957v7.663h-1.957zm3.123-3.831c0-2.358 1.748-3.958 4.079-3.958 2.332 0 4.039 1.642 4.039 3.958 0 2.315-1.749 3.957-4.039 3.957-2.331 0-4.079-1.642-4.079-3.957zm6.119 0c0-1.263-.791-2.232-2.081-2.232-1.249 0-2.082.969-2.082 2.232 0 1.263.791 2.23 2.082 2.23 1.29 0 2.081-1.01 2.081-2.23zm4.913 3.831l-2.873-7.705h2.207l1.873 5.557 1.873-5.557h2.207l-2.873 7.662h-2.414v.043zm-53.12 11.493v-7.662h3.205c2.373 0 4.122 1.431 4.122 3.831s-1.707 3.831-4.08 3.831h-3.247zm5.329-3.831c0-1.179-.708-2.105-2.082-2.105h-1.249v4.21h1.249c1.291 0 2.082-.968 2.082-2.105zm3.163 3.831v-7.662h5.537v1.726h-3.622v1.179h3.539v1.726h-3.539v1.305h3.622v1.726h-5.537zm6.411-1.053l1.041-1.473a3.389 3.389 0 002.415 1.01c.666 0 1.082-.252 1.082-.631 0-1.053-4.288-.21-4.288-3.158 0-1.305 1.082-2.442 3.039-2.442 1.207 0 2.29.38 3.081 1.053l-1.083 1.431c-.624-.547-1.457-.8-2.206-.8-.583 0-.833.211-.833.548 0 .968 4.288.252 4.288 3.115 0 1.558-1.124 2.568-3.164 2.568-1.54 0-2.622-.505-3.372-1.22zm7.66 1.053v-7.662h1.957v7.662H139.3zm3.123-3.831c0-2.442 1.831-3.957 4.121-3.957 1.707 0 2.706.926 3.247 1.852l-1.623.842c-.292-.506-.875-.969-1.624-.969-1.249 0-2.123.969-2.123 2.232 0 1.263.874 2.231 2.123 2.231.541 0 1.124-.21 1.415-.463v-.59h-1.706V22.7h3.663v3.073c-.833.926-1.915 1.515-3.372 1.515-2.248-.042-4.121-1.6-4.121-4.041zm14.029 3.831l-3.206-4.42v4.462h-1.956v-7.704h1.998l3.081 4.21v-4.21h1.956v7.662h-1.873zM88.887.892H75.898v33.132H88.97c10.99 0 18.067-6.525 18.067-16.587C106.996 7.375 99.919.892 88.887.892zm-.333 26.48h-5.787V8.007h5.87c6.786 0 11.531 2.694 11.531 9.472 0 5.43-4.33 9.893-11.614 9.893z"/><path d="M89.886 13.522h-1.499v7.873h1.499c2.956 0 4.704-1.81 4.704-4.042-.042-2.737-1.957-3.831-4.704-3.831z"/></symbol><symbol viewBox="0 0 14 14" id="dropdown" xmlns="http://www.w3.org/2000/svg"><path d="M12.367 2.683L7 8.05 1.633 2.683 0 4.317l7 7 7-7-1.633-1.634z"/></symbol><symbol viewBox="0 0 29 29" id="email" xmlns="http://www.w3.org/2000/svg"><path d="M24.753 4.247A14.406 14.406 0 0014.5 0 14.405 14.405 0 004.247 4.247 14.405 14.405 0 000 14.5c0 3.873 1.508 7.514 4.247 10.253A14.406 14.406 0 0014.5 29c1.957 0 3.856-.384 5.644-1.14l-.698-1.652c-1.566.662-3.23.998-4.946.998-7.006 0-12.706-5.7-12.706-12.706 0-7.006 5.7-12.706 12.706-12.706 7.006 0 12.706 5.7 12.706 12.706 0 3.069-1.885 4.466-3.637 4.466S19.93 17.57 19.93 14.5a5.437 5.437 0 00-5.43-5.431A5.437 5.437 0 009.069 14.5a5.437 5.437 0 005.431 5.431c1.773 0 3.35-.854 4.342-2.172.254.512.574.976.96 1.382a5.154 5.154 0 003.767 1.62 5.154 5.154 0 003.767-1.62C28.425 17.996 29 16.39 29 14.5c0-3.873-1.508-7.514-4.247-10.253zM14.5 18.137a3.641 3.641 0 01-3.637-3.637 3.641 3.641 0 013.637-3.637 3.641 3.641 0 013.637 3.637 3.641 3.641 0 01-3.637 3.637z"/></symbol><symbol viewBox="0 0 18 18" id="form_phone" xmlns="http://www.w3.org/2000/svg"><path d="M3.668 11.965a19.096 19.096 0 006.352 4.976c.928.44 2.17.962 3.554 1.052.086.003.168.007.254.007.929 0 1.675-.32 2.282-.98.004-.005.012-.012.015-.02.217-.26.463-.496.72-.745.175-.168.355-.344.526-.523.795-.828.795-1.88-.007-2.681l-2.242-2.242c-.38-.395-.835-.604-1.313-.604-.477 0-.936.209-1.328.6l-1.335 1.335a7.079 7.079 0 00-.37-.194 4.605 4.605 0 01-.41-.223c-1.215-.772-2.32-1.78-3.375-3.074-.533-.675-.891-1.242-1.141-1.82.35-.317.679-.649.996-.973.112-.116.227-.231.343-.347.403-.403.619-.87.619-1.343 0-.474-.213-.94-.62-1.343l-1.11-1.111c-.131-.13-.254-.257-.381-.388a20.455 20.455 0 00-.757-.75C4.556.198 4.104 0 3.627 0c-.474 0-.929.198-1.328.578L.904 1.973A2.866 2.866 0 00.05 3.808c-.07.892.093 1.839.518 2.984.653 1.772 1.638 3.417 3.1 5.173zM.96 3.886c.045-.496.235-.91.593-1.268l1.388-1.387c.216-.209.455-.317.686-.317.227 0 .459.108.671.324.25.232.485.474.739.731l.388.396 1.111 1.111c.231.231.35.466.35.698 0 .23-.119.466-.35.697-.116.116-.231.235-.347.35-.347.351-.671.683-1.03 1l-.018.019c-.31.31-.261.604-.186.828l.01.03c.288.69.687 1.346 1.31 2.13 1.119 1.38 2.298 2.45 3.595 3.274.16.105.332.187.493.269.149.074.287.145.41.224l.041.022a.78.78 0 00.362.093c.298 0 .492-.19.556-.253l1.395-1.395c.216-.217.45-.332.682-.332.284 0 .515.175.66.332l2.25 2.245c.447.448.443.932-.012 1.406-.156.168-.32.328-.496.496-.26.254-.533.515-.78.81-.428.462-.94.678-1.6.678-.063 0-.13-.003-.193-.007-1.224-.078-2.361-.556-3.216-.962a18.14 18.14 0 01-6.046-4.737C2.987 9.716 2.05 8.157 1.43 6.486 1.046 5.46.9 4.636.96 3.886z"/><defs><clipPath id="jclip0"><path d="M0 0h18v18H0z"/></clipPath></defs></symbol><symbol viewBox="0 0 12 20" id="form_quest" xmlns="http://www.w3.org/2000/svg"><path d="M6 19.68a2.42 2.42 0 01-1.698-.702A2.438 2.438 0 013.6 17.28c0-.627.255-1.245.7-1.695A2.437 2.437 0 016 14.88a2.43 2.43 0 011.695.7 2.44 2.44 0 01.705 1.7c0 .626-.255 1.244-.7 1.695-.133.127-.248.22-.364.3-.141.09-.277.16-.417.219a2.341 2.341 0 01-.92.186zm0-3.84a1.47 1.47 0 00-1.022.423c-.264.268-.418.64-.418 1.017 0 .376.154.748.423 1.021a1.452 1.452 0 001.301.39 1.34 1.34 0 00.265-.083c.09-.038.176-.083.259-.134a1.458 1.458 0 00.632-1.193c0-.377-.154-.75-.423-1.022A1.463 1.463 0 006 15.84zm0-1.44A2.403 2.403 0 013.6 12V9.6c0-1.323 1.077-2.4 2.4-2.4a1.201 1.201 0 000-2.4c-.662 0-1.2.538-1.2 1.2 0 1.323-1.077 2.4-2.4 2.4A2.403 2.403 0 010 6c0-3.308 2.692-6 6-6s6 2.692 6 6a6.03 6.03 0 01-3.6 5.5v.5c0 1.323-1.077 2.4-2.4 2.4zM6 3.84c1.191 0 2.16.969 2.16 2.16 0 1.191-.969 2.16-2.16 2.16-.794 0-1.44.646-1.44 1.44V12c0 .794.646 1.44 1.44 1.44.794 0 1.44-.646 1.44-1.44v-.825c0-.2.125-.38.312-.45A5.065 5.065 0 0011.04 6C11.04 3.22 8.78.96 6 .96A5.046 5.046 0 00.96 6c0 .794.646 1.44 1.44 1.44.794 0 1.44-.646 1.44-1.44 0-1.191.969-2.16 2.16-2.16z"/></symbol><symbol viewBox="0 0 18 18" id="minus" xmlns="http://www.w3.org/2000/svg"><path d="M17.023 7.744H.977C.668 7.744 0 8.163 0 9s.668 1.256.977 1.256h16.046c.308 0 .977-.419.977-1.256s-.669-1.256-.977-1.256z"/></symbol><symbol viewBox="0 0 29 29" id="phone" xmlns="http://www.w3.org/2000/svg"><path d="M5.91 19.277c2.86 3.42 6.303 6.111 10.233 8.016 1.496.71 3.497 1.55 5.727 1.695.138.006.27.012.408.012 1.496 0 2.698-.517 3.678-1.58.006-.006.018-.018.024-.03.348-.421.745-.8 1.16-1.202.282-.27.57-.553.847-.841 1.28-1.335 1.28-3.03-.012-4.321l-3.612-3.612c-.613-.637-1.346-.973-2.115-.973-.769 0-1.508.337-2.14.967l-2.15 2.152a11.374 11.374 0 00-.595-.313 7.454 7.454 0 01-.661-.36c-1.96-1.244-3.738-2.867-5.439-4.952-.859-1.088-1.436-2-1.838-2.932a36.192 36.192 0 001.604-1.569c.18-.186.367-.372.553-.559.649-.649.997-1.4.997-2.163 0-.763-.342-1.514-.997-2.163l-1.79-1.79c-.211-.211-.41-.415-.614-.626-.396-.408-.81-.829-1.22-1.208C7.34.318 6.612 0 5.843 0 5.08 0 4.347.318 3.704.931L1.457 3.18A4.618 4.618 0 00.08 6.135c-.114 1.436.15 2.963.836 4.808 1.051 2.854 2.638 5.504 4.993 8.334zM1.546 6.261a3.177 3.177 0 01.955-2.043l2.236-2.235c.348-.337.733-.51 1.105-.51.367 0 .74.173 1.082.522.402.373.781.763 1.19 1.178.204.21.414.42.625.637l1.79 1.79c.373.373.565.752.565 1.124 0 .373-.192.751-.565 1.124-.186.186-.372.378-.558.565-.56.565-1.082 1.1-1.659 1.61l-.03.03c-.499.499-.42.974-.3 1.334.005.018.012.03.018.048.462 1.112 1.105 2.17 2.109 3.432 1.802 2.223 3.701 3.947 5.793 5.276.258.168.534.3.793.432.24.12.462.235.66.36.025.013.043.025.067.037.198.102.39.15.583.15.48 0 .793-.306.895-.409l2.247-2.247c.349-.349.728-.535 1.1-.535.457 0 .83.283 1.064.535l3.623 3.617c.721.722.715 1.503-.018 2.266-.252.27-.517.529-.799.8-.42.408-.86.828-1.256 1.303-.691.745-1.514 1.094-2.578 1.094-.102 0-.21-.006-.312-.012-1.971-.126-3.804-.896-5.18-1.55-3.738-1.81-7.019-4.375-9.74-7.632-2.242-2.698-3.75-5.21-4.748-7.902-.62-1.653-.853-2.98-.757-4.188z"/><defs><clipPath id="mclip0"><path d="M0 0h29v29H0z"/></clipPath></defs></symbol><symbol viewBox="0 0 18 18" id="plus" xmlns="http://www.w3.org/2000/svg"><path d="M17.297 8.047H9.953V.703a.953.953 0 10-1.906 0v7.344H.703a.953.953 0 100 1.906h7.344v7.344a.953.953 0 101.906 0V9.953h7.344a.953.953 0 100-1.906z"/><defs><clipPath id="nclip0"><path d="M0 0h18v18H0z"/></clipPath></defs></symbol><symbol viewBox="0 0 14 14" id="ruble" xmlns="http://www.w3.org/2000/svg"><path d="M7.879 8.728a4.362 4.362 0 004.364-4.364A4.369 4.369 0 007.879 0H3.485a.41.41 0 00-.41.41v5.74h-.908a.41.41 0 00-.41.41v1.758c0 .226.184.41.41.41h.908v.937h-.908a.41.41 0 00-.41.41v1.758c0 .226.184.41.41.41h.908v1.347c0 .226.184.41.41.41h1.758a.41.41 0 00.41-.41v-1.347h2.665a.41.41 0 00.41-.41v-1.758a.41.41 0 00-.41-.41H5.653v-.937h2.226zm-2.226-6.15h2.226c.985 0 1.786.801 1.786 1.786S8.864 6.151 7.88 6.151H5.653V2.578z"/></symbol><symbol viewBox="0 0 9 13" id="ruble_small" xmlns="http://www.w3.org/2000/svg"><path d="M1.555 12.063V9.887H.163v-1.04h1.392V7.423H.161V6.207h1.392L1.552.639 4.56.638c1.398 0 2.433.282 3.105.847.682.565 1.024 1.387 1.024 2.464 0 1.088-.367 1.941-1.103 2.56-.736.608-1.818.913-3.248.913H2.994v1.424h2.64v1.04h-2.64l.001 2.176h-1.44zm1.439-5.857H4.13c.97 0 1.723-.16 2.256-.48.544-.32.816-.897.815-1.729 0-.725-.224-1.264-.672-1.616-.448-.351-1.147-.527-2.096-.527h-1.44v4.352z"/></symbol><symbol viewBox="0 0 30 30" id="search" xmlns="http://www.w3.org/2000/svg"><path d="M29.004 27.316l-6.902-6.902a12.057 12.057 0 002.742-7.67c0-6.68-5.42-12.1-12.1-12.1-6.685 0-12.1 5.42-12.1 12.1s5.415 12.1 12.1 12.1c2.912 0 5.578-1.026 7.664-2.737l6.902 6.897a1.195 1.195 0 001.694 0 1.188 1.188 0 000-1.688zm-16.26-4.88c-5.35 0-9.697-4.348-9.697-9.692s4.348-9.697 9.697-9.697c5.344 0 9.697 4.353 9.697 9.697 0 5.344-4.353 9.692-9.697 9.692z"/></symbol><symbol viewBox="0 0 20 20" id="user" xmlns="http://www.w3.org/2000/svg"><path d="M16.005 14.296l-3.185-1.592a.877.877 0 01-.487-.788v-1.127c.077-.093.157-.2.24-.317a7.63 7.63 0 00.985-1.933c.47-.216.775-.68.775-1.206V6c0-.321-.12-.632-.333-.875V3.352c.019-.183.092-1.275-.697-2.175C12.618.396 11.507 0 10 0S7.382.396 6.697 1.177c-.79.9-.716 1.992-.697 2.175v1.773A1.33 1.33 0 005.667 6v1.333c0 .406.184.784.499 1.037a6.995 6.995 0 001.167 2.412v1.103a.88.88 0 01-.459.773L3.901 14.28a3.006 3.006 0 00-1.568 2.64V18c0 1.582 5.015 2 7.667 2s7.667-.418 7.667-2v-1.014a2.991 2.991 0 00-1.662-2.69zM17 18c0 .452-2.47 1.333-7 1.333-4.53 0-7-.88-7-1.333v-1.08c0-.856.467-1.644 1.22-2.054l2.973-1.622c.498-.272.807-.793.807-1.359v-1.34l-.078-.092c-.008-.01-.825-.998-1.136-2.355l-.03-.132-.114-.074a.665.665 0 01-.309-.559V6a.66.66 0 01.224-.492l.11-.099V3.333l-.003-.043c-.001-.01-.115-.933.535-1.674.552-.63 1.495-.95 2.8-.95 1.303 0 2.243.318 2.796.943.65.734.542 1.673.541 1.68l-.003 2.12.11.1c.144.13.224.304.224.491v1.333a.663.663 0 01-.474.633l-.166.051-.054.165a6.979 6.979 0 01-.944 1.905c-.1.14-.196.264-.28.36l-.082.094v1.375c0 .59.327 1.12.855 1.384l3.184 1.592A2.327 2.327 0 0117 16.986V18z"/></symbol></svg>