<?xml version="1.0" standalone="no"?>
<!DOCTYPE svg PUBLIC "-//W3C//DTD SVG 20010904//EN"
 "http://www.w3.org/TR/2001/REC-SVG-20010904/DTD/svg10.dtd">
<svg version="1.0" xmlns="http://www.w3.org/2000/svg"
 width="85.000000pt" height="85.000000pt" viewBox="0 0 85.000000 85.000000"
 preserveAspectRatio="xMidYMid meet">
<metadata>
Created by potrace 1.11, written by Peter Selinger 2001-2013
</metadata>
<g transform="translate(0.000000,85.000000) scale(0.100000,-0.100000)"
fill="#000000" stroke="none">
<path d="M25 838 c-3 -7 -4 -198 -3 -423 l3 -410 395 0 395 0 0 420 0 420
-393 3 c-309 2 -394 0 -397 -10z m773 -331 c2 -312 2 -319 -18 -324 -27 -7
-27 -43 0 -43 18 0 20 -7 20 -56 0 -49 -2 -55 -15 -44 -12 10 -15 10 -15 0 0
-10 -3 -10 -15 0 -12 10 -15 10 -15 0 0 -10 -3 -10 -15 0 -12 10 -15 10 -15 0
0 -10 -3 -10 -15 0 -12 10 -15 10 -15 0 0 -10 -3 -10 -15 0 -12 10 -15 10 -15
0 0 -9 -4 -9 -13 -2 -7 6 -18 8 -24 4 -15 -9 -135 -8 -151 2 -7 4 -12 2 -12
-5 0 -8 -4 -8 -15 1 -12 10 -15 10 -15 0 0 -10 -3 -10 -15 0 -12 10 -15 10
-15 0 0 -10 -3 -10 -15 0 -12 10 -15 10 -15 0 0 -10 -3 -10 -15 0 -12 10 -15
10 -15 0 0 -9 -4 -9 -13 -2 -7 6 -18 8 -24 4 -15 -9 -135 -8 -151 2 -7 4 -12
2 -12 -5 0 -8 -4 -8 -15 1 -12 10 -15 10 -15 0 0 -10 -3 -10 -15 0 -12 10 -15
10 -15 0 0 -10 -3 -10 -15 0 -9 8 -15 30 -15 56 0 37 3 44 20 44 27 0 27 36 0
43 -19 5 -20 14 -20 319 0 173 3 318 7 321 4 4 173 6 377 5 l371 -3 3 -318z"/>
<path d="M160 757 c0 -28 59 -66 146 -92 98 -30 120 -25 94 22 -22 40 -98 74
-175 80 -54 5 -65 3 -65 -10z"/>
<path d="M602 690 c-98 -11 -115 -16 -130 -40 -12 -19 -10 -20 51 -20 86 0
162 23 164 50 1 11 -1 19 -5 19 -4 -1 -40 -5 -80 -9z"/>
<path d="M417 632 c-14 -3 -16 -7 -6 -18 6 -7 8 -22 4 -31 -3 -10 -9 -54 -12
-98 -2 -44 -7 -83 -10 -87 -2 -5 -22 -5 -44 -2 -32 5 -39 4 -39 -10 0 -18 8
-20 62 -17 20 2 47 -3 59 -10 22 -12 22 -12 -14 -31 -20 -10 -37 -23 -37 -29
0 -6 -7 -6 -20 1 -22 12 -27 1 -8 -18 15 -15 318 -17 318 -2 0 6 -11 10 -25
10 -29 0 -32 8 -7 26 16 13 16 15 -2 29 -14 10 -24 12 -38 4 -14 -7 -23 -7
-34 1 -7 7 -23 10 -33 7 -16 -4 -19 0 -18 21 2 20 -3 26 -25 29 -16 2 -28 -1
-28 -6 0 -6 -7 -8 -15 -5 -12 5 -15 24 -14 92 1 48 5 96 9 108 10 26 1 41 -23
36z"/>
<path d="M227 412 c-10 -10 -17 -22 -17 -27 0 -4 -7 -13 -15 -19 -8 -6 -16
-30 -19 -53 l-5 -43 80 0 c51 0 78 4 74 10 -3 6 -14 10 -23 10 -10 0 -27 7
-39 15 -15 11 -22 12 -25 3 -6 -17 -28 0 -28 21 0 26 23 71 38 71 6 0 12 7 12
15 0 20 -13 19 -33 -3z"/>
<path d="M273 250 c-13 -5 -32 -24 -43 -42 -21 -34 -23 -32 -20 15 1 22 -3 27
-22 27 -22 0 -25 -7 -41 -82 -21 -103 -22 -98 8 -98 20 0 25 6 31 35 7 37 24
48 24 16 0 -53 83 -70 125 -25 25 27 41 90 31 122 -4 10 -18 24 -32 30 -29 14
-31 14 -61 2z m42 -49 c8 -26 -21 -94 -37 -89 -19 7 -21 32 -4 72 17 40 31 46
41 17z"/>
<path d="M438 253 c-20 -3 -28 -10 -28 -24 0 -17 4 -20 29 -14 45 10 46 -12 2
-35 -53 -27 -68 -53 -46 -86 12 -18 24 -24 53 -24 44 0 67 13 59 32 -3 10 -15
13 -36 10 -23 -3 -31 0 -31 11 0 9 9 18 19 22 33 10 71 45 71 65 0 19 -36 51
-55 49 -5 -1 -22 -4 -37 -6z"/>
<path d="M604 246 c-33 -14 -64 -67 -64 -108 0 -70 77 -92 131 -39 40 41 44
113 8 144 -25 20 -34 21 -75 3z m46 -61 c0 -32 -20 -75 -36 -75 -27 0 -25 59
4 92 18 22 32 14 32 -17z"/>
</g>
</svg>
