<svg width="607" height="454" viewBox="0 0 607 454" fill="none" xmlns="http://www.w3.org/2000/svg">
<path d="M11.2569 242.772L9.70947 241.505L9.25692 242.058V242.772H11.2569ZM11.2569 263.444H9.25692V265.502L11.314 265.443L11.2569 263.444ZM100.082 263.121H102.082V261.121H100.082V263.121ZM99.1129 319L97.1272 318.762L96.8586 321H99.1129V319ZM146.917 319V321H149.006L148.915 318.913L146.917 319ZM146.271 263.121V261.121H144.271V263.121H146.271ZM181.155 263.767L180.995 265.761L183.155 265.933V263.767H181.155ZM181.155 228.237H183.155V226.056L180.982 226.245L181.155 228.237ZM146.271 229.206H144.271V231.206H146.271V229.206ZM146.594 98.391L148.592 98.4679L148.672 96.391H146.594V98.391ZM129.475 98.391V96.391H128.528L127.927 97.124L129.475 98.391ZM100.082 177.849H102.082V171.798L98.4759 176.657L100.082 177.849ZM100.082 229.206V231.206H102.082V229.206H100.082ZM61.9679 229.206L60.3619 228.014L57.993 231.206H61.9679V229.206ZM9.25692 242.772V263.444H13.2569V242.772H9.25692ZM11.314 265.443C22.5838 265.121 40.3156 265.121 51.6319 265.121V261.121C40.3383 261.121 22.54 261.121 11.1998 261.445L11.314 265.443ZM51.6319 265.121H100.082V261.121H51.6319V265.121ZM98.0819 263.121V289.93H102.082V263.121H98.0819ZM98.0819 289.93C98.0819 301.275 98.0788 310.831 97.1272 318.762L101.099 319.238C102.085 311.019 102.082 301.195 102.082 289.93H98.0819ZM99.1129 321H146.917V317H99.1129V321ZM148.915 318.913C148.593 311.504 148.271 301.521 148.271 289.93H144.271C144.271 301.595 144.595 311.638 144.919 319.087L148.915 318.913ZM148.271 289.93V263.121H144.271V289.93H148.271ZM146.271 265.121C161.168 265.121 173.02 265.123 180.995 265.761L181.314 261.773C173.14 261.119 161.09 261.121 146.271 261.121V265.121ZM183.155 263.767V228.237H179.155V263.767H183.155ZM180.982 226.245C173.644 226.883 162.089 227.206 146.271 227.206V231.206C162.107 231.206 173.808 230.883 181.328 230.229L180.982 226.245ZM148.271 229.206V136.828H144.271V229.206H148.271ZM148.271 136.828C148.271 122.917 148.271 106.817 148.592 98.4679L144.595 98.3141C144.271 106.761 144.271 122.961 144.271 136.828H148.271ZM146.594 96.391H129.475V100.391H146.594V96.391ZM127.927 97.124L9.70947 241.505L12.8044 244.039L131.022 99.658L127.927 97.124ZM98.0819 177.849V229.206H102.082V177.849H98.0819ZM100.082 227.206H61.9679V231.206H100.082V227.206ZM63.574 230.398L101.688 179.041L98.4759 176.657L60.3619 228.014L63.574 230.398ZM223.358 210.795C223.358 242.054 230.109 270.409 243.463 291.018C256.865 311.699 276.922 324.553 303.201 324.553V320.553C278.446 320.553 259.581 308.536 246.82 288.842C234.011 269.076 227.358 241.552 227.358 210.795H223.358ZM303.201 324.553C329.635 324.553 349.853 311.706 363.378 291.025C376.856 270.416 383.69 242.058 383.69 210.795H379.69C379.69 241.548 372.957 269.069 360.031 288.835C347.151 308.529 328.124 320.553 303.201 320.553V324.553ZM383.69 210.795C383.69 179.532 376.856 151.332 363.374 130.882C349.843 110.358 329.624 97.683 303.201 97.683V101.683C328.135 101.683 347.16 113.556 360.035 133.084C372.958 152.686 379.69 180.042 379.69 210.795H383.69ZM303.201 97.683C276.932 97.683 256.874 110.365 243.467 130.889C230.109 151.339 223.358 179.536 223.358 210.795H227.358C227.358 180.038 234.011 152.679 246.816 133.077C259.572 113.549 278.436 101.683 303.201 101.683V97.683ZM274.516 210.795C274.516 189.737 276.854 172.021 281.725 159.646C286.597 147.269 293.739 140.766 303.201 140.766V136.766C291.344 136.766 283.144 145.121 278.003 158.181C272.862 171.241 270.516 189.54 270.516 210.795H274.516ZM303.201 140.766C312.997 140.766 320.214 147.365 325.08 159.765C329.951 172.179 332.209 189.892 332.209 210.795H336.209C336.209 189.708 333.945 171.407 328.803 158.304C323.656 145.186 315.369 136.766 303.201 136.766V140.766ZM332.209 210.795C332.209 231.861 329.951 249.655 325.079 262.11C320.213 274.55 312.995 281.147 303.201 281.147V285.147C315.371 285.147 323.657 276.725 328.804 263.567C333.945 250.424 336.209 232.042 336.209 210.795H332.209ZM303.201 281.147C293.741 281.147 286.598 274.645 281.726 262.229C276.854 249.813 274.516 232.016 274.516 210.795H270.516C270.516 232.21 272.862 250.589 278.002 263.69C283.143 276.791 291.343 285.147 303.201 285.147V281.147ZM426.539 242.772L424.992 241.505L424.539 242.058V242.772H426.539ZM426.539 263.444H424.539V265.502L426.596 265.443L426.539 263.444ZM515.364 263.121H517.364V261.121H515.364V263.121ZM514.395 319L512.409 318.762L512.141 321H514.395V319ZM562.199 319V321H564.288L564.197 318.913L562.199 319ZM561.553 263.121V261.121H559.553V263.121H561.553ZM596.437 263.767L596.278 265.761L598.437 265.933V263.767H596.437ZM596.437 228.237H598.437V226.056L596.264 226.245L596.437 228.237ZM561.553 229.206H559.553V231.206H561.553V229.206ZM561.876 98.391L563.875 98.4679L563.954 96.391H561.876V98.391ZM544.757 98.391V96.391H543.81L543.21 97.124L544.757 98.391ZM515.364 177.849H517.364V171.798L513.758 176.657L515.364 177.849ZM515.364 229.206V231.206H517.364V229.206H515.364ZM477.25 229.206L475.644 228.014L473.275 231.206H477.25V229.206ZM424.539 242.772V263.444H428.539V242.772H424.539ZM426.596 265.443C437.866 265.121 455.598 265.121 466.914 265.121V261.121C455.62 261.121 437.822 261.121 426.482 261.445L426.596 265.443ZM466.914 265.121H515.364V261.121H466.914V265.121ZM513.364 263.121V289.93H517.364V263.121H513.364ZM513.364 289.93C513.364 301.275 513.361 310.831 512.409 318.762L516.381 319.238C517.367 311.019 517.364 301.195 517.364 289.93H513.364ZM514.395 321H562.199V317H514.395V321ZM564.197 318.913C563.875 311.504 563.553 301.521 563.553 289.93H559.553C559.553 301.595 559.877 311.638 560.201 319.087L564.197 318.913ZM563.553 289.93V263.121H559.553V289.93H563.553ZM561.553 265.121C576.45 265.121 588.302 265.123 596.278 265.761L596.597 261.773C588.422 261.119 576.372 261.121 561.553 261.121V265.121ZM598.437 263.767V228.237H594.437V263.767H598.437ZM596.264 226.245C588.926 226.883 577.371 227.206 561.553 227.206V231.206C577.389 231.206 589.09 230.883 596.61 230.229L596.264 226.245ZM563.553 229.206V136.828H559.553V229.206H563.553ZM563.553 136.828C563.553 122.917 563.553 106.817 563.875 98.4679L559.878 98.3141C559.553 106.761 559.553 122.961 559.553 136.828H563.553ZM561.876 96.391H544.757V100.391H561.876V96.391ZM543.21 97.124L424.992 241.505L428.086 244.039L546.305 99.658L543.21 97.124ZM513.364 177.849V229.206H517.364V177.849H513.364ZM515.364 227.206H477.25V231.206H515.364V227.206ZM478.856 230.398L516.97 179.041L513.758 176.657L475.644 228.014L478.856 230.398Z" fill="#55A865" fill-opacity="0.34"/>
<path d="M287.825 57.1598C287.825 57.1598 269.825 53.6598 266.325 38.4598C262.825 23.2598 261.625 17.6598 261.625 17.6598C261.625 17.6598 272.725 16.1598 282.925 26.3598C293.025 36.4598 292.125 55.2598 287.825 57.1598Z" fill="#C0D23F"/>
<path d="M287.826 57.7598H287.726C287.526 57.7598 269.226 53.9598 265.626 38.5598C262.126 23.5598 260.926 17.7598 260.926 17.7598C260.926 17.5598 260.926 17.3598 261.026 17.2598C261.126 17.1598 261.326 17.0598 261.426 16.9598C261.426 16.9598 262.026 16.8598 263.026 16.8598C266.426 16.8598 275.126 17.7598 283.226 25.8598C291.126 33.7598 292.226 45.8598 291.026 52.1598C290.426 55.1598 289.426 57.1598 288.026 57.7598C288.026 57.7598 287.926 57.7598 287.826 57.7598ZM262.326 18.1598C262.726 20.0598 264.126 26.1598 266.926 38.2598C270.126 51.9598 285.726 56.0598 287.726 56.4598C288.626 55.8598 289.426 54.2598 289.826 51.8598C290.926 45.8598 289.826 34.1598 282.326 26.6598C273.926 18.2598 264.826 18.0598 262.326 18.1598Z" fill="#84A42E"/>
<g opacity="0.4">
<path opacity="0.4" d="M287.627 33.2598C287.927 35.7598 288.027 38.4598 286.827 40.6598C286.827 40.7598 286.627 40.6598 286.627 40.6598C285.427 39.2598 285.227 37.5598 284.927 35.7598C284.827 34.8598 284.627 33.8598 284.327 32.9598C283.827 31.8598 282.927 34.1598 282.727 34.5598C282.727 34.6598 282.527 34.6598 282.527 34.5598C281.827 32.7598 282.127 30.8598 281.727 29.0598C281.627 28.8598 281.127 27.9598 281.227 27.7598C281.127 28.1598 281.127 28.4598 281.127 28.8598C281.127 29.6598 281.027 30.3598 280.827 31.0598C280.827 31.1598 280.627 31.0598 280.627 31.0598C278.427 27.4598 276.727 23.0598 273.927 19.8598C267.227 16.8598 261.727 17.5598 261.727 17.5598C261.727 17.5598 262.927 23.1598 266.427 38.3598C269.927 53.5598 287.927 57.0598 287.927 57.0598C291.227 55.5598 292.527 43.3598 287.627 33.2598Z" fill="#98C22E"/>
</g>
<path d="M302.126 0.559814C302.126 0.559814 284.126 10.1598 285.626 23.8598C286.426 30.7598 292.026 54.0598 292.026 54.0598C292.026 54.0598 309.526 29.0598 305.526 14.9598C302.126 5.75982 300.826 2.25981 302.126 0.559814Z" fill="#C0D23F"/>
<path d="M292.026 54.7598H291.926C291.726 54.6598 291.526 54.5598 291.426 54.2598C291.226 53.2598 285.826 30.8598 285.026 23.9598C283.526 9.95981 301.126 0.459809 301.926 0.0598086C302.226 -0.0401914 302.526 -0.0401945 302.726 0.259806C302.926 0.459805 302.926 0.859809 302.726 1.05981C301.626 2.45981 303.026 6.1598 306.026 14.3598L306.226 14.9598C310.226 29.1598 293.326 53.5598 292.626 54.6598C292.426 54.6598 292.226 54.7598 292.026 54.7598ZM301.026 1.95981C296.826 4.55981 285.126 12.9598 286.326 23.7598C287.026 29.5598 291.126 47.3598 292.326 52.4598C295.726 47.3598 308.326 26.9598 304.926 15.1598L304.726 14.6598C302.126 7.65981 300.926 4.15981 301.026 1.95981Z" fill="#84A42E"/>
<g opacity="0.4">
<path opacity="0.4" d="M301.626 2.3598C300.426 3.4598 299.326 4.5598 298.426 5.8598C296.126 8.9598 295.826 12.9598 293.526 16.0598C293.526 16.1598 293.326 16.1598 293.326 16.0598C293.026 15.3598 293.026 14.6598 292.926 13.8598C292.926 13.3598 292.926 12.8598 292.826 12.3598C292.826 12.1598 292.426 11.0598 292.326 11.1598C291.226 12.4598 291.326 14.7598 291.226 16.4598C291.126 18.6598 291.226 20.7598 290.926 22.9598C290.826 24.1598 290.626 25.7598 289.426 26.4598C288.626 26.8598 287.626 26.5598 287.026 25.9598C286.126 24.9598 286.026 23.3598 286.026 22.0598C286.026 20.1598 286.226 18.2598 286.626 16.4598C285.626 18.8598 285.126 21.4598 285.426 24.1598C286.226 31.0598 291.826 54.3598 291.826 54.3598C291.826 54.3598 309.326 29.3598 305.326 15.2598C303.026 8.1598 301.626 4.4598 301.626 2.3598Z" fill="#98C22E"/>
</g>
<g opacity="0.5">
<g opacity="0.5">
<path opacity="0.5" d="M280.526 37.7598C277.626 33.0598 272.226 30.3598 267.126 28.6598C267.026 28.6598 266.926 28.8598 266.926 28.9598C271.926 31.3598 276.426 34.0598 280.226 38.1598C280.326 38.1598 280.526 37.8598 280.526 37.7598Z" fill="#84A42E"/>
</g>
<g opacity="0.5">
<path opacity="0.5" d="M283.726 46.1598C281.326 44.1598 278.526 42.7598 275.626 41.7598C275.526 41.7598 275.326 42.0598 275.426 42.0598C278.226 43.3598 280.726 45.0598 283.326 46.7598C283.526 46.8598 283.926 46.3598 283.726 46.1598Z" fill="#84A42E"/>
</g>
<g opacity="0.5">
<path opacity="0.5" d="M284.626 33.6598C284.626 33.4598 284.526 33.5598 284.426 33.6598C283.626 35.8598 283.126 38.1598 283.726 40.4598C283.826 40.7598 284.226 40.3598 284.126 40.1598C283.926 37.9598 284.026 35.7598 284.626 33.6598Z" fill="#84A42E"/>
</g>
<g opacity="0.5">
<path opacity="0.5" d="M280.125 30.8598C279.825 29.6598 280.025 28.4598 279.825 27.2598C279.825 27.1598 279.625 27.3598 279.625 27.4598C279.725 28.9598 279.525 30.2598 279.825 31.6598C280.125 32.7598 280.525 33.8598 281.025 34.8598C281.125 35.0598 281.425 34.6598 281.425 34.4598C280.925 33.2598 280.425 32.1598 280.125 30.8598Z" fill="#84A42E"/>
</g>
</g>
<g opacity="0.5">
<g opacity="0.5">
<path opacity="0.5" d="M298.327 21.4598C296.027 23.4598 293.327 25.3598 292.327 28.4598C292.227 28.7598 292.527 28.6598 292.627 28.4598C293.927 25.6598 296.127 23.5598 298.327 21.4598C298.427 21.5598 298.427 21.4598 298.327 21.4598Z" fill="#84A42E"/>
</g>
<g opacity="0.5">
<path opacity="0.5" d="M291.826 14.2598C291.826 14.0598 291.526 14.3598 291.626 14.4598C292.026 16.3598 292.226 18.3598 292.726 20.2598C292.826 20.5598 293.126 20.1598 293.126 19.9598C292.926 18.0598 292.326 16.1598 291.826 14.2598Z" fill="#84A42E"/>
</g>
<g opacity="0.5">
<path opacity="0.5" d="M298.626 16.2598C297.726 16.7598 296.826 17.0598 296.226 17.9598C295.426 18.9598 294.926 20.1598 294.326 21.2598C294.126 21.6598 294.626 21.6598 294.726 21.3598C295.126 20.4598 295.526 19.5598 296.026 18.7598C296.726 17.6598 297.726 17.1598 298.626 16.2598C298.626 16.3598 298.626 16.2598 298.626 16.2598Z" fill="#84A42E"/>
</g>
</g>
<path d="M290.026 63.6598C290.026 63.6598 281.426 28.3598 264.326 18.7598C280.726 27.4598 288.426 49.1598 290.626 60.0598L290.026 63.6598Z" fill="#C0D23F"/>
<path d="M290.027 64.2598C289.727 64.2598 289.427 64.0598 289.427 63.7598C289.327 63.3598 280.727 28.6598 264.027 19.2598C263.727 19.0598 263.627 18.6598 263.827 18.3598C264.027 18.0598 264.427 17.9598 264.727 18.0598C284.527 28.5598 290.727 56.6598 291.327 59.8598C291.327 59.9598 291.327 60.0598 291.327 60.0598L290.727 63.5598C290.627 64.0598 290.327 64.2598 290.027 64.2598ZM276.827 30.4598C283.927 41.1598 288.227 54.6598 289.827 60.5598L289.927 60.0598C289.427 57.4598 286.027 42.3598 276.827 30.4598Z" fill="#5F8533"/>
<path d="M292.227 56.2598C292.227 56.2598 288.027 27.6598 300.527 7.15979C290.127 17.3598 287.027 40.0598 291.427 58.3598L292.227 56.2598Z" fill="#C0D23F"/>
<path d="M291.527 59.0598C291.227 59.0598 290.927 58.8598 290.927 58.5598C286.127 38.9598 290.127 16.6598 300.127 6.7598C300.327 6.5598 300.727 6.4598 300.927 6.6598C301.227 6.8598 301.227 7.2598 301.027 7.4598C288.827 27.4598 292.727 55.8598 292.827 56.0598C292.827 56.1598 292.827 56.2598 292.827 56.3598L292.127 58.4598C292.027 58.8598 291.727 59.0598 291.527 59.0598ZM296.727 13.1598C290.627 23.5598 288.427 40.0598 291.427 55.4598C291.027 50.9598 289.227 30.5598 296.727 13.1598Z" fill="#5F8533"/>
<path d="M312.925 185.86C304.725 180.76 306.225 168.16 310.525 161.46C315.925 153.06 325.625 147.16 335.025 144.26C341.525 142.26 348.925 141.36 355.725 141.76C382.725 143.56 389.725 141.06 389.725 141.06C389.725 141.06 386.125 147.46 384.325 155.46C382.425 163.46 381.225 182.46 367.825 197.86C354.425 213.26 338.225 215.46 327.425 209.76C316.625 204.06 315.725 195.56 315.525 191.46C315.125 187.26 312.925 185.86 312.925 185.86Z" fill="#86B133"/>
<path d="M339.325 213.16C334.925 213.16 330.725 212.16 327.125 210.26C315.725 204.26 315.125 194.96 314.825 191.36C314.525 187.66 312.625 186.36 312.525 186.36C309.625 184.56 307.625 181.56 306.825 177.86C305.425 171.76 307.425 164.96 309.925 161.06C314.925 153.26 324.025 146.96 334.825 143.56C341.425 141.56 349.125 140.66 355.725 141.06C362.225 141.46 368.125 141.76 373.225 141.76C385.625 141.76 389.425 140.46 389.525 140.46C389.725 140.36 390.025 140.46 390.225 140.66C390.425 140.86 390.425 141.16 390.325 141.36C390.325 141.46 386.825 147.76 385.025 155.56C384.725 156.86 384.425 158.46 384.125 160.36C382.425 169.66 379.625 185.26 368.425 198.26C359.825 207.86 349.525 213.16 339.325 213.16ZM313.225 185.26C313.225 185.26 315.825 186.76 316.125 191.26C316.425 194.86 316.925 203.46 327.725 209.06C331.125 210.86 335.225 211.86 339.325 211.86C349.225 211.86 359.125 206.66 367.325 197.26C378.325 184.56 381.125 169.16 382.725 160.06C383.025 158.16 383.325 156.56 383.625 155.16C385.025 149.26 387.325 144.16 388.425 141.86C386.325 142.26 381.825 142.96 373.125 142.96C368.025 142.96 362.125 142.76 355.525 142.26C349.025 141.86 341.525 142.76 335.025 144.66C324.525 147.86 315.725 154.06 310.825 161.56C308.425 165.26 306.525 171.66 307.825 177.46C308.825 181.06 310.525 183.66 313.225 185.26Z" fill="#528C45"/>
<g opacity="0.5">
<path opacity="0.5" d="M386.226 144.26C381.926 145.56 377.426 146.76 373.026 147.76C368.326 148.86 363.726 151.66 358.826 150.46C358.726 150.46 358.726 150.26 358.726 150.26C359.226 149.66 359.326 148.96 359.726 148.36C359.926 148.06 358.926 148.06 358.726 148.06C357.526 148.06 356.326 148.36 355.226 148.96C353.126 150.16 351.526 151.86 349.826 153.46C348.226 154.86 346.426 156.26 344.426 156.96C343.626 157.26 342.526 157.56 341.926 156.76C341.226 155.86 341.726 154.36 342.026 153.36C342.526 151.56 343.426 149.86 344.326 148.36C344.526 147.96 343.826 148.36 343.626 148.36C343.326 148.46 343.126 148.46 342.826 148.56C342.326 148.76 341.826 148.96 341.426 149.26C340.426 149.86 339.626 150.66 338.826 151.56C337.126 153.46 335.926 155.76 334.626 157.86C333.526 159.76 332.326 161.86 330.726 163.46C329.426 164.86 327.026 166.56 325.026 166.06C323.126 165.66 322.526 163.66 322.526 161.86C322.626 159.26 324.326 156.86 325.826 154.86C326.826 153.56 327.826 152.36 328.526 150.96C328.226 151.56 327.426 151.96 326.926 152.46C326.326 153.06 325.726 153.56 325.126 154.16C322.726 156.76 320.626 159.86 319.326 163.26C318.826 164.56 316.126 175.66 313.126 171.86C310.026 167.86 310.926 162.36 312.726 158.06V157.96C311.826 158.96 311.026 160.06 310.326 161.16C306.026 167.86 304.526 180.46 312.726 185.56C312.726 185.56 315.026 186.96 315.326 191.06C315.626 195.16 316.426 203.76 327.226 209.36C338.026 215.06 354.226 212.76 367.626 197.46C381.026 182.06 382.326 163.06 384.126 155.06C385.226 150.16 387.026 145.96 388.226 143.36C387.626 143.86 386.926 144.06 386.226 144.26Z" fill="#86B133"/>
</g>
<g opacity="0.5">
<path opacity="0.5" d="M384.225 144.86C383.425 145.66 382.725 146.46 382.125 147.46C379.525 151.76 378.725 156.56 377.225 161.26C374.325 170.96 371.325 180.96 365.525 189.36C362.925 193.16 359.725 196.56 355.825 198.96C351.625 201.56 346.825 202.76 341.925 202.86C337.625 202.96 332.425 202.66 329.325 199.26C327.125 196.86 325.825 193.06 327.225 189.86C328.825 186.26 332.825 185.36 336.325 186.06C338.725 186.46 341.025 187.16 343.425 187.66C345.925 188.16 349.025 188.86 351.425 187.76C352.025 187.46 352.625 187.16 353.025 186.66C353.525 186.16 353.525 186.16 352.825 186.06C351.825 185.96 350.825 185.86 349.825 185.76C347.425 185.56 344.925 185.36 342.625 184.86C339.625 184.16 334.025 181.96 336.025 177.76C337.025 175.66 339.125 174.26 341.125 173.26C343.025 172.26 345.125 171.36 347.325 170.96C352.925 169.96 358.725 171.26 364.325 170.16C365.825 169.86 367.225 169.46 368.525 168.76C369.125 168.46 369.625 168.16 370.125 167.76C370.425 167.46 370.825 167.16 371.125 166.86C371.525 166.46 371.325 166.66 370.825 166.76C367.225 167.46 363.625 168.16 359.925 168.06C358.525 168.06 348.425 166.96 352.225 163.46C353.925 161.86 356.825 161.16 359.025 160.76C361.725 160.36 364.425 160.26 367.125 160.06C369.825 159.86 372.725 159.56 375.125 158.36C375.725 158.06 376.325 157.76 376.825 157.36C377.125 157.16 377.425 156.96 377.625 156.66C377.725 156.56 378.125 156.46 377.925 156.46C377.125 156.46 376.325 156.56 375.625 156.56C374.025 156.66 367.525 157.66 367.525 154.66C367.525 153.16 369.625 152.36 370.725 151.86C372.825 150.86 375.025 150.06 377.025 148.96C377.225 148.86 377.425 148.76 377.625 148.56C377.325 148.76 376.525 148.66 376.225 148.66C375.325 148.76 374.425 148.76 373.525 148.86C371.725 149.06 370.025 149.16 368.325 149.46C368.225 149.46 368.125 149.46 368.025 149.56C365.625 150.36 363.125 151.06 360.625 150.96C359.825 151.16 359.025 151.26 358.225 151.56C355.125 152.36 352.125 153.36 349.125 154.46C347.725 155.66 346.225 156.76 344.525 157.36C343.825 157.56 343.025 157.76 342.325 157.46C341.025 158.06 339.725 158.76 338.525 159.46C332.825 162.66 327.025 166.66 322.625 171.66C321.025 173.46 319.525 175.46 317.825 177.16C316.425 178.66 314.725 180.26 312.725 180.86C310.925 181.36 309.325 180.76 308.025 179.66C308.925 182.26 310.525 184.56 313.025 186.06C313.025 186.06 315.325 187.46 315.625 191.56C315.925 195.66 316.725 204.26 327.525 209.86C338.325 215.56 354.525 213.26 367.925 197.96C381.325 182.56 382.625 163.56 384.425 155.56C385.525 150.66 387.325 146.46 388.525 143.86C387.825 144.06 387.125 144.36 386.325 144.56C385.625 144.46 384.925 144.66 384.225 144.86Z" fill="#86B133"/>
</g>
<path d="M275.926 200.86C275.926 200.86 284.126 210.56 275.626 222.86C267.126 235.16 248.926 231.36 239.826 215.36C230.726 199.36 220.826 181.66 212.326 177.66C212.326 177.66 224.826 168.76 246.726 167.46C268.626 166.16 276.126 177.06 280.926 184.76C285.726 192.46 283.526 199.96 278.326 198.66C274.526 197.36 274.326 198.16 275.926 200.86Z" fill="#86B133"/>
<path d="M261.927 230.86C253.227 230.86 244.527 225.06 239.227 215.76L238.427 214.26C229.827 199.16 220.127 182.06 212.027 178.26C211.827 178.16 211.727 177.96 211.627 177.76C211.627 177.56 211.727 177.26 211.927 177.16C212.027 177.06 224.827 168.06 246.627 166.86C267.927 165.66 275.727 175.36 281.427 184.46C284.627 189.66 284.727 194.56 283.227 197.16C282.127 199.06 280.227 199.86 278.127 199.36C276.927 198.96 276.127 198.76 275.727 198.76C275.527 198.76 275.527 198.76 275.527 198.76C275.627 198.76 275.627 199.06 276.427 200.56C276.427 200.56 284.727 210.76 276.127 223.26C272.827 228.16 267.727 230.86 261.927 230.86ZM213.627 177.66C221.727 182.36 230.827 198.26 239.527 213.66L240.327 215.16C245.427 224.06 253.627 229.66 261.927 229.66C267.327 229.66 271.927 227.16 275.127 222.66C283.227 210.86 275.527 201.46 275.527 201.36C274.627 199.76 274.127 198.76 274.627 198.06C275.127 197.26 276.127 197.26 278.627 198.06C278.927 198.16 279.227 198.16 279.527 198.16C280.927 198.16 281.827 197.26 282.227 196.46C283.427 194.26 283.427 189.86 280.427 185.06C276.227 178.36 269.027 166.76 246.827 168.06C228.527 169.16 216.827 175.66 213.627 177.66Z" fill="#528C45"/>
<g opacity="0.5">
<path opacity="0.5" d="M278.327 198.66C283.427 199.96 285.627 192.46 280.927 184.76C280.427 183.86 279.827 182.96 279.127 182.06C279.727 183.56 280.227 185.06 280.527 186.66C280.827 188.26 281.327 190.66 279.927 191.86C279.327 192.46 278.527 192.36 277.827 192.06C276.627 191.46 275.627 190.36 274.727 189.36C273.327 187.76 272.127 186.16 270.927 184.46C269.727 182.66 268.527 180.96 267.227 179.16C266.227 177.86 265.227 176.36 264.027 175.26C263.827 175.06 263.527 174.86 263.227 174.76C263.027 174.66 263.627 175.16 263.727 175.16C263.927 175.46 264.227 175.76 264.427 176.06C265.327 177.26 266.227 178.36 266.927 179.66C268.527 182.36 269.527 185.16 268.927 188.36H268.827C266.627 188.16 265.027 185.36 263.827 183.76C262.027 181.16 260.627 178.16 258.327 175.96C254.627 172.46 249.727 170.16 244.527 170.86C244.727 170.86 244.827 170.96 245.027 170.96C245.427 171.06 245.927 171.26 246.327 171.46C247.227 171.86 248.027 172.46 248.727 173.16C249.827 174.26 250.927 175.56 251.527 176.96C251.827 177.76 252.327 179.06 251.727 179.76C251.127 180.56 249.827 180.36 249.027 180.06C247.827 179.66 246.827 179.06 245.727 178.56C243.927 177.66 242.127 176.76 240.327 176.06C234.327 173.76 227.827 172.66 221.327 173.06C215.327 175.46 212.227 177.76 212.227 177.76C220.727 181.76 230.627 199.46 239.727 215.46C248.827 231.46 267.027 235.26 275.527 222.96C284.027 210.66 275.827 200.96 275.827 200.96C274.327 198.16 274.527 197.36 278.327 198.66Z" fill="#86B133"/>
</g>
<g opacity="0.5">
<path opacity="0.5" d="M278.327 198.66C279.427 198.96 280.327 198.76 281.127 198.36C280.627 198.36 280.127 198.36 279.727 198.26C277.027 197.76 274.727 196.26 272.527 194.86C271.327 194.06 270.227 193.36 269.027 192.66C267.627 191.96 266.127 191.36 264.727 190.66C258.527 187.66 252.727 184.06 246.227 181.66C242.627 180.36 239.027 179.56 235.227 179.26C233.127 179.06 231.027 178.86 229.027 179.06C228.627 179.06 228.227 179.16 227.927 179.16C228.827 179.16 229.727 179.26 230.627 179.36C234.227 179.86 237.727 181.16 241.327 181.76C244.327 182.26 247.427 182.36 250.227 183.56C251.527 184.06 254.327 185.36 254.427 187.06C254.527 188.16 252.427 188.26 251.827 188.26C247.727 188.56 243.527 187.46 239.427 188.66C238.227 189.06 236.827 189.56 236.027 190.66C235.827 190.86 235.727 191.06 235.627 191.26C235.327 191.96 235.727 191.96 236.327 191.96C237.227 191.96 238.227 191.86 239.127 191.76C240.827 191.46 242.627 190.86 244.327 190.86C246.127 190.76 247.927 190.76 249.727 190.86C253.027 191.06 256.227 191.36 259.527 191.86C261.627 192.16 263.927 192.66 265.827 193.66C266.927 194.36 268.627 195.86 267.627 197.36C266.427 198.96 264.127 199.26 262.427 200.06C260.527 200.86 258.627 202.26 257.227 203.76C256.727 204.36 255.427 206.06 256.427 206.86C257.227 207.46 258.727 206.66 259.427 206.26C261.327 205.26 263.127 203.96 264.927 202.76C266.527 201.76 268.427 201.06 270.327 201.46C275.327 202.46 276.327 208.86 274.727 212.96C272.727 217.96 267.527 220.76 262.327 221.36C257.727 221.86 252.727 221.36 249.027 218.36C247.127 216.76 245.627 214.76 244.727 212.46C244.027 210.76 243.527 209.06 243.427 207.26C243.327 205.46 243.527 203.66 243.127 201.96C242.327 198.66 239.427 196.46 237.227 194.06C236.627 193.46 236.027 192.86 235.527 192.26C235.427 192.26 235.327 192.26 235.227 192.26L235.127 192.16C235.127 192.06 235.227 192.06 235.227 191.96C233.627 190.36 232.027 188.76 230.127 187.46C226.627 185.06 222.427 183.26 218.127 182.36C225.127 189.56 232.727 203.16 239.827 215.56C248.927 231.56 267.127 235.36 275.627 223.06C284.127 210.76 275.927 201.06 275.927 201.06C274.327 198.16 274.527 197.36 278.327 198.66Z" fill="#86B133"/>
</g>
<path d="M313.826 91.8598C313.826 91.8598 304.226 90.6598 303.926 80.7598C303.626 70.8598 313.826 61.7598 324.426 59.0598C335.026 56.4598 353.026 51.4598 377.726 57.5598C371.126 63.8598 368.326 74.9598 365.326 83.3598C362.326 91.7598 357.926 105.16 344.626 111.46C331.426 117.76 318.326 110.66 315.626 101.86C313.726 93.3598 316.726 91.5598 313.826 91.8598Z" fill="#86B133"/>
<path d="M334.327 114.56C325.527 114.56 317.227 109.16 315.027 102.16C314.027 97.6598 314.227 94.9598 314.427 93.4598C314.427 93.0598 314.527 92.6598 314.527 92.4598H314.427C314.327 92.4598 314.127 92.4598 314.027 92.4598C313.727 92.4598 303.727 91.1598 303.427 80.7598C303.027 70.1598 313.827 61.0598 324.427 58.4598L325.527 58.1598C332.527 56.3598 342.127 53.9598 354.427 53.9598C362.227 53.9598 370.127 54.9598 378.027 56.8598C378.227 56.9598 378.427 57.0598 378.527 57.3598C378.627 57.5598 378.527 57.8598 378.327 57.9598C372.927 63.1598 370.027 71.6598 367.527 79.2598C367.027 80.7598 366.527 82.1598 366.027 83.5598L365.827 84.1598C362.827 92.7598 358.227 105.86 345.027 112.06C341.527 113.76 337.927 114.56 334.327 114.56ZM314.427 91.1598C314.727 91.1598 315.227 91.1598 315.527 91.5598C315.927 91.9598 315.927 92.5598 315.827 93.5598C315.727 95.0598 315.427 97.5598 316.427 101.76C318.427 108.26 326.127 113.26 334.427 113.26C337.827 113.26 341.227 112.46 344.427 110.96C357.127 104.96 361.627 92.1598 364.627 83.7598L364.827 83.1598C365.327 81.7598 365.827 80.3598 366.227 78.8598C368.627 71.5598 371.427 63.2598 376.527 57.8598C369.127 56.0598 361.627 55.2598 354.327 55.2598C342.127 55.2598 332.627 57.6598 325.727 59.3598L324.627 59.6598C314.727 62.1598 304.227 70.8598 304.627 80.6598C304.927 89.9598 313.627 91.0598 314.027 91.1598C314.027 91.1598 314.227 91.1598 314.427 91.1598Z" fill="#528C45"/>
<g opacity="0.5">
<path opacity="0.5" d="M374.226 59.7598C371.526 60.6598 368.726 61.5598 365.926 62.2598C363.626 62.7598 360.926 63.2598 358.626 62.4598C358.626 62.4598 358.526 62.4598 358.626 62.3598C359.026 61.6598 359.126 60.8598 359.626 60.1598C360.026 59.5598 360.226 59.4598 359.226 59.4598C357.426 59.4598 355.726 59.9598 354.126 60.7598C351.426 62.1598 349.226 64.2598 346.526 65.7598C344.826 66.7598 342.226 68.2598 340.226 67.6598C338.926 67.2598 339.326 65.6598 339.626 64.7598C340.426 62.8598 341.726 61.2598 343.226 59.8598C343.226 59.8598 343.826 59.4598 343.626 59.5598C343.226 59.6598 342.926 59.7598 342.526 59.9598C341.626 60.2598 340.826 60.6598 340.126 61.1598C338.926 61.9598 337.826 62.8598 336.826 63.9598C333.126 67.9598 330.226 73.1598 325.126 75.5598C324.226 75.9598 322.726 76.5598 321.926 75.6598C321.026 74.6598 321.426 72.8598 321.826 71.7598C322.126 70.9598 322.426 70.1598 322.826 69.4598C320.426 73.0598 318.126 76.8598 314.926 79.7598C312.526 81.9598 309.326 83.2598 306.726 80.5598C305.026 78.8598 304.826 76.4598 305.326 74.1598C304.426 76.2598 303.926 78.4598 304.026 80.7598C304.326 90.6598 313.926 91.8598 313.926 91.8598C316.726 91.5598 313.726 93.3598 315.726 101.96C318.326 110.76 331.426 117.86 344.726 111.56C357.926 105.26 362.426 91.8598 365.426 83.4598C368.226 75.6598 370.826 65.5598 376.526 59.1598C375.726 59.3598 374.926 59.5598 374.226 59.7598Z" fill="#86B133"/>
</g>
<g opacity="0.5">
<path opacity="0.5" d="M373.626 62.9598C368.426 68.1598 364.626 74.3598 361.426 80.9598C359.926 84.0598 358.626 87.2598 357.426 90.4598C356.326 93.2598 355.226 95.9598 353.726 98.5598C351.226 102.76 347.226 106.86 342.226 107.96C338.626 108.66 334.526 108.46 330.926 107.36C328.226 106.46 325.026 104.66 325.126 101.36C325.326 96.9598 329.026 94.9598 332.926 94.5598C335.326 94.3598 337.726 94.4598 340.126 94.3598C342.326 94.2598 344.726 94.0598 346.626 92.7598C347.126 92.4598 347.526 92.0598 347.926 91.6598C347.826 91.7598 347.726 91.7598 347.626 91.8598C346.726 92.2598 345.826 92.4598 344.826 92.5598C342.326 92.8598 339.726 92.7598 337.226 92.3598C335.226 92.0598 332.826 91.6598 331.026 90.4598C329.626 89.5598 328.226 87.9598 329.326 86.2598C332.026 82.2598 338.226 82.7598 342.326 83.2598C345.126 83.5598 347.926 83.9598 350.726 83.8598C353.226 83.7598 356.026 83.4598 358.026 81.7598C358.326 81.5598 358.626 81.2598 358.826 80.9598C359.026 80.7598 359.326 80.6598 359.026 80.6598C358.626 80.5598 358.326 80.5598 357.926 80.4598C357.026 80.3598 356.126 80.3598 355.226 80.2598C353.326 80.1598 351.426 80.0598 349.626 79.5598C348.526 79.2598 347.126 78.6598 346.626 77.5598C346.026 76.0598 346.926 74.1598 347.826 72.9598C350.826 69.1598 356.326 67.9598 360.726 66.7598C362.126 66.3598 363.426 66.0598 364.826 65.5598C365.326 65.3598 365.826 65.2598 366.326 65.0598C366.526 64.9598 366.826 64.8598 367.026 64.7598C367.126 64.6598 367.626 64.6598 367.326 64.6598C363.526 64.6598 359.726 65.0598 356.026 65.8598C348.326 67.5598 340.926 70.4598 333.726 73.8598C329.726 75.7598 325.926 77.7598 322.126 79.9598C318.626 82.0598 315.026 84.1598 311.226 85.5598C309.426 86.1598 307.326 86.8598 305.326 86.6598C308.126 91.2598 313.626 91.9598 313.626 91.9598C316.426 91.6598 313.426 93.4598 315.426 102.06C318.026 110.86 331.126 117.96 344.426 111.66C357.626 105.36 362.126 91.9598 365.126 83.5598C367.426 77.1598 369.626 69.1598 373.526 62.9598C373.626 62.8598 373.626 62.8598 373.626 62.9598Z" fill="#86B133"/>
</g>
<path d="M267.725 90.0598C267.725 90.0598 274.025 101.26 261.125 107.46C248.225 113.66 233.325 107.66 222.625 87.0598C211.925 66.4598 209.525 57.6598 209.525 57.6598C209.525 57.6598 241.325 43.5598 261.125 58.1598C280.925 72.7598 280.325 90.6598 267.725 90.0598Z" fill="#86B133"/>
<path d="M251.226 110.46C240.126 110.46 229.826 102.26 222.126 87.3598C211.526 66.9598 209.126 58.2598 209.026 57.8598C208.926 57.5598 209.126 57.2598 209.426 57.0598C209.526 56.9598 223.526 50.8598 238.526 50.8598C247.826 50.8598 255.526 53.1598 261.626 57.6598C275.026 67.5598 278.926 78.8598 276.826 85.0598C275.726 88.5598 272.726 90.5598 268.826 90.7598C269.526 92.4598 270.726 96.0598 269.526 99.8598C268.426 103.26 265.726 106.06 261.526 108.06C258.126 109.66 254.626 110.46 251.226 110.46ZM210.426 58.0598C211.126 60.2598 214.226 69.2598 223.226 86.7598C230.726 101.16 240.626 109.16 251.226 109.16C254.426 109.16 257.726 108.36 260.826 106.86C264.726 104.96 267.226 102.46 268.126 99.4598C269.526 94.8598 267.126 90.4598 267.126 90.4598C267.026 90.2598 267.026 89.9598 267.126 89.8598C267.226 89.6598 267.426 89.5598 267.726 89.5598C271.626 89.7598 274.426 88.0598 275.526 84.7598C277.426 78.9598 273.626 68.3598 260.726 58.7598C254.926 54.4598 247.426 52.2598 238.426 52.2598C225.326 52.1598 213.026 56.9598 210.426 58.0598Z" fill="#528C45"/>
<g opacity="0.5">
<path opacity="0.5" d="M274.227 72.6598C274.827 74.3598 275.227 76.1598 275.127 77.9598C275.027 78.8598 274.727 81.2598 273.527 81.4598C272.827 81.5598 272.027 81.1598 271.427 80.8598C270.527 80.3598 269.627 79.9598 268.927 79.3598C264.927 76.2598 262.427 71.6598 259.827 67.4598C258.627 65.5598 257.727 63.5598 256.527 61.7598C256.027 61.0598 255.127 59.4598 254.027 59.4598C252.127 59.5598 252.627 62.0598 252.827 63.2598C253.027 64.3598 253.527 66.6598 251.927 67.0598C250.827 67.3598 249.927 66.1598 249.327 65.4598C246.827 62.2598 245.427 58.3598 243.227 54.9598C243.027 54.5598 242.727 54.1598 242.427 53.8598C242.227 53.5598 242.027 53.1598 242.127 53.7598C242.327 55.1598 243.027 56.3598 243.727 57.4598C244.927 59.5598 246.427 61.7598 245.827 64.2598C245.827 64.2598 245.727 64.4598 245.727 64.3598C244.327 63.8598 243.227 62.9598 242.027 62.0598C240.527 60.9598 239.127 60.0598 237.427 59.2598C234.227 57.7598 230.727 56.5598 227.127 56.1598C221.327 55.4598 215.427 56.2598 209.727 57.4598C209.827 57.7598 212.327 66.5598 222.827 86.8598C233.527 107.46 248.327 113.46 261.327 107.26C274.227 101.06 267.927 89.8598 267.927 89.8598C276.227 90.4598 279.227 82.4598 274.227 72.6598Z" fill="#86B133"/>
</g>
<g opacity="0.5">
<path opacity="0.5" d="M272.027 89.4598C270.527 88.7598 269.127 87.7598 267.827 86.7598C264.727 84.3598 262.027 81.4598 259.327 78.6598C250.427 69.4598 237.827 62.7598 224.727 63.4598C222.827 63.5598 220.927 63.7598 219.127 64.2598C218.327 64.4598 217.527 64.6598 216.727 64.9598C217.027 64.8598 218.127 64.9598 218.727 64.9598C222.027 65.0598 225.227 65.6598 228.327 66.5598C234.927 68.4598 240.927 71.8598 246.027 76.5598C246.127 76.6598 245.927 76.6598 245.827 76.6598C244.327 75.6598 242.527 75.0598 240.727 74.7598C237.727 74.2598 234.527 74.4598 231.527 75.2598C230.127 75.6598 228.627 76.1598 227.327 76.9598C227.027 77.1598 226.827 77.2598 226.527 77.4598C226.327 77.7598 226.127 77.8598 225.827 77.7598C225.927 77.7598 225.927 77.7598 226.027 77.7598C226.327 77.7598 226.627 77.6598 226.927 77.6598C231.027 77.2598 235.227 77.0598 239.427 77.2598C243.927 77.4598 248.627 77.8598 252.927 79.2598C256.027 80.2598 259.427 81.9598 260.427 85.2598V85.3598C256.527 86.8598 252.427 85.8598 248.327 86.1598C246.027 86.3598 243.727 86.9598 242.027 88.6598C241.727 88.9598 241.127 89.3598 241.827 89.3598C242.127 89.3598 242.327 89.3598 242.627 89.3598C243.427 89.3598 244.127 89.2598 244.927 89.1598C248.227 88.7598 251.527 87.9598 254.827 87.7598C257.627 87.5598 260.727 87.5598 263.227 89.0598C266.027 90.7598 268.027 94.9598 266.727 98.2598C265.427 101.26 261.927 102.56 258.927 103.06C255.227 103.76 251.427 103.76 247.727 103.16C243.527 102.46 239.527 100.46 236.527 97.4598C232.527 93.5598 230.327 88.5598 227.827 83.5598C225.127 78.0598 221.927 72.6598 217.927 67.8598C215.827 65.2598 213.327 62.8598 210.727 60.8598C212.227 64.9598 215.627 73.4598 222.827 87.2598C233.527 107.86 248.327 113.86 261.327 107.66C274.227 101.46 267.927 90.2598 267.927 90.2598C269.327 90.1598 270.827 89.9598 272.027 89.4598Z" fill="#86B133"/>
</g>
<path d="M295.227 48.8598C295.227 48.8598 288.927 37.6598 303.627 25.0598C313.327 17.8598 325.727 14.8598 325.727 14.8598C325.727 14.8598 326.427 26.6598 322.627 36.9598C317.527 50.9598 300.127 60.2598 295.227 48.8598Z" fill="#C0D23F"/>
<path d="M302.726 54.5598C298.926 54.5598 296.126 52.6598 294.626 49.0598C294.626 48.9598 288.226 37.2598 303.226 24.5598C313.026 17.2598 325.526 14.2598 325.626 14.2598C325.826 14.1598 326.026 14.2598 326.126 14.3598C326.326 14.4598 326.326 14.6598 326.426 14.8598C326.426 14.9598 327.126 26.9598 323.326 37.2598C319.726 46.6598 310.326 54.5598 302.726 54.5598ZM325.126 15.7598C322.326 16.5598 312.126 19.5598 303.926 25.6598C289.826 37.6598 295.426 48.1598 295.726 48.5598C297.026 51.6598 299.426 53.3598 302.726 53.3598C309.926 53.3598 318.726 45.8598 322.126 36.8598C325.226 28.2598 325.226 18.5598 325.126 15.7598Z" fill="#84A42E"/>
<g opacity="0.4">
<path opacity="0.4" d="M325.525 14.9598C324.825 16.1598 324.025 17.3598 322.925 18.2598C321.025 19.8598 318.925 21.1598 317.025 22.6598C315.125 24.0598 313.225 25.4598 311.125 26.4598C311.025 26.4598 310.925 26.3598 310.925 26.3598C310.925 26.1598 310.825 24.2598 310.725 24.2598C310.125 24.4598 309.625 24.6598 309.225 25.0598C308.225 25.9598 307.625 27.0598 306.925 28.2598C306.025 29.9598 305.125 31.9598 303.825 33.4598C303.425 33.9598 302.525 34.8598 301.825 34.5598C301.425 34.3598 301.125 34.0598 301.125 33.5598C301.125 32.6598 301.425 31.7598 301.725 30.9598C301.925 30.4598 302.125 29.9598 302.125 29.5598C302.125 29.7598 301.025 30.3598 300.825 30.5598C299.225 32.4598 299.225 35.1598 298.625 37.4598C298.225 38.9598 297.025 41.6598 295.025 41.3598C294.625 41.2598 294.325 41.1598 294.125 40.9598C293.625 45.8598 295.325 49.0598 295.325 49.0598C300.225 60.4598 317.625 51.1598 322.825 37.2598C326.625 26.9598 325.925 15.1598 325.925 15.1598C325.925 15.1598 325.625 14.9598 325.525 14.9598Z" fill="#98C22E"/>
</g>
<g opacity="0.4">
<path opacity="0.4" d="M325.526 14.9598C325.426 15.2598 325.326 15.5598 325.326 15.7598C324.726 18.7598 325.026 21.9598 324.526 24.9598C324.026 27.6598 323.526 30.3598 322.726 33.0598C321.626 36.8598 319.626 40.6598 317.126 43.6598C314.926 46.2598 311.926 48.5598 308.326 47.8598L308.226 47.7598C308.226 47.4598 308.226 47.1598 308.326 46.8598C308.826 45.4598 310.326 44.6598 311.526 44.0598C313.326 43.1598 315.226 42.5598 317.026 41.7598C317.626 41.4598 318.526 41.1598 318.926 40.5598C319.526 39.6598 318.126 39.4598 317.626 39.5598C315.726 39.7598 313.926 40.7598 312.126 41.4598C310.626 42.0598 305.626 44.5598 305.726 41.0598C305.826 38.1598 309.926 36.2598 312.026 35.0598C313.926 34.0598 315.826 33.1598 317.726 32.1598C319.126 31.4598 320.726 30.7598 322.026 29.7598C322.226 29.5598 322.426 29.4598 322.626 29.1598C322.526 29.2598 321.926 29.1598 321.726 29.2598C320.726 29.3598 319.726 29.6598 318.726 29.7598C317.426 29.9598 315.426 30.0598 315.426 28.2598C315.426 27.0598 317.326 25.8598 318.126 25.2598C319.926 23.8598 321.926 22.6598 323.626 21.1598C323.926 20.8598 324.326 20.4598 324.626 20.0598C324.426 20.4598 323.026 20.6598 322.626 20.8598C321.026 21.5598 319.526 22.4598 318.026 23.4598C315.226 25.3598 312.626 27.6598 309.826 29.5598C309.726 29.5598 309.726 29.5598 309.726 29.4598C309.726 28.7598 309.526 28.1598 309.426 27.4598C309.326 26.8598 309.526 26.9598 309.126 27.4598C308.426 28.5598 307.726 29.7598 307.026 30.9598C305.926 32.9598 304.826 35.2598 302.926 36.6598C302.326 37.0598 300.926 37.9598 300.326 37.1598C300.226 36.9598 300.226 36.8598 300.126 36.6598C299.526 39.3598 298.626 42.1598 296.126 43.6598C295.426 44.0598 294.626 44.3598 293.926 44.2598C294.226 47.1598 295.226 48.9598 295.226 48.9598C300.126 60.3598 317.526 51.0598 322.726 37.1598C326.526 26.8598 325.826 15.0598 325.826 15.0598C325.826 15.0598 325.626 14.9598 325.526 14.9598Z" fill="#98C22E"/>
</g>
<path d="M322.825 155.26C318.725 162.76 318.225 170.66 319.025 179.06C319.125 179.66 319.925 178.86 319.925 178.46C319.425 169.96 319.925 163.16 323.225 155.36C323.425 154.96 323.025 154.96 322.825 155.26Z" fill="#528C45"/>
<path d="M339.326 151.46C336.226 155.86 335.526 161.56 335.326 166.76C335.326 167.56 336.226 166.76 336.226 166.36C336.726 161.26 336.926 156.16 339.626 151.66C339.826 151.36 339.526 151.26 339.326 151.46Z" fill="#528C45"/>
<path d="M355.725 150.66C354.225 152.36 353.025 154.16 352.225 156.26C352.025 156.76 352.725 156.56 352.825 156.26C353.725 154.46 354.725 152.76 356.025 151.16C356.325 150.76 356.125 150.16 355.725 150.66Z" fill="#528C45"/>
<path d="M344.726 187.46C337.626 186.96 331.626 182.76 325.226 180.06C325.026 179.96 324.626 180.46 324.826 180.66C330.026 184.46 338.026 187.86 344.426 188.16C344.726 188.06 345.026 187.46 344.726 187.46Z" fill="#528C45"/>
<path d="M367.925 167.56C359.925 169.66 351.025 168.36 343.225 166.16C342.925 166.06 342.425 166.86 342.825 166.96C350.725 169.16 359.825 170.46 367.825 168.06C367.925 168.06 368.225 167.46 367.925 167.56Z" fill="#528C45"/>
<path d="M374.326 155.66C369.226 156.46 363.526 155.26 358.526 153.76C358.226 153.66 357.726 154.46 358.026 154.56C362.526 156.76 369.226 157.56 374.126 156.26C374.326 156.26 374.626 155.66 374.326 155.66Z" fill="#528C45"/>
<path d="M248.626 170.36C248.426 170.16 248.026 170.66 248.226 170.76C251.326 174.86 252.926 179.46 255.226 183.96C255.326 184.26 255.826 183.66 255.726 183.46C254.526 178.76 251.626 174.16 248.626 170.36Z" fill="#528C45"/>
<path d="M265.926 177.46C265.826 177.36 265.626 177.66 265.726 177.76C268.526 181.76 269.726 187.36 270.926 192.06C271.026 192.46 271.526 191.86 271.526 191.66C270.826 186.86 269.026 180.96 265.926 177.46Z" fill="#528C45"/>
<path d="M244.926 181.96C238.926 179.86 232.226 180.06 225.926 180.06C225.826 180.06 225.626 180.36 225.726 180.46C232.026 180.96 238.326 181.46 244.526 182.86C244.926 182.86 245.326 182.16 244.926 181.96Z" fill="#528C45"/>
<path d="M266.026 191.76C262.226 189.06 256.526 189.46 252.026 189.26C247.326 188.96 242.426 189.36 238.026 191.06C237.826 191.16 237.626 191.66 237.926 191.56C246.126 189.46 257.526 189.26 265.526 192.46C265.826 192.56 266.326 191.96 266.026 191.76Z" fill="#528C45"/>
<path d="M274.427 197.76C268.427 198.86 261.027 200.76 257.627 206.46C257.527 206.66 257.727 206.66 257.827 206.56C259.627 203.86 262.227 202.66 265.127 201.26C268.127 199.76 271.227 199.56 274.227 198.56C274.527 198.36 274.927 197.66 274.427 197.76Z" fill="#528C45"/>
<path d="M323.826 65.9598C322.326 69.0598 320.526 71.6598 319.426 74.9598C318.326 78.3598 317.826 81.9598 317.826 85.5598C317.826 86.3598 318.726 85.5598 318.826 85.0598C319.126 81.5598 319.526 78.1598 320.426 74.7598C321.326 71.5598 323.126 68.9598 324.326 65.8598C324.426 65.5598 323.926 65.7598 323.826 65.9598Z" fill="#528C45"/>
<path d="M339.927 61.6598C336.627 64.7598 334.427 68.8598 333.927 73.4598C333.827 74.1598 334.627 73.4598 334.727 73.0598C335.627 68.9598 337.227 65.1598 340.227 62.1598C340.427 61.7598 340.327 61.2598 339.927 61.6598Z" fill="#528C45"/>
<path d="M359.526 59.8598C356.626 61.0598 353.926 62.8598 351.826 65.2598C351.426 65.6598 351.626 66.4598 352.126 65.8598C354.326 63.7598 356.726 61.8598 359.426 60.3598C359.726 60.2598 359.926 59.6598 359.526 59.8598Z" fill="#528C45"/>
<path d="M353.325 79.2598C346.225 80.4598 338.925 79.5598 332.025 78.0598C331.625 77.9598 330.925 78.9598 331.425 79.1598C337.925 81.2598 346.725 81.8598 353.225 79.5598C353.325 79.5598 353.425 79.2598 353.325 79.2598Z" fill="#528C45"/>
<path d="M335.926 91.8598C329.926 92.8598 324.526 90.8598 318.726 89.5598C318.526 89.4598 318.126 90.0598 318.326 90.1598C323.826 92.4598 329.826 93.8598 335.726 92.3598C335.926 92.2598 336.226 91.7598 335.926 91.8598Z" fill="#528C45"/>
<path d="M241.525 53.5598C241.425 53.4598 241.125 53.7598 241.225 53.8598C243.925 58.4598 245.125 63.4598 246.825 68.4598C246.925 68.6598 247.325 68.2598 247.225 68.0598C246.125 63.0598 244.325 57.9598 241.525 53.5598Z" fill="#528C45"/>
<path d="M259.625 67.4598C258.825 64.8598 257.325 62.4598 256.425 59.7598C256.325 59.5598 256.125 59.8598 256.125 59.9598C256.625 61.8598 257.625 63.7598 258.325 65.5598C259.625 68.8598 260.225 72.3598 260.825 75.8598C260.925 76.1598 261.325 75.7598 261.325 75.4598C261.225 72.7598 260.425 70.1598 259.625 67.4598Z" fill="#528C45"/>
<path d="M235.025 66.8598C230.225 65.9598 225.125 65.9598 220.225 66.3598C220.025 66.3598 219.725 66.8598 220.025 66.8598C224.925 67.0598 229.725 67.1598 234.625 67.6598C234.925 67.6598 235.425 66.9598 235.025 66.8598Z" fill="#528C45"/>
<path d="M255.225 78.1598C251.125 77.3598 246.925 77.2598 242.725 76.9598C238.325 76.6598 234.125 75.9598 229.725 76.5598C229.625 76.5598 229.525 76.7598 229.625 76.7598C233.925 76.4598 238.025 77.3598 242.225 77.8598C246.425 78.3598 250.625 78.5598 254.725 79.0598C255.125 79.0598 255.625 78.2598 255.225 78.1598Z" fill="#528C45"/>
<path d="M263.725 87.6598C258.025 85.9598 252.225 86.3598 246.525 87.6598C246.325 87.6598 246.125 88.1598 246.325 88.1598C252.025 87.2598 257.625 87.1598 263.325 88.4598C263.625 88.4598 264.025 87.7598 263.725 87.6598Z" fill="#528C45"/>
<g opacity="0.5">
<g opacity="0.5">
<path opacity="0.5" d="M316.527 40.1598C311.727 41.8598 306.427 44.0598 302.327 47.0598C302.127 47.1598 301.927 47.9598 302.327 47.7598C306.927 45.0598 311.727 42.8598 316.527 40.3598C316.527 40.2598 316.627 40.0598 316.527 40.1598Z" fill="#84A42E"/>
</g>
<g opacity="0.5">
<path opacity="0.5" d="M317.326 31.0598C315.726 31.0598 313.926 31.7598 312.326 32.1598C310.726 32.5598 309.226 33.2598 307.926 34.3598C307.826 34.4598 307.726 34.8598 308.026 34.7598C309.426 34.0598 310.726 33.3598 312.226 32.7598C313.826 32.1598 315.726 31.9598 317.326 31.1598C317.326 31.1598 317.426 31.0598 317.326 31.0598Z" fill="#84A42E"/>
</g>
<g opacity="0.5">
<path opacity="0.5" d="M309.327 25.5598C309.127 27.5598 308.527 29.6598 307.527 31.4598C307.427 31.7598 307.627 31.7598 307.827 31.5598C309.127 29.7598 309.727 27.5598 309.627 25.4598C309.627 25.2598 309.327 25.4598 309.327 25.5598Z" fill="#84A42E"/>
</g>
<g opacity="0.5">
<path opacity="0.5" d="M300.127 35.3598C300.327 33.6598 300.627 32.0598 300.627 30.3598C300.627 29.9598 300.227 30.3598 300.227 30.5598C299.627 33.8598 298.527 37.6598 299.527 40.9598C299.627 41.2598 300.127 40.6598 300.127 40.4598C300.027 38.7598 299.927 37.1598 300.127 35.3598Z" fill="#84A42E"/>
</g>
</g>
<path d="M233.327 377.16C233.327 377.16 239.627 368.76 253.427 370.86C267.227 372.96 278.227 377.86 293.627 367.16C286.127 378.66 272.827 385.46 267.227 395.06C261.627 404.66 257.827 415.46 259.227 425.76C260.427 412.16 265.127 396.06 274.627 388.06C284.227 380.06 298.727 368.86 303.927 357.86C301.327 380.56 308.827 394.16 315.627 409.36C322.427 424.56 328.027 437.46 327.527 449.16C328.227 431.56 326.327 427.16 320.927 415.46C315.527 403.76 309.027 387.56 310.127 372.86C311.027 363.26 312.427 356.96 314.127 360.96C315.727 364.96 319.727 373.86 342.727 378.96C365.627 384.06 371.227 391.86 373.627 399.36C372.727 386.76 359.327 379.46 343.427 376.46C327.527 373.46 313.427 361.06 313.427 342.06C313.427 323.06 316.927 306.76 310.927 266.16C305.727 230.76 302.727 207.56 319.327 186.56C336.927 165.96 354.527 156.06 369.127 150.66C369.127 150.66 344.827 156.06 324.327 173.66C303.727 191.26 303.527 207.06 303.527 207.06C303.527 207.06 296.827 167.66 297.327 149.36C297.827 131.06 302.927 105.36 321.127 86.1598C333.227 74.3598 363.327 64.3598 363.327 64.3598C363.327 64.3598 336.427 67.1598 319.027 84.2598C301.827 101.16 294.527 124.16 294.527 124.16C294.527 124.16 294.127 83.6598 296.327 65.4598C298.527 47.2598 308.127 31.2598 321.527 20.7598C321.527 20.7598 290.227 40.2598 287.927 74.1598C285.727 108.06 286.627 114.06 286.627 114.06C286.627 114.06 271.027 64.1598 220.527 62.5598C246.627 71.1598 276.727 80.7598 287.327 139.26C297.827 197.76 302.327 243.46 302.327 243.46C302.327 243.46 295.627 186.96 232.527 178.06C232.527 178.06 284.227 185.46 297.227 240.06C303.227 268.36 306.227 299.16 304.927 323.36C303.627 347.66 299.527 363.06 278.227 368.86C265.027 372.06 260.427 369.26 253.227 368.56C246.227 368.06 236.927 370.96 233.327 377.16Z" fill="#3D742E"/>
<path d="M327.626 449.56C327.226 449.56 326.926 449.26 327.026 448.86C327.526 437.06 321.526 423.56 315.126 409.36C314.526 407.96 313.826 406.56 313.226 405.16C307.226 392.06 301.626 379.66 303.026 360.66C297.526 369.86 286.326 379.06 277.926 385.96L275.126 388.26C263.126 398.16 260.426 419.26 259.926 425.46C259.926 425.76 259.626 426.06 259.326 426.06C259.026 426.06 258.726 425.86 258.726 425.46C257.426 416.16 260.126 405.66 266.726 394.36C269.526 389.56 274.226 385.46 279.226 381.16C283.426 377.46 287.826 373.76 291.326 369.26C285.626 372.66 280.026 374.26 273.926 374.26C269.326 374.26 264.926 373.36 260.226 372.46C258.026 372.06 255.826 371.56 253.526 371.26C252.126 371.06 250.626 370.96 249.326 370.96C239.026 370.96 234.126 377.26 234.026 377.36C233.826 377.66 233.426 377.66 233.126 377.46C232.826 377.26 232.726 376.86 232.926 376.56C236.526 370.46 245.226 367.76 251.726 367.76C252.426 367.76 253.026 367.76 253.726 367.86C255.626 368.06 257.426 368.36 259.126 368.66C261.626 369.16 264.226 369.66 267.526 369.66C270.826 369.66 274.426 369.16 278.526 368.16C298.826 362.66 303.426 348.16 304.726 323.26C306.026 299.36 303.226 268.96 297.026 240.06C284.326 186.66 233.526 178.66 232.826 178.56C232.426 178.46 232.226 178.16 232.326 177.86C232.426 177.46 232.726 177.26 233.026 177.36C279.626 183.96 295.726 216.76 301.026 233.46C299.126 216.86 294.626 181.26 287.126 139.36C276.726 81.6598 247.326 71.8598 221.326 63.2598L220.826 63.0598C220.526 62.9598 220.326 62.6598 220.426 62.3598C220.526 62.0598 220.726 61.8598 221.126 61.8598C263.326 63.2598 281.426 98.2598 286.426 110.06C286.326 105.16 286.526 94.8598 287.926 74.0598C290.126 40.2598 321.426 20.3598 321.826 20.1598C322.126 19.9598 322.526 20.0598 322.726 20.3598C322.926 20.6598 322.826 21.0598 322.626 21.2598C308.826 32.0598 299.726 48.2598 297.626 65.5598C295.826 80.3598 295.726 110.26 295.826 120.56C298.526 113.46 306.026 96.6598 319.426 83.5598C336.726 66.5598 363.826 63.4598 364.026 63.4598C364.326 63.4598 364.626 63.6598 364.726 63.9598C364.826 64.2598 364.626 64.5598 364.326 64.6598C364.026 64.7598 334.326 74.7598 322.426 86.3598C302.726 107.06 299.226 134.56 298.826 149.06C298.426 163.66 302.726 192.16 304.326 202.66C305.726 196.76 310.226 185.26 324.726 172.86C345.126 155.36 369.626 149.76 369.826 149.66C370.126 149.56 370.526 149.76 370.626 150.06C370.726 150.36 370.526 150.76 370.226 150.86C351.526 157.86 335.326 169.56 320.726 186.56C304.726 206.86 307.026 228.76 312.426 265.66C316.926 295.96 316.126 312.56 315.326 327.26C315.126 332.16 314.826 336.86 314.826 341.66C314.826 361.06 329.626 372.66 344.226 375.46C355.126 377.56 373.626 383.36 374.926 398.76C374.926 398.86 375.026 398.96 375.026 399.06C375.026 399.46 374.726 399.66 374.426 399.66C374.126 399.66 373.926 399.46 373.826 399.16C371.626 392.16 366.326 384.36 343.426 379.26C319.826 373.96 316.026 364.76 314.426 360.86C314.226 360.46 314.126 360.26 314.026 360.16C313.726 360.56 312.626 362.56 311.626 372.66C310.526 386.96 316.726 402.76 322.326 414.96C327.526 426.26 329.626 430.86 328.926 448.96C328.226 449.36 327.926 449.56 327.626 449.56ZM304.026 357.06C304.126 357.06 304.126 357.06 304.226 357.06C304.526 357.16 304.726 357.46 304.726 357.76C302.426 378.16 308.226 391.06 314.526 404.76C315.126 406.16 315.826 407.56 316.426 408.96C320.826 418.76 325.026 428.26 327.126 437.16C326.526 428.46 324.526 423.86 320.626 415.56C315.026 403.26 308.626 387.26 309.826 372.66C311.126 358.96 312.626 358.96 313.426 358.96C314.226 358.96 314.726 359.86 315.026 360.56C316.526 364.26 320.126 373.06 343.126 378.16C359.926 381.96 367.626 387.16 371.426 392.56C366.426 382.66 352.426 378.46 343.626 376.86C328.426 373.96 313.126 361.96 313.126 341.86C313.126 337.06 313.326 332.36 313.626 327.46C314.326 312.86 315.126 296.36 310.726 266.06C305.726 232.16 302.126 207.76 319.326 185.96C331.026 172.36 343.626 162.06 357.826 154.96C348.926 158.36 336.526 164.36 325.226 173.96C305.126 191.16 304.626 206.76 304.626 206.96C304.626 207.26 304.326 207.56 304.026 207.56C303.726 207.56 303.426 207.36 303.326 207.06C303.226 206.66 296.626 167.36 297.126 149.26C297.526 134.56 301.126 106.66 321.126 85.6598C329.726 77.2598 346.826 69.9598 356.426 66.2598C347.226 68.3598 331.426 73.3598 319.926 84.6598C302.626 101.26 295.226 124.16 295.226 124.36C295.126 124.66 294.826 124.86 294.526 124.76C294.226 124.76 294.026 124.46 294.026 124.16C294.026 123.76 293.626 83.4598 295.826 65.3598C297.426 52.3598 302.826 40.0598 311.126 30.0598C301.926 38.8598 290.026 53.9598 288.726 74.1598C286.526 107.36 287.426 113.86 287.426 113.96C287.426 114.26 287.226 114.56 286.926 114.66C286.626 114.76 286.226 114.56 286.126 114.26C285.926 113.76 271.126 68.0598 225.526 63.5598C250.726 72.0598 278.026 83.8598 288.026 139.26C298.426 197.06 303.026 243.06 303.026 243.46C303.026 243.76 302.826 244.16 302.426 244.16C302.026 244.16 301.726 243.96 301.726 243.56C301.626 243.06 295.726 198.36 249.926 182.76C266.326 189.86 289.826 205.66 297.926 239.86C304.126 268.86 306.926 299.36 305.626 323.36C304.326 348.86 299.526 363.76 278.526 369.46C274.326 370.46 270.626 370.96 267.226 370.96C263.826 370.96 261.126 370.46 258.626 369.96C256.826 369.66 255.226 369.36 253.326 369.16C250.626 368.96 247.526 369.26 244.426 370.06C247.026 369.56 250.226 369.46 253.526 369.96C255.826 370.36 258.126 370.76 260.326 371.16C264.926 372.06 269.326 372.86 273.826 372.86C280.726 372.86 286.926 370.76 293.326 366.26C293.526 366.06 293.926 366.06 294.126 366.36C294.326 366.56 294.426 366.96 294.226 367.16C290.426 373.06 285.126 377.66 280.026 382.06C278.126 383.76 276.226 385.36 274.526 386.96L277.126 384.86C286.226 377.36 298.826 367.06 303.426 357.16C303.526 357.16 303.726 357.06 304.026 357.06ZM263.426 403.86C261.626 408.26 260.426 412.46 259.926 416.56C260.626 412.66 261.726 408.26 263.426 403.86Z" fill="#346227"/>
<g opacity="0.4">
<g opacity="0.4">
<path opacity="0.4" d="M303.726 108.96C291.926 138.96 293.826 144.76 296.026 170.66C298.226 196.56 303.226 227.06 303.626 206.86C303.626 206.86 296.926 167.46 297.426 149.16C297.926 130.86 303.026 105.16 321.226 85.9598C333.326 74.1598 363.426 64.1598 363.426 64.1598C363.426 64.1598 361.126 64.4598 357.426 65.1598C340.826 70.3598 313.826 82.6598 303.726 108.96Z" fill="#3D742E"/>
</g>
<g opacity="0.4">
<path opacity="0.4" d="M233.527 178.26C233.027 178.16 232.727 178.16 232.727 178.16C232.927 178.16 233.227 178.26 233.527 178.26Z" fill="#3D742E"/>
</g>
<g opacity="0.4">
<path opacity="0.4" d="M343.527 376.16C327.627 373.16 313.527 360.76 313.527 341.76C313.527 322.76 317.027 306.46 311.027 265.86C305.827 230.46 302.827 207.26 319.427 186.26C337.027 165.66 354.627 155.76 369.227 150.36C369.227 150.36 369.027 150.36 368.827 150.46C358.527 154.36 333.627 165.16 319.627 182.16C301.727 203.86 302.527 219.96 305.527 242.86C309.027 269.46 314.227 301.46 305.027 299.16C305.427 307.66 305.427 315.86 305.027 323.36C303.727 347.66 299.627 363.06 278.327 368.86C265.127 372.06 260.527 369.26 253.327 368.56C246.127 367.96 236.827 370.86 233.227 376.96C233.227 376.96 239.527 368.56 253.327 370.66C267.127 372.76 278.127 377.66 293.527 366.96C286.027 378.46 272.727 385.26 267.127 394.86C261.527 404.46 257.727 415.26 259.127 425.56C260.327 411.96 265.027 395.86 274.527 387.86C284.127 379.86 298.627 368.66 303.827 357.66C301.227 380.36 308.727 393.96 315.527 409.16C322.327 424.36 327.927 437.26 327.427 448.96C328.127 431.36 326.227 426.96 320.827 415.26C315.427 403.56 308.927 387.36 310.027 372.66C310.927 363.06 312.327 356.76 314.027 360.76C315.627 364.76 319.627 373.66 342.627 378.76C365.527 383.86 371.127 391.66 373.527 399.16C372.827 386.46 359.427 379.26 343.527 376.16Z" fill="#3D742E"/>
</g>
<g opacity="0.4">
<path opacity="0.4" d="M294.027 124.96C294.227 123.76 294.327 122.56 294.527 121.36C294.527 111.86 294.527 80.8598 296.327 65.4598C298.527 47.2598 308.127 31.2598 321.527 20.7598C321.527 20.7598 311.127 27.2598 301.827 39.2598C296.927 48.9598 291.227 64.2598 291.227 82.8598C291.427 115.86 292.327 138.46 294.027 124.96Z" fill="#3D742E"/>
</g>
</g>
<path d="M265.725 398.26C265.725 398.26 262.025 401.26 256.925 404.96C251.825 408.66 243.325 416.76 240.025 428.56C243.025 416.76 243.625 414.36 250.525 408.36C257.425 402.36 267.625 393.76 267.625 393.76L265.725 398.26Z" fill="#EBD9B3"/>
<path d="M240.026 429.16C239.926 429.16 239.926 429.16 239.826 429.16C239.526 429.06 239.326 428.76 239.326 428.36C242.326 416.46 242.926 414.06 250.026 407.76C256.826 401.76 267.126 393.26 267.226 393.16C267.426 392.96 267.826 392.96 268.026 393.16C268.226 393.36 268.326 393.66 268.226 393.96L266.226 398.56C266.226 398.66 266.126 398.76 266.026 398.76C266.026 398.76 262.226 401.76 257.226 405.46C254.226 407.66 244.226 415.76 240.526 428.66C240.626 428.96 240.326 429.16 240.026 429.16ZM266.026 395.96C262.726 398.76 255.926 404.46 250.926 408.76C246.426 412.66 244.626 414.96 243.126 419.46C247.726 411.26 254.226 406.06 256.526 404.36C261.026 401.06 264.426 398.36 265.126 397.86L266.026 395.96Z" fill="#BD7A43"/>
<path d="M249.225 409.26C249.225 409.26 234.425 414.56 225.025 428.16C225.925 422.16 232.825 416.16 238.025 413.56C243.125 410.96 249.225 409.26 249.225 409.26Z" fill="#EBD9B3"/>
<path d="M225.026 428.76C224.926 428.76 224.826 428.76 224.826 428.76C224.526 428.66 224.426 428.36 224.426 428.06C225.326 421.46 232.926 415.46 237.726 413.06C242.926 410.46 249.026 408.76 249.026 408.66C249.326 408.56 249.726 408.76 249.826 409.06C249.926 409.36 249.726 409.76 249.426 409.86C249.326 409.96 234.726 415.26 225.526 428.46C225.426 428.66 225.226 428.76 225.026 428.76ZM239.726 413.46C239.226 413.66 238.726 413.96 238.226 414.16C233.926 416.36 229.126 420.36 226.926 424.56C231.026 419.66 235.726 415.96 239.726 413.46Z" fill="#BD7A43"/>
<path d="M235.526 414.96C235.526 414.96 222.226 415.96 213.426 421.76C217.326 415.46 229.926 413.06 235.526 414.96Z" fill="#EBD9B3"/>
<path d="M213.425 422.36C213.225 422.36 213.125 422.26 213.025 422.16C212.825 421.96 212.725 421.66 212.925 421.36C216.125 416.26 224.425 413.66 231.025 413.66C232.825 413.66 234.525 413.86 235.825 414.26C236.125 414.36 236.325 414.66 236.225 414.96C236.225 415.26 235.925 415.46 235.625 415.56C235.525 415.56 222.325 416.56 213.825 422.26C213.625 422.36 213.525 422.36 213.425 422.36ZM230.425 414.96C225.925 415.06 220.625 416.46 217.025 418.96C221.625 416.86 226.725 415.56 230.425 414.96Z" fill="#BD7A43"/>
<path d="M290.624 374.56C290.624 374.56 285.324 383.96 290.224 398.46C295.124 412.96 303.824 422.36 300.424 436.86C300.424 426.46 297.024 418.56 292.924 411.26C288.924 404.06 288.424 401.06 288.424 401.06C288.424 401.06 283.724 411.06 282.224 420.06C281.624 412.56 285.424 403.66 285.424 403.66C285.424 403.66 270.124 421.76 266.924 434.56C265.024 427.76 274.124 412.66 284.824 401.96C288.124 398.46 283.224 379.46 290.624 374.56Z" fill="#EBD9B3"/>
<path d="M300.425 437.46C300.025 437.46 299.825 437.16 299.825 436.86C299.825 426.26 296.325 418.46 292.425 411.56C290.025 407.36 288.925 404.56 288.325 402.96C286.925 406.16 284.025 413.46 282.925 420.16C282.825 420.46 282.525 420.66 282.225 420.66C281.925 420.66 281.625 420.36 281.625 420.06C281.225 415.46 282.525 410.36 283.525 406.96C279.125 412.66 269.925 425.16 267.525 434.66C267.425 434.96 267.225 435.16 266.925 435.16C266.625 435.16 266.425 434.96 266.325 434.66C264.225 427.36 274.125 411.76 284.425 401.46C285.525 400.36 285.525 396.46 285.525 392.36C285.525 385.66 285.525 377.26 290.325 374.06C290.525 373.86 290.925 373.96 291.125 374.16C291.325 374.36 291.425 374.66 291.225 374.96C291.125 375.06 286.125 384.26 290.825 398.26C292.325 402.56 294.025 406.46 295.825 410.16C299.925 418.96 303.525 426.66 301.125 436.96C301.025 437.26 300.725 437.46 300.425 437.46ZM288.725 377.86C286.825 381.56 286.825 387.46 286.825 392.36C286.825 397.06 286.825 400.76 285.425 402.26C276.025 411.66 268.725 423.46 267.625 430.56C272.325 418.36 284.525 403.76 285.125 403.06C285.325 402.86 285.625 402.76 285.925 402.96C286.225 403.16 286.325 403.46 286.125 403.76C286.125 403.86 284.525 407.56 283.625 412.16C285.525 405.96 287.925 400.76 288.025 400.66C288.125 400.36 288.425 400.26 288.725 400.26C289.025 400.26 289.225 400.56 289.225 400.76C289.225 400.76 289.725 403.76 293.625 410.76C296.625 416.16 299.525 422.26 300.625 429.76C300.525 422.96 297.725 417.06 294.725 410.56C293.025 406.86 291.125 402.96 289.725 398.56C286.425 389.16 287.525 381.86 288.725 377.86Z" fill="#BD7A43"/>
<path d="M296.325 417.86C296.325 417.86 287.125 427.86 287.725 445.86C285.025 436.86 288.525 422.56 294.825 414.86L296.325 417.86Z" fill="#EBD9B3"/>
<path d="M287.726 446.46C287.426 446.46 287.226 446.26 287.126 445.96C284.426 436.96 287.826 422.46 294.426 414.36C294.526 414.16 294.726 414.06 295.026 414.16C295.226 414.16 295.426 414.36 295.526 414.56L296.926 417.66C297.026 417.86 297.026 418.16 296.826 418.36C296.726 418.46 287.926 428.36 288.426 445.66C288.426 445.76 288.426 445.76 288.426 445.86C288.426 446.16 288.126 446.46 287.726 446.46ZM294.726 416.06C290.626 421.56 287.926 429.96 287.526 437.26C289.126 425.96 294.226 419.26 295.526 417.76L294.726 416.06Z" fill="#BD7A43"/>
<path d="M314.426 406.66C314.426 406.66 307.626 426.56 311.726 442.76C307.026 430.66 308.926 414.26 312.326 402.26C314.326 405.46 314.426 406.66 314.426 406.66Z" fill="#EBD9B3"/>
<path d="M311.726 443.36C311.426 443.36 311.226 443.16 311.126 442.96C305.226 427.66 310.126 407.76 311.726 402.06C311.826 401.86 312.026 401.66 312.226 401.56C312.526 401.56 312.726 401.66 312.826 401.86C314.726 405.06 315.026 406.36 315.026 406.46C315.026 406.56 315.026 406.66 315.026 406.76C314.926 406.96 308.426 426.56 312.226 442.36C312.326 442.46 312.326 442.56 312.326 442.66C312.426 443.06 312.126 443.46 311.726 443.36ZM312.626 403.96C311.226 409.16 308.826 420.26 309.826 431.26C309.826 419.26 313.326 408.16 313.826 406.66C313.726 406.36 313.426 405.46 312.626 403.96Z" fill="#BD7A43"/>
<path d="M325.725 427.16C325.725 427.16 334.525 435.66 337.825 452.96C337.125 440.56 333.925 430.76 324.625 422.76C325.825 425.96 325.725 427.16 325.725 427.16Z" fill="#EBD9B3"/>
<path d="M337.726 453.56C337.426 453.56 337.126 453.36 337.126 453.06C333.926 436.16 325.326 427.76 325.226 427.66C325.126 427.56 325.026 427.36 325.026 427.06C325.026 427.06 325.126 425.96 323.926 422.96C323.826 422.66 323.926 422.36 324.126 422.16C324.326 421.96 324.726 421.96 324.926 422.16C333.626 429.66 337.626 438.76 338.326 452.76C338.426 453.16 338.126 453.46 337.726 453.56C337.826 453.56 337.826 453.56 337.726 453.56ZM326.326 426.86C327.426 427.96 332.426 433.56 336.026 443.76C334.426 435.96 331.226 429.96 326.026 424.86C326.226 425.86 326.326 426.56 326.326 426.86Z" fill="#BD7A43"/>
<path d="M268.624 373.36C268.624 373.36 267.324 372.96 262.724 379.46C258.124 385.96 250.024 394.66 243.424 394.66C253.024 388.46 257.124 384.06 259.824 378.66C262.524 373.26 265.224 371.86 265.224 371.86L268.624 373.36Z" fill="#EBD9B3"/>
<path d="M243.425 395.36C243.125 395.36 242.925 395.16 242.825 394.86C242.725 394.56 242.825 394.26 243.125 394.16C252.125 388.26 256.525 383.96 259.325 378.36C262.125 372.86 264.925 371.26 265.025 371.26C265.225 371.16 265.425 371.16 265.625 371.26L268.925 372.76C269.225 372.86 269.425 373.06 269.425 373.36C269.425 373.76 269.025 373.96 268.725 373.96C268.725 373.96 268.625 373.96 268.525 373.96C268.625 373.96 267.225 374.26 263.325 379.86C261.425 382.46 251.925 395.36 243.425 395.36ZM265.325 372.56C264.625 373.06 262.525 374.76 260.425 378.96C257.825 384.26 253.825 388.36 246.325 393.56C251.825 391.66 258.125 384.96 262.225 379.16C264.225 376.36 265.925 374.36 267.125 373.46L265.325 372.56Z" fill="#BD7A43"/>
<path d="M257.726 385.86C257.726 385.86 254.826 396.46 249.426 400.86C255.226 398.06 258.826 389.96 259.826 383.06C258.726 384.76 257.726 385.86 257.726 385.86Z" fill="#EBD9B3"/>
<path d="M249.425 401.46C249.225 401.46 249.025 401.36 248.925 401.16C248.725 400.86 248.825 400.56 249.025 400.36C254.125 396.16 257.025 385.76 257.025 385.66C257.025 385.56 257.125 385.46 257.225 385.36C257.225 385.36 258.225 384.36 259.225 382.66C259.425 382.36 259.725 382.26 260.025 382.36C260.325 382.46 260.525 382.76 260.425 383.06C259.525 390.06 255.825 398.36 249.725 401.36C249.625 401.46 249.525 401.46 249.425 401.46ZM258.225 386.16C257.925 387.06 256.625 391.66 254.225 395.76C256.325 392.86 257.825 389.26 258.625 385.66C258.525 385.96 258.325 386.06 258.225 386.16Z" fill="#BD7A43"/>
<path d="M245.425 370.56C245.425 370.56 242.225 383.46 231.725 388.66C221.225 393.76 219.125 399.36 219.125 399.36C219.125 399.36 225.225 393.56 230.025 391.36C234.825 389.16 243.425 385.96 247.625 370.46L245.425 370.56Z" fill="#EBD9B3"/>
<path d="M219.025 399.96C218.925 399.96 218.825 399.96 218.625 399.86C218.325 399.66 218.225 399.36 218.325 399.06C218.425 398.86 220.625 393.16 231.225 387.96C241.325 383.06 244.625 370.46 244.625 370.36C244.725 370.06 244.925 369.86 245.225 369.86L247.325 369.66C247.525 369.66 247.725 369.76 247.825 369.86C247.925 370.06 248.025 370.26 247.925 370.46C243.925 385.46 235.725 389.16 230.825 391.46L230.025 391.86C225.425 394.06 219.425 399.66 219.325 399.76C219.425 399.96 219.225 399.96 219.025 399.96ZM245.925 371.16C245.225 373.56 241.625 384.46 231.925 389.16C228.125 390.96 225.425 392.96 223.525 394.56C225.425 393.06 227.625 391.66 229.625 390.66L230.425 390.26C235.025 388.16 242.725 384.66 246.625 370.96L245.925 371.16Z" fill="#BD7A43"/>
<path d="M237.725 386.36C237.725 386.36 238.225 391.96 233.525 396.86C228.725 402.26 228.725 404.66 228.725 404.66C228.725 404.66 239.125 396.56 239.925 384.56L237.725 386.36Z" fill="#EBD9B3"/>
<path d="M228.825 405.36C228.725 405.36 228.625 405.36 228.525 405.26C228.325 405.16 228.125 404.96 228.125 404.66C228.125 404.36 228.225 401.86 233.125 396.36C237.525 391.66 237.125 386.36 237.125 386.26C237.125 386.06 237.225 385.86 237.325 385.66L239.525 383.86C239.725 383.66 240.025 383.66 240.225 383.76C240.425 383.86 240.625 384.16 240.525 384.36C239.725 396.46 229.525 404.56 229.125 404.96C229.125 405.36 228.925 405.36 228.825 405.36ZM238.425 386.66C238.425 387.96 238.225 392.86 234.125 397.36C232.125 399.56 231.025 401.36 230.325 402.56C233.125 399.76 238.125 393.76 239.225 386.06L238.425 386.66Z" fill="#BD7A43"/>
<path d="M244.426 370.46C244.426 370.46 231.326 365.16 221.426 369.86C227.226 365.66 239.126 366.16 246.626 369.66L244.426 370.46Z" fill="#EBD9B3"/>
<path d="M244.426 371.06C244.326 371.06 244.226 371.06 244.226 371.06C244.126 371.06 237.926 368.56 230.926 368.56C227.426 368.56 224.326 369.16 221.726 370.36C221.426 370.46 221.026 370.36 220.926 370.06C220.726 369.76 220.826 369.36 221.126 369.26C223.826 367.26 228.126 366.16 233.226 366.16C238.126 366.16 243.226 367.16 247.026 369.06C247.226 369.16 247.426 369.36 247.426 369.66C247.426 369.96 247.226 370.16 247.026 370.26L244.826 371.06C244.626 371.06 244.526 371.06 244.426 371.06ZM235.526 367.56C240.026 368.16 243.526 369.36 244.426 369.76L244.926 369.56C242.126 368.46 238.926 367.76 235.526 367.56Z" fill="#BD7A43"/>
<path d="M311.925 389.96C311.925 389.96 314.725 394.26 322.425 399.96C330.125 405.66 339.225 409.26 343.725 422.16C341.225 410.66 335.725 407.36 328.825 402.76C321.925 398.06 312.425 391.36 311.025 385.76C311.725 389.36 311.925 389.96 311.925 389.96Z" fill="#EBD9B3"/>
<path d="M343.726 422.86C343.426 422.86 343.226 422.66 343.126 422.46C339.526 412.26 333.026 407.96 326.626 403.76C325.126 402.76 323.526 401.66 322.026 400.56C314.326 394.86 311.526 390.56 311.426 390.46C311.326 390.26 311.026 389.56 310.426 385.96C310.326 385.66 310.626 385.26 310.926 385.26C311.226 385.16 311.626 385.36 311.726 385.76C313.126 391.56 324.026 398.86 329.226 402.46L329.926 402.96C336.626 407.46 341.826 410.96 344.326 422.26C344.426 422.56 344.226 422.96 343.826 423.06C343.926 422.86 343.826 422.86 343.726 422.86ZM317.726 395.36C319.126 396.56 320.726 397.96 322.726 399.46C324.226 400.56 325.826 401.56 327.326 402.56C331.326 405.26 335.526 407.96 338.926 412.16C336.326 408.46 333.026 406.26 329.226 403.66L328.526 403.16C324.626 400.66 320.826 397.96 317.726 395.36Z" fill="#BD7A43"/>
<path d="M319.225 396.46C319.225 396.46 330.425 396.06 337.125 399.06C332.725 395.96 327.025 393.86 317.725 394.36C318.725 395.46 318.925 396.26 319.225 396.46Z" fill="#EBD9B3"/>
<path d="M337.225 399.76C337.125 399.76 337.025 399.76 336.925 399.66C331.725 397.26 323.725 397.06 320.525 397.06C319.825 397.06 319.325 397.06 319.325 397.06C319.225 397.06 319.125 397.06 319.125 397.06C318.725 396.96 318.525 396.56 318.325 396.16C318.125 395.76 317.825 395.36 317.425 394.86C317.225 394.66 317.225 394.46 317.325 394.16C317.425 393.96 317.625 393.76 317.925 393.76C318.925 393.66 319.825 393.66 320.725 393.66C327.625 393.66 333.025 395.16 337.625 398.46C337.825 398.56 338.025 398.76 338.025 399.06C337.825 399.46 337.625 399.76 337.225 399.76ZM320.525 395.76C322.725 395.76 327.125 395.86 331.525 396.66C328.025 395.36 324.025 394.76 319.125 394.96C319.225 395.16 319.325 395.36 319.425 395.46C319.425 395.56 319.525 395.66 319.525 395.76C319.725 395.76 320.025 395.76 320.525 395.76Z" fill="#BD7A43"/>
<path d="M327.725 373.86C327.725 373.86 341.125 384.96 346.025 393.16C351.025 401.36 363.425 412.96 369.325 412.46C361.125 407.46 354.425 401.76 351.025 395.56C347.525 389.36 342.225 380.56 337.125 377.06L327.725 373.86Z" fill="#EBD9B3"/>
<path d="M368.925 413.06C362.325 413.06 350.125 401.16 345.525 393.46C340.725 385.46 327.425 374.46 327.325 374.36C327.125 374.16 327.025 373.86 327.125 373.56C327.325 373.26 327.625 373.16 327.925 373.26L337.325 376.46C337.425 376.46 337.425 376.46 337.525 376.56C342.725 380.16 348.025 388.96 351.625 395.26C354.825 400.86 361.025 406.66 369.725 411.86C369.925 411.96 370.025 412.26 370.025 412.56C369.925 412.86 369.725 413.06 369.425 413.06C369.225 413.06 369.125 413.06 368.925 413.06ZM330.625 375.56C334.725 379.26 342.925 386.76 346.625 392.86C350.925 399.96 360.125 408.76 366.225 411.26C358.825 406.36 353.425 401.16 350.525 395.96C347.025 389.76 341.825 381.16 336.825 377.76L330.625 375.56Z" fill="#BD7A43"/>
<path d="M356.424 402.96C356.424 402.96 376.224 407.46 386.524 419.86C380.324 410.26 368.224 401.96 354.824 400.86L356.424 402.96Z" fill="#EBD9B3"/>
<path d="M386.625 420.46C386.425 420.46 386.225 420.36 386.125 420.26C376.125 408.26 356.524 403.66 356.324 403.56C356.224 403.56 356.024 403.46 355.924 403.36L354.324 401.26C354.224 401.06 354.124 400.76 354.324 400.56C354.424 400.36 354.724 400.16 354.924 400.26C367.624 401.26 380.325 408.86 387.125 419.56C387.325 419.86 387.224 420.26 386.924 420.46C386.824 420.36 386.725 420.46 386.625 420.46ZM356.824 402.36C358.624 402.76 370.224 405.86 379.924 412.86C373.424 406.86 364.824 402.66 356.324 401.56L356.824 402.36Z" fill="#BD7A43"/>
<path d="M368.425 387.16C368.425 387.16 388.625 389.26 398.225 399.76C388.825 388.86 373.525 384.16 365.625 385.06L368.425 387.16Z" fill="#EBD9B3"/>
<path d="M398.226 400.36C398.026 400.36 397.926 400.26 397.726 400.16C388.426 390.06 368.526 387.86 368.326 387.76C368.226 387.76 368.126 387.66 368.026 387.66L365.226 385.56C365.026 385.36 364.926 385.16 365.026 384.86C365.126 384.56 365.326 384.46 365.526 384.36C366.126 384.26 366.826 384.26 367.526 384.26C376.526 384.26 390.126 389.46 398.626 399.26C398.826 399.56 398.826 399.96 398.526 400.16C398.526 400.26 398.426 400.36 398.226 400.36ZM368.626 386.56C370.026 386.76 378.526 387.86 386.926 391.46C380.226 387.66 372.926 385.66 367.626 385.66C367.526 385.66 367.526 385.66 367.426 385.66L368.626 386.56Z" fill="#BD7A43"/>
<path d="M331.727 377.76C331.727 377.76 337.527 386.46 340.427 397.16C343.427 407.86 351.727 416.56 352.527 423.16C353.427 429.76 355.327 440.66 361.227 445.36C355.927 433.86 355.227 433.26 353.527 421.06C351.627 409.36 348.027 410.36 344.627 401.66C341.227 392.96 339.327 387.36 336.527 381.66L331.727 377.76Z" fill="#EBD9B3"/>
<path d="M361.426 445.96C361.326 445.96 361.126 445.86 361.026 445.86C354.326 440.56 352.626 427.56 352.026 423.26C351.626 420.16 349.526 416.46 347.026 412.26C344.426 407.86 341.526 402.86 339.926 397.36C337.026 386.96 331.326 378.26 331.226 378.16C331.026 377.86 331.126 377.56 331.326 377.36C331.526 377.16 331.926 377.16 332.126 377.36L337.026 381.16C337.126 381.26 337.126 381.26 337.226 381.36C339.326 385.66 340.926 389.86 342.926 395.16C343.626 397.06 344.426 399.16 345.326 401.36C346.626 404.76 348.026 406.66 349.326 408.46C351.326 411.16 353.126 413.76 354.326 420.86C355.926 431.96 356.526 433.36 360.726 442.46L361.926 445.06C362.026 445.36 362.026 445.66 361.726 445.86C361.626 445.86 361.526 445.96 361.426 445.96ZM334.126 380.36C336.126 383.86 339.226 390.06 341.126 396.96C342.626 402.36 345.526 407.26 348.126 411.56C350.726 415.86 352.926 419.66 353.326 423.06C353.826 426.56 355.026 436.06 359.126 441.96C355.326 433.66 354.626 431.96 353.126 421.16C352.026 414.26 350.326 411.96 348.326 409.26C347.026 407.46 345.526 405.46 344.226 401.86C343.326 399.56 342.526 397.56 341.826 395.56C339.826 390.26 338.226 386.16 336.226 381.96L334.126 380.36Z" fill="#BD7A43"/>
<path d="M352.826 418.86C352.826 418.86 363.026 426.36 369.626 435.66C364.926 423.96 352.326 415.16 352.326 415.16L352.826 418.86Z" fill="#EBD9B3"/>
<path d="M369.726 436.36C369.526 436.36 369.326 436.26 369.226 436.06C362.726 426.86 352.626 419.46 352.526 419.36C352.426 419.26 352.326 419.06 352.226 418.96L351.826 415.36C351.826 415.16 351.926 414.86 352.126 414.76C352.326 414.66 352.626 414.66 352.826 414.76C353.326 415.16 365.626 423.76 370.326 435.46C370.426 435.76 370.326 436.06 370.026 436.26C369.926 436.36 369.826 436.36 369.726 436.36ZM353.426 418.56C354.626 419.46 360.526 423.96 365.926 430.06C361.626 423.56 355.726 418.66 353.226 416.76L353.426 418.56Z" fill="#BD7A43"/>
<path d="M332.025 405.86C332.025 405.86 332.425 416.76 336.525 425.86C331.225 418.16 330.125 404.96 330.125 404.96L332.025 405.86Z" fill="#EBD9B3"/>
<path d="M336.426 426.56C336.226 426.56 336.026 426.46 335.926 426.26C330.526 418.56 329.426 405.56 329.426 405.06C329.426 404.86 329.526 404.66 329.726 404.46C329.926 404.36 330.126 404.36 330.326 404.36L332.226 405.26C332.426 405.36 332.626 405.56 332.626 405.86C332.626 405.96 333.126 416.56 336.926 425.46C337.026 425.56 337.126 425.76 337.126 425.86C337.126 426.26 336.826 426.56 336.426 426.56C336.526 426.56 336.426 426.56 336.426 426.56ZM330.826 406.06C331.026 407.76 331.526 411.16 332.526 414.96C331.726 410.76 331.426 407.46 331.426 406.26L330.826 406.06Z" fill="#BD7A43"/>
<path d="M352.125 377.96C352.125 377.96 355.725 375.86 360.425 373.56C365.725 370.96 377.925 369.16 381.225 369.86C374.425 366.26 368.425 368.46 360.125 371.76C351.825 374.96 348.225 377.16 348.225 377.16L352.125 377.96Z" fill="#EBD9B3"/>
<path d="M352.125 378.66H352.025L348.125 377.76C347.825 377.66 347.625 377.46 347.625 377.26C347.625 376.96 347.725 376.76 347.925 376.56C348.025 376.46 351.625 374.26 359.925 371.06C364.925 369.16 369.625 367.26 374.025 367.26C376.625 367.26 379.025 367.86 381.425 369.16C381.725 369.26 381.925 369.46 381.925 369.76C381.925 370.16 381.625 370.36 381.325 370.36H381.225C380.825 370.26 380.225 370.26 379.525 370.26C374.725 370.26 365.125 372.06 360.925 374.06C356.225 376.36 352.625 378.46 352.625 378.46C352.325 378.56 352.225 378.66 352.125 378.66ZM350.025 376.86L352.025 377.26C352.925 376.76 356.125 374.86 360.225 372.96C364.225 370.96 372.425 369.36 377.725 369.06C376.525 368.76 375.325 368.56 374.025 368.56C369.825 368.56 365.425 370.26 360.425 372.26C355.125 374.36 351.725 375.96 350.025 376.86Z" fill="#BD7A43"/>
<path d="M374.325 369.96C374.325 369.96 383.825 382.06 398.325 381.36C388.825 383.06 380.825 379.16 372.125 370.26C373.725 369.96 374.325 369.96 374.325 369.96Z" fill="#EBD9B3"/>
<path d="M394.026 382.46C386.426 382.46 379.526 378.86 371.626 370.76C371.426 370.56 371.426 370.36 371.426 370.16C371.526 369.96 371.726 369.76 371.926 369.76C373.626 369.46 374.226 369.36 374.226 369.36C374.426 369.36 374.626 369.46 374.726 369.56C374.826 369.66 384.226 381.46 398.226 380.76C398.526 380.76 398.826 380.96 398.926 381.36C398.926 381.66 398.726 381.96 398.426 382.06C396.926 382.26 395.426 382.46 394.026 382.46ZM373.426 370.76C377.726 374.96 381.626 377.86 385.626 379.46C379.226 376.46 375.026 371.86 374.026 370.66C373.826 370.66 373.626 370.66 373.426 370.76Z" fill="#BD7A43"/>
<path d="M343.526 376.16C327.626 373.16 313.526 360.76 313.526 341.76C313.526 330.06 314.826 319.26 314.526 303.26C311.426 304.06 308.026 304.36 305.326 303.26C305.526 310.36 305.526 317.06 305.126 323.46C303.826 347.76 299.726 363.16 278.426 368.96C265.226 372.16 260.626 369.36 253.426 368.66C246.226 368.06 236.926 370.96 233.326 377.06C233.326 377.06 239.626 368.66 253.426 370.76C267.226 372.86 278.226 377.76 293.626 367.06C286.126 378.56 272.826 385.36 267.226 394.96C261.626 404.56 257.826 415.36 259.226 425.66C260.426 412.06 265.126 395.96 274.626 387.96C284.226 379.96 298.726 368.76 303.926 357.76C301.326 380.46 308.826 394.06 315.626 409.26C322.426 424.46 328.026 437.36 327.526 449.06C328.226 431.46 326.326 427.06 320.926 415.36C315.526 403.66 309.026 387.46 310.126 372.76C311.026 363.16 312.426 356.86 314.126 360.86C315.726 364.86 319.726 373.76 342.726 378.86C365.626 383.96 371.226 391.76 373.626 399.26C372.826 386.46 359.426 379.26 343.526 376.16Z" fill="#EBD9B3"/>
<path d="M327.626 449.56C327.226 449.56 326.926 449.26 327.026 448.86C327.526 437.06 321.526 423.56 315.126 409.36C314.526 407.96 313.826 406.56 313.226 405.16C307.226 392.06 301.626 379.66 303.026 360.66C297.526 369.86 286.326 379.06 277.926 385.96L275.126 388.26C263.126 398.16 260.426 419.26 259.926 425.46C259.926 425.76 259.626 426.06 259.326 426.06C259.026 426.06 258.726 425.86 258.726 425.46C257.426 416.16 260.126 405.66 266.726 394.36C269.526 389.56 274.226 385.46 279.226 381.16C283.426 377.46 287.826 373.76 291.326 369.26C285.626 372.66 280.026 374.26 273.926 374.26C269.326 374.26 264.926 373.36 260.226 372.46C258.026 372.06 255.826 371.56 253.526 371.26C252.126 371.06 250.626 370.96 249.326 370.96C239.026 370.96 234.126 377.26 234.026 377.36C233.826 377.66 233.426 377.66 233.126 377.46C232.826 377.26 232.726 376.86 232.926 376.56C236.526 370.46 245.226 367.76 251.726 367.76C252.426 367.76 253.026 367.76 253.726 367.86C255.626 368.06 257.426 368.36 259.126 368.66C261.626 369.16 264.226 369.66 267.526 369.66C270.826 369.66 274.426 369.16 278.526 368.16C298.826 362.66 303.426 348.16 304.726 323.26C305.026 317.06 305.126 310.26 304.926 303.16C304.926 302.96 305.026 302.76 305.226 302.66C305.426 302.56 305.626 302.46 305.826 302.56C308.026 303.46 311.026 303.46 314.626 302.46C314.826 302.46 315.026 302.46 315.126 302.56C315.326 302.66 315.426 302.86 315.426 303.06C315.626 312.56 315.326 320.06 314.926 327.26C314.726 332.16 314.426 336.86 314.426 341.66C314.426 361.06 329.226 372.66 343.826 375.46C354.826 377.56 373.326 383.36 374.526 398.96C374.526 399.26 374.326 399.56 374.026 399.66C373.726 399.76 373.426 399.56 373.326 399.26C371.126 392.26 365.826 384.46 342.926 379.36C319.326 374.06 315.526 364.86 313.926 360.96C313.726 360.56 313.626 360.36 313.526 360.26C313.226 360.66 312.126 362.66 311.126 372.76C310.026 387.06 316.226 402.86 321.826 415.06C327.026 426.36 329.126 430.96 328.426 449.06C328.226 449.36 327.926 449.56 327.626 449.56ZM304.026 357.06C304.126 357.06 304.126 357.06 304.226 357.06C304.526 357.16 304.726 357.46 304.726 357.76C302.426 378.16 308.226 391.06 314.526 404.76C315.126 406.16 315.826 407.56 316.426 408.96C320.826 418.76 325.026 428.26 327.126 437.16C326.526 428.46 324.526 423.86 320.626 415.56C315.026 403.26 308.626 387.26 309.826 372.66C311.126 358.96 312.626 358.96 313.426 358.96C314.226 358.96 314.726 359.86 315.026 360.56C316.526 364.26 320.126 373.06 343.126 378.16C359.926 381.96 367.626 387.16 371.426 392.56C366.426 382.66 352.426 378.46 343.626 376.86C328.426 373.96 313.126 361.96 313.126 341.86C313.126 337.06 313.326 332.36 313.626 327.46C313.926 320.46 314.326 313.26 314.126 304.16C311.026 304.86 308.326 304.86 306.226 304.26C306.426 311.06 306.326 317.56 306.026 323.56C304.726 349.06 299.926 363.96 278.926 369.66C274.726 370.66 271.026 371.16 267.626 371.16C264.226 371.16 261.526 370.66 259.026 370.16C257.226 369.86 255.626 369.56 253.726 369.36C251.026 369.16 247.926 369.46 244.826 370.26C247.426 369.76 250.626 369.66 253.926 370.16C256.226 370.56 258.526 370.96 260.726 371.36C265.326 372.26 269.726 373.06 274.226 373.06C281.126 373.06 287.326 370.96 293.726 366.46C293.926 366.26 294.326 366.26 294.526 366.56C294.726 366.76 294.826 367.16 294.626 367.36C290.826 373.26 285.526 377.86 280.426 382.26C278.526 383.96 276.626 385.56 274.926 387.16L277.526 385.06C286.626 377.56 299.226 367.26 303.826 357.36C303.526 357.16 303.726 357.06 304.026 357.06ZM263.426 403.86C261.626 408.26 260.426 412.46 259.926 416.56C260.626 412.66 261.726 408.26 263.426 403.86Z" fill="#BD7A43"/>
<g opacity="0.4">
<path opacity="0.4" d="M293.726 367.06C292.626 368.76 291.326 370.36 290.026 371.96C290.326 371.66 290.626 371.36 290.926 371.06C293.626 368.16 296.226 365.16 298.726 362.16C298.626 362.26 298.426 362.36 298.326 362.46C297.926 362.76 297.526 363.06 297.126 363.36C296.326 363.96 295.426 364.46 294.526 365.06C292.326 366.36 290.026 367.46 287.526 368.36C281.926 370.56 274.326 372.26 268.126 370.46C262.126 370.56 258.426 369.16 253.526 368.66C246.326 368.06 237.026 370.96 233.426 377.06C233.426 377.06 239.726 368.66 253.526 370.76C267.226 372.86 278.226 377.86 293.726 367.06Z" fill="#CB9049"/>
</g>
<g opacity="0.4">
<path opacity="0.4" d="M343.525 376.16C327.625 373.16 313.525 360.76 313.525 341.76C313.525 330.06 314.825 319.26 314.525 303.26C313.325 303.56 312.025 303.76 310.825 303.86C310.625 314.56 310.125 325.16 309.925 335.86C309.825 340.06 310.225 344.16 310.225 348.36C310.225 352.16 309.825 355.86 309.225 359.56C308.625 363.26 307.825 366.86 307.425 370.56C307.025 374.36 307.125 378.06 307.625 381.86C308.225 386.36 309.325 390.86 309.725 395.46C311.625 400.06 313.725 404.56 315.825 409.16C322.625 424.36 328.225 437.26 327.725 448.96C328.425 431.36 326.525 426.96 321.125 415.26C315.725 403.56 309.225 387.36 310.325 372.66C311.225 363.06 312.625 356.76 314.325 360.76C315.925 364.76 319.925 373.66 342.925 378.76C365.825 383.86 371.425 391.66 373.825 399.16C372.825 386.46 359.425 379.26 343.525 376.16Z" fill="#CB9049"/>
</g>
<path d="M307.826 308.66C307.826 308.46 307.426 308.76 307.426 308.86C306.926 317.16 306.326 325.36 305.326 333.66C304.726 339.26 304.226 344.76 301.826 349.96C300.026 353.96 296.926 357.26 294.226 360.56C293.826 361.06 294.226 361.66 294.726 361.16C300.026 355.86 303.926 349.76 305.426 342.36C307.526 331.56 308.326 319.66 307.826 308.66Z" fill="#EBD9B3"/>
<path d="M301.327 235.76C301.327 235.66 301.227 235.76 301.227 235.86C303.827 248.46 304.627 261.86 305.227 274.66C305.227 275.06 305.927 274.46 305.927 274.16C305.727 261.76 304.927 247.66 301.327 235.76Z" fill="#346227"/>
<g opacity="0.4">
<path opacity="0.4" d="M385.226 142.76C381.926 144.96 378.126 144.26 374.526 143.96C369.726 143.56 364.926 143.36 360.126 142.86C354.026 142.26 347.926 142.06 341.826 142.66C330.226 143.76 320.326 150.16 315.126 162.56C314.526 164.06 315.826 163.86 316.326 162.76C324.426 145.96 340.926 143.86 353.826 144.26C360.526 144.46 367.126 145.06 373.826 145.16C377.826 145.26 381.726 145.76 385.126 142.96C385.326 143.06 385.526 142.66 385.226 142.76Z" fill="#86B133"/>
</g>
<g opacity="0.4">
<path opacity="0.4" d="M369.425 57.2598C349.525 56.8598 324.725 52.7598 310.425 70.0598C309.925 70.6598 310.425 71.4598 311.025 70.7598C319.025 61.9598 328.825 59.5598 340.225 58.2598C349.925 57.1598 359.525 58.3598 369.125 57.8598C369.425 57.8598 369.725 57.2598 369.425 57.2598Z" fill="#86B133"/>
</g>
<g opacity="0.4">
<path opacity="0.4" d="M279.227 183.86C269.527 170.26 254.527 166.86 238.927 169.96C238.827 169.96 238.727 170.26 238.827 170.26C246.327 169.66 252.927 169.76 260.227 171.86C270.727 174.86 272.127 178.76 278.227 184.96C278.627 185.26 279.427 184.16 279.227 183.86Z" fill="#86B133"/>
</g>
<g opacity="0.4">
<path opacity="0.4" d="M269.726 69.8598C260.926 55.6598 246.226 51.3598 230.426 53.4598C230.326 53.4598 230.126 53.7598 230.326 53.7598C237.826 53.6598 244.426 54.1598 251.626 56.6598C262.126 60.3598 262.926 64.1598 268.826 70.8598C269.126 71.1598 269.926 70.1598 269.726 69.8598Z" fill="#86B133"/>
</g>
<g opacity="0.5">
<path opacity="0.5" d="M321.526 16.8598C317.226 19.3598 312.026 20.9598 307.526 23.2598C303.926 25.0598 301.226 27.9598 298.926 31.1598C298.426 31.8598 299.026 32.2598 299.526 31.5598C303.226 26.7598 307.526 23.8598 313.026 21.3598C315.826 20.0598 319.226 19.0598 321.526 17.0598C321.626 17.0598 321.726 16.7598 321.526 16.8598Z" fill="#A2C629"/>
</g>
<g opacity="0.4">
<path opacity="0.4" d="M293.027 221.66C299.827 240.36 301.627 244.06 303.827 266.26C304.327 276.56 306.127 272.06 305.027 261.06C304.327 254.26 302.427 243.66 300.227 233.96C296.127 220.56 284.827 196.46 255.727 184.36C267.427 190.86 285.227 203.36 293.027 221.66Z" fill="#3D742E"/>
</g>
<g opacity="0.4">
<path opacity="0.4" d="M233.525 178.26C233.025 178.16 232.725 178.16 232.725 178.16C232.925 178.16 233.225 178.26 233.525 178.26Z" fill="#3D742E"/>
<path opacity="0.4" d="M233.525 178.86C233.425 178.86 233.425 178.86 233.525 178.86L233.025 178.76L232.625 178.66C232.325 178.56 232.025 178.26 232.125 177.96C232.225 177.66 232.525 177.36 232.825 177.46L233.225 177.56L233.725 177.66C234.025 177.76 234.325 178.06 234.225 178.36C234.025 178.66 233.825 178.86 233.525 178.86Z" fill="#346227"/>
</g>
<g opacity="0.4">
<path opacity="0.4" d="M278.927 103.46C287.027 125.26 288.327 124.86 286.727 113.76C285.227 109.46 269.327 65.7598 223.127 62.7598C237.227 65.3598 266.427 74.2598 278.927 103.46Z" fill="#3D742E"/>
</g>
<path d="M233.527 178.26C233.027 178.16 232.727 178.16 232.727 178.16C232.927 178.16 233.227 178.26 233.527 178.26Z" fill="#3D742E"/>
<path d="M233.527 178.86C233.427 178.86 233.427 178.86 233.527 178.86L233.027 178.76L232.627 178.66C232.327 178.56 232.027 178.26 232.127 177.96C232.227 177.66 232.527 177.36 232.827 177.46L233.227 177.56L233.727 177.66C234.027 177.76 234.327 178.06 234.227 178.36C234.027 178.66 233.827 178.86 233.527 178.86Z" fill="#346227"/>
<path d="M293.726 53.6598C288.626 67.1598 288.626 82.2598 288.926 96.5598C288.926 96.9598 289.626 96.4598 289.626 96.1598C289.926 81.6598 290.026 67.8598 293.926 53.6598C293.926 53.5598 293.826 53.6598 293.726 53.6598Z" fill="#3D742E"/>
<path d="M273.626 96.1598C270.226 89.6598 264.826 85.2598 259.426 80.4598L259.326 80.5598C264.326 85.7598 269.426 90.3598 273.026 96.6598C276.526 102.76 279.426 109.56 281.926 116.16C282.026 116.36 282.326 115.96 282.326 115.86C280.426 108.96 277.026 102.46 273.626 96.1598Z" fill="#3D742E"/>
<path d="M289.526 142.76C289.526 142.56 289.326 142.86 289.326 142.96C290.226 150.86 291.826 158.66 292.726 166.56C293.726 174.36 294.526 182.36 296.026 190.06C296.126 190.56 296.826 189.86 296.726 189.56C295.126 173.86 292.126 158.36 289.526 142.76Z" fill="#3D742E"/>
<path d="M335.026 165.86C330.526 169.06 326.026 172.16 322.026 175.96C318.226 179.66 315.026 184.06 312.026 188.36C311.726 188.76 312.126 189.06 312.426 188.66C315.626 184.56 318.726 180.26 322.326 176.46C326.126 172.46 330.926 169.56 335.126 165.96C335.026 165.86 335.126 165.76 335.026 165.86Z" fill="#3D742E"/>
</svg>
