<svg width="32" height="32" viewBox="0 0 32 32" fill="none" xmlns="http://www.w3.org/2000/svg">
<g clip-path="url(#clip0)">
<path d="M28.0887 21.9048C28.5137 21.9048 28.8855 21.6162 28.9949 21.2053L31.9688 10.0059C32.0408 9.7344 31.9874 9.44412 31.823 9.21633C31.6587 8.98831 31.4009 8.84573 31.1204 8.8284L5.46245 7.24343L4.76664 2.96023C4.71879 2.66604 4.53373 2.41189 4.26811 2.2759L1.36479 0.790553C0.903851 0.554957 0.33891 0.73733 0.10307 1.19827C-0.13277 1.6592 0.0498472 2.2239 0.510785 2.45974L2.99199 3.72927L5.79155 20.9637L5.32084 23.9336C3.55864 24.2351 2.21293 25.7735 2.21293 27.6214C2.21293 29.6851 3.89091 31.3743 5.95341 31.3743C7.86332 31.3743 9.44267 29.9048 9.66557 28.0923H22.4654C22.6883 29.9048 24.2676 31.3743 26.1775 31.3743C28.24 31.3743 29.918 29.6902 29.918 27.6265C29.918 25.563 28.24 23.8919 26.1775 23.8919C24.6192 23.8919 23.281 24.8423 22.7195 26.2173H9.41142C9.00664 25.2173 8.19804 24.459 7.19438 24.1045L7.54179 21.9048H28.0887ZM26.1775 25.7539C27.2061 25.7539 28.043 26.5916 28.043 27.6214C28.043 28.6512 27.2061 29.489 26.1775 29.489C25.1492 29.489 24.3123 28.6512 24.3123 27.6214C24.3123 26.5916 25.1492 25.7539 26.1775 25.7539ZM7.81865 27.6214C7.81865 28.6512 6.98198 29.489 5.95341 29.489C4.92485 29.489 4.08793 28.6512 4.08793 27.6214C4.08793 26.5916 4.92485 25.7539 5.95341 25.7539C6.98198 25.7539 7.81865 26.5916 7.81865 27.6214ZM5.77055 9.14358L29.8628 10.6331L27.3677 20.0298H7.53837L5.77055 9.14358Z" fill="#5A5A5A"/>
</g>
<defs>
<clipPath id="clip0">
<rect width="32" height="32" fill="white"/>
</clipPath>
</defs>
</svg>
