<svg width="112" height="112" viewBox="0 0 112 112" fill="none" xmlns="http://www.w3.org/2000/svg">
<g clip-path="url(#clip0)">
<path d="M111.474 23.1472C111.044 22.6809 110.347 22.5744 109.795 22.8908L86.6157 36.2022L54.6341 18.1949C54.5659 18.1568 54.4923 18.1348 54.4213 18.109L45.4319 0.847815C45.2628 0.521883 44.9696 0.279036 44.6177 0.17271C44.2686 0.0676647 43.8881 0.105913 43.5662 0.283245L0.707683 23.8195C0.388523 23.9941 0.15391 24.29 0.0516103 24.6405C-0.0466634 24.9911 -0.00438926 25.3661 0.174407 25.684L10.3284 43.5017C10.3244 43.5385 10.4565 43.5727 10.4565 43.6108C10.4565 43.6135 10.4565 43.6163 10.4565 43.619C10.4565 43.6218 10.4565 43.6245 10.4565 43.6271V84.429H10.1934C10.1934 84.429 10.4048 85.6154 10.829 85.8705L53.2632 111.619C53.4801 111.752 53.723 111.885 53.9684 111.885C54.2085 111.885 54.4486 111.856 54.664 111.73L97.9673 85.861C98.3956 85.6071 98.6123 84.4302 98.6123 84.4302H99.1102V43.8264L111.838 24.8425C112.197 24.3173 111.908 23.6136 111.474 23.1472ZM47.737 63.4579L54.0233 59.4427L57.6566 61.8159L54.2334 67.3026L47.737 63.4579ZM52.7369 57.1118L45.1715 61.9032L14.3465 43.6463L52.7369 21.7314V57.1118ZM13.1844 46.0426L52.7369 70.0126V108.171L13.1844 84.2066V46.0426ZM55.4648 70.021L96.3812 46.0168V84.1971L55.4648 108.196V70.021ZM59.169 59.4998L55.4646 57.038V21.7179L83.9274 37.7843L66.722 47.6466C66.5271 47.7584 66.3783 47.9167 66.261 48.1076L59.169 59.4998ZM43.6562 3.34364L51.8272 19.035L12.2665 41.636L3.22675 25.5476L43.6562 3.34364ZM96.1437 42.637L96.1997 42.6753L59.135 64.6007L68.3438 49.841L105.988 28.2223L96.1437 42.637Z" fill="#5A5A5A"/>
</g>
<defs>
<clipPath id="clip0">
<rect width="112" height="112" fill="white"/>
</clipPath>
</defs>
</svg>
