<svg width="111" height="111" viewBox="0 0 111 111" fill="none" xmlns="http://www.w3.org/2000/svg">
<path d="M94.1795 17.3293L96.5406 12.5115C97.9506 9.63135 97.8507 6.14991 96.2857 3.6415C94.8206 1.29316 92.2893 0 89.1576 0H21.8423C18.7107 0 16.1794 1.29316 14.7143 3.6415C13.1502 6.14906 13.0502 9.63135 14.4603 12.5124L16.8205 17.3293C14.0521 30.4142 12.8461 42.4438 13.0257 55.1349C13.1798 66.0382 14.3222 77.5725 16.8416 93.6205L14.4594 98.4832C13.0494 101.368 13.1502 104.852 14.716 107.361C16.1819 109.707 18.7123 111 21.8423 111H89.1576C92.2885 111 94.8189 109.707 96.284 107.361C97.8498 104.852 97.9506 101.368 96.5406 98.4815L94.1584 93.6205C96.6778 77.5725 97.821 66.0382 97.9752 55.1349C98.1539 42.4438 96.9479 30.4142 94.1795 17.3293ZM93.5249 105.638C92.6637 107.019 91.1537 107.748 89.1576 107.748H21.8423C19.8463 107.748 18.3363 107.018 17.4751 105.638C16.4893 104.059 16.4529 101.811 17.3802 99.9127L19.5414 95.5014H91.4586L93.6189 99.911C94.5479 101.811 94.5107 104.059 93.5249 105.638ZM91.08 92.2486H19.92C15.6696 64.9305 14.4433 44.7888 19.8505 18.7444H53.913C54.8115 18.7444 55.539 18.017 55.539 17.1185C55.539 16.2208 54.8115 15.4925 53.913 15.4925H19.5414L17.3802 11.082C16.4529 9.1859 16.4893 6.94087 17.4734 5.36317C18.3355 3.98194 19.8454 3.25279 21.8423 3.25279H89.1576C91.1537 3.25279 92.6645 3.98194 93.5258 5.36317C94.5107 6.94087 94.5471 9.1859 93.6189 11.0812L91.4577 15.4925H61.5017C60.604 15.4925 59.8757 16.2208 59.8757 17.1185C59.8757 18.017 60.604 18.7444 61.5017 18.7444H91.1495C96.5567 44.7888 95.3304 64.9305 91.08 92.2486Z" fill="#5A5A5A"/>
<path d="M71.3406 66.3576C75.1574 61.6371 76.0898 55.8539 73.8702 50.2426C72.0952 45.7551 68.4672 41.8383 63.3776 38.9158C57.9085 35.7756 50.8728 33.9202 43.0317 33.5492C43.0037 33.5484 42.9775 33.5475 42.947 33.5475C37.8294 33.5704 35.1127 36.0128 34.873 40.8077C34.8722 40.8356 34.8713 40.8627 34.8713 40.8898C34.8755 47.4911 36.77 54.2313 40.2074 59.8689C43.5203 65.3015 48.0036 69.3775 52.8307 71.3456C54.9758 72.2204 57.0972 72.6531 59.1509 72.6531C62.7534 72.6531 66.146 71.3176 69.0913 68.7068L75.2675 74.667C75.5834 74.971 75.9899 75.1226 76.3964 75.1226C76.8223 75.1226 77.2475 74.9566 77.5667 74.6263C78.19 73.9802 78.1722 72.9504 77.5261 72.3271L71.3406 66.3576ZM68.9872 64.0871L65.377 60.6031L65.9029 53.7342C65.9715 52.8382 65.3016 52.0574 64.4056 51.9888C63.5097 51.9185 62.7289 52.5901 62.6603 53.4861L62.3401 57.6721L57.4868 52.989L57.8899 47.6419C57.9576 46.7468 57.2869 45.9659 56.3909 45.8982C55.4924 45.8296 54.715 46.502 54.6472 47.3971L54.4465 50.0554L51.2048 46.9271C50.5594 46.3038 49.5297 46.3216 48.9055 46.9686C48.2822 47.6139 48.3009 48.6437 48.947 49.267L52.0999 52.3098L49.9268 52.4936C49.0317 52.5689 48.3678 53.3557 48.4431 54.2508C48.5151 55.0985 49.2256 55.7396 50.0615 55.7396C50.1081 55.7396 50.1538 55.7379 50.2004 55.7337L55.2096 55.3102L59.9918 59.9248L56.396 60.2305C55.5009 60.3067 54.8369 61.0935 54.9132 61.9877C54.9851 62.8363 55.6957 63.4765 56.5315 63.4765C56.5781 63.4765 56.6247 63.4748 56.6712 63.4706L63.1006 62.9244L66.7438 66.4405C62.1615 70.3666 57.3708 69.684 54.0587 68.3333C46.348 65.1897 38.1487 54.5193 38.1241 40.9296C38.2579 38.4001 39.1183 36.8274 42.9207 36.7995C59.5557 37.5964 68.2529 44.882 70.8469 51.4384C72.5762 55.8141 71.8885 60.3372 68.9872 64.0871Z" fill="#5A5A5A"/>
</svg>
