<svg width="111" height="111" viewBox="0 0 111 111" fill="none" xmlns="http://www.w3.org/2000/svg">
<g clip-path="url(#clip0)">
<path d="M97.5327 22.4744L55.8141 0.244589C55.1952 -0.0857298 54.4534 -0.081094 53.8391 0.256179L13.2748 22.486C12.6096 22.8511 12.197 23.5488 12.197 24.308V53.3459C12.2213 77.2158 26.3636 98.8105 48.2341 108.373L53.8646 110.827C54.3908 111.057 54.99 111.058 55.5174 110.829L61.8618 108.09C84.138 98.734 98.6303 76.9306 98.6326 52.7699V24.308C98.6326 23.5407 98.2096 22.8349 97.5327 22.4744ZM94.4787 52.7699C94.4741 75.2651 80.9774 95.5629 60.2357 104.268L60.2218 104.275L54.6968 106.66L49.8961 104.566C29.5381 95.6649 16.3729 75.5653 16.3497 53.3459V25.5377L54.8509 4.43674L94.4787 25.5528V52.7699Z" fill="#5A5A5A"/>
<path d="M39.5277 51.9991C38.7824 51.1264 37.4716 51.0232 36.5989 51.7685C35.7261 52.5126 35.623 53.8246 36.3682 54.6961L47.3394 67.5438C48.0719 68.4015 49.355 68.5185 50.2288 67.8069L75.7804 47.0188C76.6705 46.2956 76.805 44.9871 76.0806 44.097C75.3574 43.208 74.0489 43.0724 73.1587 43.7968L49.1811 63.303L39.5277 51.9991Z" fill="#5A5A5A"/>
</g>
<defs>
<clipPath id="clip0">
<rect width="111" height="111" fill="white"/>
</clipPath>
</defs>
</svg>
