<svg width="112" height="112" viewBox="0 0 112 112" fill="none" xmlns="http://www.w3.org/2000/svg">
<g clip-path="url(#clip0)">
<path d="M106.424 91.8947L83.327 68.7978L92.6689 65.3978C93.4654 65.108 93.9387 64.2881 93.7913 63.4533L91.2888 49.2615L98.4942 36.7812C98.9179 36.0473 98.7536 35.115 98.1044 34.5703L87.065 25.3074L84.5625 11.1153C84.4153 10.2808 83.6903 9.67244 82.8427 9.67244H68.4314L57.3927 0.408618C56.7432 -0.136287 55.7967 -0.136287 55.1472 0.408618L44.108 9.67179H29.697C28.8494 9.67179 28.1244 10.2801 27.9772 11.1147L25.4747 25.3065L14.4351 34.5696C13.7858 35.1143 13.6216 36.0466 14.0453 36.7805L21.2509 49.2609L18.7484 63.4527C18.6009 64.2874 19.0743 65.1071 19.8708 65.3972L28.8174 68.6532L5.57638 91.8947C5.09579 92.3755 4.93763 93.0922 5.17169 93.7305C5.40554 94.369 5.98872 94.8135 6.66641 94.8699L21.0004 96.0647L22.1952 110.399C22.2517 111.076 22.6962 111.659 23.3347 111.893C23.5307 111.965 23.7337 112 23.9352 112C24.3904 112 24.8371 111.822 25.1704 111.489L56.0001 80.6589L86.8298 111.489C87.1634 111.822 87.6099 112 88.0651 112C88.2666 112 88.4698 111.965 88.6656 111.893C89.3041 111.659 89.7486 111.076 89.8048 110.399L90.9998 96.065L105.334 94.8702C106.011 94.8137 106.595 94.3692 106.828 93.7305C107.062 93.0919 106.904 92.3758 106.424 91.8947ZM25.3632 106.356L24.3584 94.3021C24.2876 93.4522 23.6134 92.7776 22.7631 92.7067L10.7089 91.702L32.439 69.9719L33.4127 70.3262L40.6181 82.8066C40.9375 83.3598 41.5215 83.68 42.131 83.68C42.33 83.68 42.5317 83.6459 42.7279 83.5746L51.2432 80.4753L25.3632 106.356ZM57.6939 75.4476L56.8668 75.1468C56.4812 75.0062 56.0581 75.0062 55.6724 75.1468L54.4474 75.5926L42.9104 79.7915L36.1197 68.0298C35.9143 67.6743 35.5906 67.4024 35.2047 67.2618L32.5885 66.3093L22.4426 62.6168L24.8012 49.2423C24.8727 48.8376 24.7992 48.4211 24.594 48.0654L17.8032 36.3037L28.2073 27.5738C28.5219 27.31 28.7334 26.9438 28.8043 26.5396L31.1626 13.1648H44.7437C45.1545 13.1648 45.552 13.0202 45.8663 12.7562L56.2701 4.0263L66.6738 12.7562C66.9884 13.0202 67.3858 13.1648 67.7964 13.1648H81.3777L83.736 26.5396C83.8074 26.9438 84.0187 27.3102 84.333 27.5738L94.737 36.3037L87.9463 48.0654C87.7409 48.4209 87.6676 48.8376 87.7389 49.2421L90.0975 62.6166L79.5564 66.4533L77.3352 67.2618C76.9496 67.4024 76.6254 67.6741 76.4202 68.0298L69.6298 79.7915L57.697 75.4485C57.6959 75.448 57.6948 75.448 57.6939 75.4476ZM89.2372 92.7069C88.3873 92.7778 87.7127 93.452 87.6418 94.3023L86.6373 106.356L60.448 80.1665L69.8118 83.5748C70.008 83.6463 70.2097 83.6802 70.4087 83.6802C71.0182 83.6802 71.6022 83.36 71.9216 82.8068L79.1268 70.3265L79.7051 70.116L101.291 91.7022L89.2372 92.7069Z" fill="#5A5A5A"/>
<path d="M56.0004 14.989C40.6571 14.989 28.1746 27.4715 28.1746 42.8148C28.1746 58.1581 40.6573 70.6404 56.0004 70.6404C71.3437 70.6404 83.826 58.1579 83.826 42.8148C83.826 27.4717 71.3435 14.989 56.0004 14.989ZM56.0004 67.1476C42.5832 67.1476 31.6673 56.2318 31.6673 42.8146C31.6673 29.3973 42.5832 18.4817 56.0004 18.4817C69.4174 18.4817 80.3334 29.3976 80.3334 42.8148C80.3334 56.232 69.4174 67.1476 56.0004 67.1476Z" fill="#5A5A5A"/>
<path d="M76.0991 37.2535C75.8652 36.5338 75.1947 36.0467 74.4381 36.0467H61.5489L57.5662 23.7884C57.3323 23.0687 56.6618 22.5815 55.9052 22.5815C55.1488 22.5815 54.4781 23.0687 54.2442 23.7884L50.2612 36.0467H37.3721C36.6156 36.0467 35.9449 36.5338 35.7111 37.2535C35.4773 37.973 35.7334 38.7614 36.3457 39.2061L46.7733 46.782L42.7903 59.0405C42.5564 59.76 42.8126 60.5484 43.4249 60.9931C43.7309 61.2156 44.091 61.3267 44.4512 61.3267C44.8115 61.3267 45.1716 61.2153 45.4776 60.9931L55.9052 53.4174L66.3325 60.9931C66.9446 61.4378 67.7734 61.4378 68.3853 60.9931C68.9973 60.5486 69.2533 59.7602 69.0199 59.0405L65.0369 46.782L75.4645 39.2061C76.0767 38.7614 76.3327 37.973 76.0991 37.2535ZM61.9575 44.7024C61.3455 45.1469 61.0893 45.9352 61.323 46.6549L64.037 55.0081L56.9313 49.8458C56.3193 49.4011 55.4904 49.4011 54.8786 49.8458L47.7727 55.0083L50.4868 46.6549C50.7206 45.9355 50.4644 45.1471 49.8522 44.7026L42.7467 39.5399H51.5302C52.2866 39.5399 52.9573 39.0527 53.1912 38.333L55.9052 29.9799L58.619 38.333C58.8528 39.0527 59.5233 39.5399 60.28 39.5399H69.0634L61.9575 44.7024Z" fill="#5A5A5A"/>
</g>
<defs>
<clipPath id="clip0">
<rect width="112" height="112" fill="white"/>
</clipPath>
</defs>
</svg>
