<svg width="28" height="28" viewBox="0 0 28 28" fill="none" xmlns="http://www.w3.org/2000/svg">
<path d="M22.1235 3.35463H17.765C17.5476 1.46933 15.9436 0 14.0009 0C12.0582 0 10.4544 1.46927 10.237 3.35463H5.87832C4.11449 3.35463 2.67969 4.78984 2.67969 6.5536V6.71774C2.67969 8.06559 3.51894 9.21925 4.70121 9.68931V24.801C4.70121 26.5649 6.13619 28 7.8999 28H20.1019C21.8657 28 23.3006 26.5647 23.3006 24.801V9.68937C24.4828 9.21925 25.3221 8.06559 25.3221 6.7178V6.55366C25.3221 4.78984 23.8872 3.35463 22.1235 3.35463ZM14.0009 1.5171C15.1058 1.5171 16.028 2.30905 16.2321 3.35463H11.77C11.9741 2.30899 12.8964 1.5171 14.0009 1.5171ZM21.7835 24.801C21.7835 25.7284 21.029 26.483 20.1019 26.483H7.89984C6.97277 26.483 6.21826 25.7283 6.21826 24.801V9.91671H21.7835V24.801ZM23.805 6.71774C23.805 7.6451 23.0505 8.39967 22.1234 8.39967H5.87832C4.95125 8.39967 4.19673 7.6451 4.19673 6.71774V6.5536C4.19673 5.62625 4.95125 4.87167 5.87832 4.87167H22.1235C23.0505 4.87167 23.8051 5.62625 23.8051 6.5536V6.71774H23.805Z" fill="#5A5A5A"/>
<path d="M9.9343 24.5428C10.3532 24.5428 10.6928 24.2031 10.6928 23.7844V15.2436C10.6928 14.8248 10.3532 14.485 9.9343 14.485C9.51543 14.485 9.17578 14.8248 9.17578 15.2436V23.7844C9.17572 24.2032 9.51537 24.5428 9.9343 24.5428Z" fill="#5A5A5A"/>
<path d="M14.0007 24.5428C14.4196 24.5428 14.7593 24.2031 14.7593 23.7844V15.2436C14.7593 14.8248 14.4195 14.485 14.0007 14.485C13.5818 14.485 13.2422 14.8248 13.2422 15.2436V23.7844C13.2422 24.2032 13.5818 24.5428 14.0007 24.5428Z" fill="#5A5A5A"/>
<path d="M18.0672 24.5428C18.486 24.5428 18.8256 24.2031 18.8256 23.7844V15.2436C18.8256 14.8248 18.486 14.485 18.0672 14.485C17.6482 14.485 17.3086 14.8248 17.3086 15.2436V23.7844C17.3085 24.2032 17.6483 24.5428 18.0672 24.5428Z" fill="#5A5A5A"/>
</svg>
