<svg width="176" height="35" viewBox="0 0 176 35" fill="none" xmlns="http://www.w3.org/2000/svg">
<path d="M2.032 8.512C2.032 6.016 4.08 4 6.64 4C7.728 4 8.688 4.24 9.44 4.864V3.328C8.608 3.136 7.856 2.832 6.56 2.832C3.232 2.832 0.704 5.376 0.704 8.512C0.704 11.632 3.232 14.176 6.56 14.176C7.776 14.176 8.608 13.936 9.552 13.648V12.144C8.832 12.768 7.808 13.04 6.656 13.04C4.08 13.04 2.032 11.008 2.032 8.512ZM10.6865 10.416C10.6865 12.464 12.3505 14.112 14.3825 14.112C16.4305 14.112 18.0945 12.464 18.0945 10.416C18.0945 8.352 16.4305 6.688 14.3825 6.688C12.3505 6.688 10.6865 8.352 10.6865 10.416ZM11.8865 10.416C11.8865 8.96 12.9905 7.776 14.3825 7.776C15.7745 7.776 16.8945 8.96 16.8945 10.416C16.8945 11.856 15.7745 13.024 14.3825 13.024C12.9905 13.024 11.8865 11.872 11.8865 10.416ZM21.4254 10.72C22.5134 10.72 23.1214 11.2 23.1214 11.904C23.1214 12.624 22.5294 13.168 21.4894 13.168C20.4974 13.168 19.7614 12.816 19.2814 12.416H19.2654V13.52C19.7454 13.68 20.4014 14.128 21.7454 14.128C23.2174 14.128 24.3374 13.312 24.3374 12C24.3374 11.024 23.5374 10.496 22.8814 10.288C23.5534 10.032 24.1614 9.472 24.1614 8.656C24.1614 7.536 23.1854 6.688 21.5854 6.688C20.3374 6.688 19.9374 7.104 19.5214 7.168V8.288C19.8254 7.952 20.5774 7.584 21.4574 7.584C22.4654 7.584 22.9614 8.096 22.9614 8.688C22.9614 9.424 22.2894 9.84 21.3134 9.84C20.9454 9.84 20.4974 9.824 20.3054 9.776V10.8C20.4974 10.752 21.0094 10.72 21.4254 10.72ZM33.4484 12.96C33.2564 12.992 32.8404 13.008 32.4404 13.008L29.8164 6.816H28.7124C28.8084 7.056 28.7924 7.264 28.7124 7.472L26.3924 13.008C26.0084 13.008 25.6244 12.992 25.3844 12.96L25.5764 16.416H26.6004L26.5364 14H32.2964L32.1684 16.416H33.1924L33.4484 12.96ZM31.1124 13.008H27.4484L29.2884 8.4L31.1124 13.008ZM36.7256 7.68C38.0856 7.68 38.5816 8.608 38.5816 9.744V10.656C38.3416 10.256 37.6376 9.936 36.8856 9.936C35.2856 9.936 34.4056 10.912 34.4056 12.096C34.4056 13.296 35.3016 14.176 36.8056 14.176C37.5576 14.176 38.2616 13.872 38.6296 13.328C38.7096 13.904 39.0936 14.176 39.5736 14.176C40.0536 14.176 40.3096 14.048 40.5176 13.904V13.12C40.4376 13.184 40.2936 13.2 40.1656 13.2C39.9416 13.2 39.7496 13.088 39.7496 12.576V9.872C39.7496 7.712 38.8536 6.688 36.9976 6.688C35.9576 6.688 35.3816 7.088 34.9336 7.168V8.416C35.3336 8 35.8776 7.68 36.7256 7.68ZM35.6376 12.032C35.6376 11.36 36.1656 10.784 37.1416 10.784C37.9576 10.784 38.6136 11.36 38.6136 12.032C38.6136 12.752 37.9576 13.312 37.1416 13.312C36.1656 13.312 35.6376 12.752 35.6376 12.032ZM43.2582 8.672C43.2582 7.952 43.2903 7.104 43.2903 6.816H41.7863C41.6743 7.088 41.4983 7.376 41.3383 7.584H42.0583C42.0583 7.92 42.0743 8.32 42.0743 8.672V12.496C42.0743 13.056 42.0423 13.712 42.0263 14H43.2903C43.2743 13.712 43.2582 13.056 43.2582 12.496V10.592H46.7783V12.496C46.7783 13.056 46.7623 13.712 46.7303 14H48.0103C47.9943 13.712 47.9623 13.056 47.9623 12.496V8.672C47.9623 8.112 47.9783 7.264 48.0103 6.816H46.7303C46.7623 7.248 46.7783 8.08 46.7783 8.672V9.712H43.2582V8.672ZM54.8389 12.48C54.8389 13.04 54.8229 13.712 54.8069 14H56.0389C56.0069 13.712 55.9909 13.04 55.9909 12.464V8.72C55.9909 8.064 56.0069 7.248 56.0389 6.688H55.6389C55.2549 7.264 54.9509 7.664 54.4389 8.304L51.3669 12.064V8.704C51.3669 8.112 51.3829 7.264 51.4149 6.816H49.9589C49.8469 7.088 49.6709 7.376 49.5109 7.584H50.1829C50.1989 7.968 50.2149 8.384 50.2149 8.704V12.656C50.2149 13.104 50.1989 13.632 50.1509 14.256H50.6469C51.1109 13.632 51.4309 13.248 51.8949 12.672L54.8389 9.04V12.48ZM64.3898 10.336C64.4058 10.288 64.4218 10.16 64.4218 10.064C64.4218 8.768 63.3498 6.704 61.1098 6.704C59.2218 6.704 57.7178 8.272 57.7178 10.432C57.7178 12.512 59.2538 14.128 61.3658 14.128C62.7258 14.128 63.2218 13.776 63.7658 13.712V12.528C63.0618 12.992 62.4538 13.12 61.5578 13.12C60.0058 13.12 58.9498 11.792 58.9978 10.336H64.3898ZM61.1098 7.632C62.2618 7.632 63.0138 8.624 63.1098 9.456H59.0298C59.2858 8.432 60.0538 7.632 61.1098 7.632ZM1.84 25.432C1.84 23.976 2.944 22.776 4.352 22.776C5.104 22.776 5.552 22.952 5.984 23.272V21.88C5.472 21.848 5.024 21.688 4.32 21.688C2.208 21.688 0.608 23.352 0.608 25.432C0.608 27.464 2.208 29.112 4.32 29.112C5.088 29.112 5.472 28.984 6.016 28.92V27.528C5.616 27.88 5.152 28.04 4.352 28.04C2.96 28.04 1.84 26.872 1.84 25.432ZM9.5225 22.68C10.8825 22.68 11.3785 23.608 11.3785 24.744V25.656C11.1385 25.256 10.4345 24.936 9.6825 24.936C8.0825 24.936 7.2025 25.912 7.2025 27.096C7.2025 28.296 8.0985 29.176 9.6025 29.176C10.3545 29.176 11.0585 28.872 11.4265 28.328C11.5065 28.904 11.8905 29.176 12.3705 29.176C12.8505 29.176 13.1065 29.048 13.3145 28.904V28.12C13.2345 28.184 13.0905 28.2 12.9625 28.2C12.7385 28.2 12.5465 28.088 12.5465 27.576V24.872C12.5465 22.712 11.6505 21.688 9.7945 21.688C8.7545 21.688 8.1785 22.088 7.7305 22.168V23.416C8.1305 23 8.6745 22.68 9.5225 22.68ZM8.4345 27.032C8.4345 26.36 8.9625 25.784 9.9385 25.784C10.7545 25.784 11.4105 26.36 11.4105 27.032C11.4105 27.752 10.7545 28.312 9.9385 28.312C8.9625 28.312 8.4345 27.752 8.4345 27.032ZM19.4951 27.48C19.4951 28.04 19.4791 28.712 19.4631 29H20.6951C20.6631 28.712 20.6471 28.04 20.6471 27.464V23.72C20.6471 23.064 20.6631 22.248 20.6951 21.688H20.2951C19.9111 22.264 19.6071 22.664 19.0951 23.304L16.0231 27.064V23.704C16.0231 23.112 16.0391 22.264 16.0711 21.816H14.6151C14.5031 22.088 14.3271 22.376 14.1671 22.584H14.8391C14.8551 22.968 14.8711 23.384 14.8711 23.704V27.656C14.8711 28.104 14.8551 28.632 14.8071 29.256H15.3031C15.7671 28.632 16.0871 28.248 16.5511 27.672L19.4951 24.04V27.48ZM16.5831 18.92H15.6551C15.6551 20.024 16.6311 20.904 17.8471 20.904C19.0951 20.904 20.0871 20.024 20.0871 18.92H19.1591C19.1591 19.592 18.5671 20.088 17.8631 20.088C17.1591 20.088 16.5831 19.592 16.5831 18.92ZM23.625 21.816C22.905 21.816 22.217 21.8 21.913 21.784V22.888C22.217 22.872 22.905 22.856 23.625 22.856H24.329V27.096C24.329 27.848 24.297 28.696 24.281 29H25.609C25.577 28.696 25.561 27.848 25.561 27.096V22.856H26.281C27.001 22.856 27.673 22.872 27.993 22.888V21.784C27.673 21.8 27.001 21.816 26.281 21.816H23.625ZM30.9444 22.68C32.3044 22.68 32.8004 23.608 32.8004 24.744V25.656C32.5604 25.256 31.8564 24.936 31.1044 24.936C29.5044 24.936 28.6244 25.912 28.6244 27.096C28.6244 28.296 29.5204 29.176 31.0244 29.176C31.7764 29.176 32.4804 28.872 32.8484 28.328C32.9284 28.904 33.3124 29.176 33.7924 29.176C34.2724 29.176 34.5284 29.048 34.7364 28.904V28.12C34.6564 28.184 34.5124 28.2 34.3844 28.2C34.1604 28.2 33.9684 28.088 33.9684 27.576V24.872C33.9684 22.712 33.0724 21.688 31.2164 21.688C30.1764 21.688 29.6004 22.088 29.1524 22.168V23.416C29.5524 23 30.0964 22.68 30.9444 22.68ZM29.8564 27.032C29.8564 26.36 30.3844 25.784 31.3604 25.784C32.1764 25.784 32.8324 26.36 32.8324 27.032C32.8324 27.752 32.1764 28.312 31.3604 28.312C30.3844 28.312 29.8564 27.752 29.8564 27.032ZM39.0886 24.744V25.768H52.9926V24.744H39.0886Z" fill="white"/>
<path d="M116.737 15.5845V7.88037H119.942C122.315 7.88037 124.064 9.31167 124.064 11.7114C124.064 14.111 122.357 15.5424 119.984 15.5424H116.737V15.5845ZM122.066 11.7535C122.066 10.5747 121.358 9.64847 119.984 9.64847H118.735V13.8584H119.984C121.275 13.8584 122.066 12.8901 122.066 11.7535Z" fill="white"/>
<path d="M124.813 11.7537C124.813 9.39609 126.562 7.79639 128.893 7.79639C131.224 7.79639 132.931 9.43819 132.931 11.7537C132.931 14.0691 131.183 15.711 128.893 15.711C126.52 15.711 124.813 14.0691 124.813 11.7537ZM130.933 11.7537C130.933 10.4907 130.142 9.52239 128.893 9.52239C127.644 9.52239 126.812 10.4907 126.812 11.7537C126.812 13.0166 127.602 13.9849 128.893 13.9849C130.1 13.9849 130.933 12.9745 130.933 11.7537Z" fill="white"/>
<path d="M138.343 15.5845L137.052 13.0164H136.053V15.5845H134.097V7.88037H137.885C139.55 7.88037 140.508 9.01697 140.508 10.4484C140.508 11.7956 139.717 12.5112 139.009 12.7638L140.549 15.5845H138.343ZM138.551 10.4484C138.551 9.94317 138.135 9.64847 137.594 9.64847H136.053V11.2904H137.594C138.093 11.2904 138.551 10.9957 138.551 10.4484Z" fill="white"/>
<path d="M141.299 11.7537C141.299 9.39609 143.047 7.79639 145.378 7.79639C147.71 7.79639 149.416 9.43819 149.416 11.7537C149.416 14.0691 147.668 15.711 145.378 15.711C143.047 15.711 141.299 14.0691 141.299 11.7537ZM147.46 11.7537C147.46 10.4907 146.669 9.52239 145.42 9.52239C144.171 9.52239 143.338 10.4907 143.338 11.7537C143.338 13.0166 144.129 13.9849 145.42 13.9849C146.627 13.9849 147.46 12.9745 147.46 11.7537Z" fill="white"/>
<path d="M155.702 15.5845V12.5112H152.539V15.5845H150.582V7.88037H152.539V10.7852H155.702V7.92247H157.659V15.5845H155.702Z" fill="white"/>
<path d="M158.825 11.7537C158.825 9.39609 160.573 7.79639 162.904 7.79639C165.236 7.79639 166.943 9.43819 166.943 11.7537C166.943 14.0691 165.194 15.711 162.904 15.711C160.573 15.711 158.825 14.0691 158.825 11.7537ZM164.944 11.7537C164.944 10.4907 164.153 9.52239 162.863 9.52239C161.614 9.52239 160.781 10.4907 160.781 11.7537C160.781 13.0166 161.572 13.9849 162.863 13.9849C164.153 13.9849 164.944 12.9745 164.944 11.7537Z" fill="white"/>
<path d="M169.857 15.5845L166.984 7.88037H169.191L171.064 13.4374L172.937 7.88037H175.144L172.271 15.5424H169.857V15.5845Z" fill="white"/>
<path d="M116.737 27.078V19.416H119.942C122.315 19.416 124.064 20.8474 124.064 23.247C124.064 25.6466 122.357 27.078 119.984 27.078H116.737ZM122.066 23.247C122.066 22.0682 121.358 21.1421 119.984 21.1421H118.735V25.3519H119.984C121.275 25.3519 122.066 24.3837 122.066 23.247Z" fill="white"/>
<path d="M125.229 27.078V19.416H130.766V21.1421H127.144V22.3208H130.683V24.0469H127.144V25.3519H130.766V27.078H125.229Z" fill="white"/>
<path d="M131.64 26.0253L132.681 24.5518C133.222 25.0991 134.055 25.5622 135.096 25.5622C135.762 25.5622 136.178 25.3096 136.178 24.9307C136.178 23.8782 131.89 24.7202 131.89 21.7733C131.89 20.4682 132.972 19.3315 134.929 19.3315C136.136 19.3315 137.219 19.7104 138.01 20.384L136.927 21.8154C136.303 21.2681 135.47 21.0155 134.721 21.0155C134.138 21.0155 133.888 21.226 133.888 21.5628C133.888 22.5311 138.176 21.8154 138.176 24.6781C138.176 26.2357 137.052 27.2461 135.012 27.2461C133.472 27.2461 132.39 26.7409 131.64 26.0253Z" fill="white"/>
<path d="M139.3 27.078V19.416H141.257V27.078H139.3Z" fill="white"/>
<path d="M142.423 23.2467C142.423 20.805 144.254 19.2896 146.544 19.2896C148.251 19.2896 149.25 20.2156 149.791 21.1418L148.168 21.9837C147.876 21.4785 147.293 21.0154 146.544 21.0154C145.295 21.0154 144.421 21.9839 144.421 23.2467C144.421 24.5097 145.295 25.4781 146.544 25.4781C147.085 25.4781 147.668 25.2675 147.959 25.0149V24.4254H146.253V22.6996H149.916V25.7728C149.083 26.699 148.001 27.2882 146.544 27.2882C144.296 27.2462 142.423 25.6885 142.423 23.2467Z" fill="white"/>
<path d="M156.452 27.078L153.246 22.6576V27.1201H151.29V19.416H153.288L156.369 23.6259V19.416H158.325V27.078H156.452Z" fill="white"/>
<path d="M88.8867 0.89209H75.8982V34.0239H88.9699C99.9602 34.0239 107.037 27.4986 107.037 17.4369C106.996 7.37529 99.9186 0.89209 88.8867 0.89209ZM88.5536 27.3723H82.7671V8.00679H88.6369C95.4226 8.00679 100.168 10.7011 100.168 17.479C100.168 22.9098 95.8388 27.3723 88.5536 27.3723Z" fill="white"/>
<path d="M89.8859 13.522H88.3872V21.3945H89.8859C92.8416 21.3945 94.59 19.5842 94.59 17.353C94.5484 14.6165 92.6334 13.522 89.8859 13.522Z" fill="white"/>
</svg>
