<svg width="29" height="29" viewBox="0 0 29 29" fill="none" xmlns="http://www.w3.org/2000/svg">
<path d="M24.7531 4.24692C22.0143 1.5083 18.3731 0 14.5 0C10.6269 0 6.98565 1.5083 4.24692 4.24692C1.5083 6.98565 0 10.6269 0 14.5C0 18.3731 1.5083 22.0143 4.24692 24.7531C6.98565 27.4917 10.6269 29 14.5 29C16.4571 29 18.3562 28.6165 20.1444 27.8602L19.4455 26.208C17.8797 26.8704 16.2157 27.2062 14.5 27.2062C7.49378 27.2062 1.79381 21.5062 1.79381 14.5C1.79381 7.49378 7.49378 1.79381 14.5 1.79381C21.5062 1.79381 27.2062 7.49378 27.2062 14.5C27.2062 17.5688 25.3206 18.9665 23.5687 18.9665C21.8168 18.9665 19.9313 17.5689 19.9313 14.5C19.9313 11.5052 17.4948 9.06875 14.5 9.06875C11.5052 9.06875 9.06875 11.5052 9.06875 14.5C9.06875 17.4948 11.5052 19.9313 14.5 19.9313C16.2732 19.9313 17.8505 19.077 18.8423 17.7586C19.0964 18.2715 19.416 18.7354 19.8014 19.1407C20.7948 20.1851 22.1327 20.7603 23.5687 20.7603C25.0048 20.7603 26.3426 20.1851 27.336 19.1407C28.4246 17.9961 29 16.3914 29 14.5C29 10.6269 27.4917 6.98565 24.7531 4.24692ZM14.5 18.1374C12.4943 18.1374 10.8626 16.5057 10.8626 14.5C10.8626 12.4943 12.4943 10.8626 14.5 10.8626C16.5057 10.8626 18.1374 12.4943 18.1374 14.5C18.1374 16.5057 16.5057 18.1374 14.5 18.1374Z" fill="white"/>
</svg>
