<svg width="12" height="20" viewBox="0 0 12 20" fill="none" xmlns="http://www.w3.org/2000/svg">
<path d="M5.99986 19.68C5.3676 19.68 4.7488 19.424 4.30221 18.9783C3.85507 18.5251 3.59991 17.9068 3.59991 17.2801C3.59991 16.6533 3.85507 16.0351 4.29974 15.5846C4.75484 15.135 5.37309 14.8801 5.99986 14.8801C6.62663 14.8801 7.24488 15.135 7.69531 15.58C8.14492 16.0359 8.39981 16.6539 8.39981 17.2801C8.39981 17.9063 8.14492 18.524 7.69998 18.9755C7.56705 19.1016 7.45224 19.1952 7.33634 19.2746C7.19489 19.365 7.05893 19.4358 6.91913 19.4938C6.7678 19.5572 6.61454 19.6039 6.46485 19.6331C6.29896 19.6646 6.14708 19.68 5.99986 19.68ZM5.99986 15.8401C5.62358 15.8401 5.25142 15.9941 4.97841 16.2633C4.71419 16.5314 4.55984 16.9035 4.55984 17.2801C4.55984 17.6564 4.71419 18.0285 4.98308 18.3015C5.2484 18.5663 5.62029 18.7201 5.99986 18.7201C6.0861 18.7201 6.17894 18.7102 6.2844 18.6902C6.36872 18.674 6.45799 18.6465 6.54917 18.608C6.63926 18.5704 6.7255 18.5254 6.8079 18.4735C6.87876 18.4243 6.95566 18.3586 7.02872 18.2892C7.2858 18.0285 7.43988 17.6561 7.43988 17.2801C7.43988 16.9041 7.2858 16.5314 7.01664 16.2586C6.74857 15.9941 6.37641 15.8401 5.99986 15.8401Z" fill="#5A5A5A"/>
<path d="M5.99986 14.3999C4.67684 14.3999 3.59992 13.3233 3.59992 12V9.60005C3.59992 8.27676 4.67684 7.20011 5.99986 7.20011C6.66178 7.20011 7.19984 6.66206 7.19984 6.00014C7.19984 5.33822 6.66178 4.80016 5.99986 4.80016C5.33794 4.80016 4.79989 5.33822 4.79989 6.00014C4.79989 7.32316 3.72324 8.40008 2.39995 8.40008C1.07665 8.40008 0 7.32316 0 6.00014C0 2.69163 2.69163 0 5.99986 0C9.30837 0 12 2.69163 12 6.00014C12 8.38141 10.5666 10.5498 8.39981 11.4988V12C8.39981 13.3233 7.32316 14.3999 5.99986 14.3999ZM5.99986 3.83997C7.19105 3.83997 8.16003 4.80895 8.16003 6.00014C8.16003 7.19105 7.19105 8.16003 5.99986 8.16003C5.20583 8.16003 4.55984 8.80602 4.55984 9.60005V12C4.55984 12.794 5.20583 13.44 5.99986 13.44C6.79389 13.44 7.43988 12.794 7.43988 12V11.1755C7.43988 10.975 7.56458 10.7954 7.75244 10.7256C9.71898 9.99364 11.0398 8.09494 11.0398 6.00014C11.0398 3.22089 8.77911 0.960198 5.99986 0.960198C3.22089 0.960198 0.959923 3.22089 0.959923 6.00014C0.959923 6.79417 1.60591 7.44016 2.39995 7.44016C3.19398 7.44016 3.83997 6.79417 3.83997 6.00014C3.83997 4.80895 4.80895 3.83997 5.99986 3.83997Z" fill="#5A5A5A"/>
</svg>
