<svg width="18" height="18" viewBox="0 0 18 18" fill="none" xmlns="http://www.w3.org/2000/svg">
<path d="M15.364 2.63602C13.6641 0.936186 11.404 0 9 0C6.59602 0 4.33592 0.936186 2.63602 2.63602C0.936186 4.33592 0 6.59602 0 9C0 11.404 0.936186 13.6641 2.63602 15.364C4.33592 17.0638 6.59602 18 9 18C10.2148 18 11.3935 17.762 12.5034 17.2925L12.0696 16.2671C11.0977 16.6782 10.0649 16.8866 9 16.8866C4.65131 16.8866 1.1134 13.3487 1.1134 9C1.1134 4.65131 4.65131 1.1134 9 1.1134C13.3487 1.1134 16.8866 4.65131 16.8866 9C16.8866 10.9048 15.7163 11.7723 14.6288 11.7723C13.5415 11.7723 12.3711 10.9048 12.3711 9C12.3711 7.14114 10.8589 5.62888 9 5.62888C7.14114 5.62888 5.62888 7.14118 5.62888 9C5.62888 10.8588 7.14114 12.3711 9 12.3711C10.1006 12.3711 11.0796 11.8409 11.6952 11.0226C11.8529 11.3409 12.0513 11.6289 12.2905 11.8804C12.9071 12.5287 13.7375 12.8857 14.6288 12.8857C15.5202 12.8857 16.3506 12.5287 16.9672 11.8804C17.6429 11.17 18 10.174 18 9C18 6.59602 17.0638 4.33592 15.364 2.63602ZM9 11.2577C7.75511 11.2577 6.74228 10.2449 6.74228 9C6.74228 7.75511 7.75511 6.74228 9 6.74228C10.2449 6.74228 11.2577 7.75511 11.2577 9C11.2577 10.2449 10.2449 11.2577 9 11.2577Z" fill="#5A5A5A"/>
</svg>
