<svg width="29" height="29" viewBox="0 0 29 29" fill="none" xmlns="http://www.w3.org/2000/svg">
<g clip-path="url(#clip0)">
<path d="M5.90934 19.2772C8.76968 22.6964 12.2129 25.3885 16.1429 27.2934C17.6391 28.0025 19.6402 28.8438 21.8696 28.988C22.0078 28.994 22.14 29 22.2782 29C23.7744 29 24.9763 28.4832 25.9558 27.4196C25.9618 27.4136 25.9738 27.4016 25.9798 27.3896C26.3283 26.9689 26.7249 26.5903 27.1395 26.1877C27.422 25.9173 27.7104 25.6349 27.9868 25.3465C29.2668 24.0124 29.2668 22.3179 27.9748 21.0259L24.3633 17.4144C23.7504 16.7775 23.0173 16.4409 22.2481 16.4409C21.479 16.4409 20.7398 16.7775 20.1089 17.4084L17.9576 19.5597C17.7593 19.4455 17.555 19.3433 17.3627 19.2472C17.1223 19.127 16.9 19.0128 16.7017 18.8867C14.7427 17.6428 12.964 16.0203 11.2635 13.9351C10.4042 12.8475 9.82728 11.9341 9.42467 11.0027C9.98953 10.4919 10.5183 9.95711 11.0291 9.43431C11.2094 9.24803 11.3957 9.06175 11.5819 8.87547C12.2309 8.22648 12.5795 7.47534 12.5795 6.71218C12.5795 5.94903 12.2369 5.19789 11.5819 4.5489L9.79123 2.75818C9.58091 2.54787 9.38261 2.34356 9.1783 2.13324C8.78169 1.72462 8.36707 1.30398 7.95845 0.925404C7.33951 0.318483 6.6124 0 5.84324 0C5.08008 0 4.34697 0.318483 3.70399 0.931413L1.45658 3.17882C0.63934 3.99606 0.176638 4.98757 0.080492 6.13531C-0.0336812 7.57149 0.23072 9.0978 0.915759 10.9426C1.96736 13.7969 3.55376 16.447 5.90934 19.2772ZM1.54672 6.2615C1.61883 5.46229 1.92529 4.79528 2.50217 4.2184L4.73756 1.98301C5.08609 1.6465 5.47067 1.47223 5.84324 1.47223C6.20979 1.47223 6.58236 1.6465 6.92488 1.99503C7.32749 2.36759 7.70606 2.75818 8.11468 3.17281C8.31899 3.38313 8.52931 3.59345 8.73963 3.80978L10.5303 5.6005C10.9029 5.97306 11.0952 6.35164 11.0952 6.7242C11.0952 7.09677 10.9029 7.47534 10.5303 7.84791C10.3441 8.03419 10.1578 8.22648 9.9715 8.41276C9.41265 8.97762 8.88986 9.51243 8.31298 10.0232C8.30097 10.0352 8.29496 10.0412 8.28294 10.0533C7.78418 10.552 7.8623 11.0267 7.98248 11.3873C7.98849 11.4053 7.9945 11.4173 8.00051 11.4354C8.46321 12.547 9.10619 13.6046 10.1097 14.8666C11.9124 17.0899 13.8113 18.8145 15.9025 20.1426C16.1609 20.3108 16.4373 20.443 16.6957 20.5752C16.9361 20.6954 17.1584 20.8096 17.3567 20.9358C17.3807 20.9478 17.3988 20.9598 17.4228 20.9718C17.6211 21.074 17.8134 21.122 18.0057 21.122C18.4864 21.122 18.7989 20.8156 18.901 20.7134L21.1485 18.466C21.497 18.1175 21.8756 17.9312 22.2481 17.9312C22.7048 17.9312 23.0774 18.2136 23.3117 18.466L26.9352 22.0835C27.6563 22.8046 27.6503 23.5858 26.9172 24.3489C26.6648 24.6194 26.4004 24.8777 26.118 25.1482C25.6974 25.5568 25.2587 25.9774 24.8621 26.4521C24.171 27.1973 23.3478 27.5458 22.2842 27.5458C22.182 27.5458 22.0739 27.5398 21.9717 27.5338C20.0007 27.4076 18.1679 26.6384 16.7918 25.9834C13.0542 24.1747 9.7732 21.6088 7.05107 18.3518C4.80967 15.6537 3.30138 13.1419 2.30387 10.4499C1.68493 8.79735 1.45057 7.46933 1.54672 6.2615Z" fill="#5A5A5A"/>
</g>
<defs>
<clipPath id="clip0">
<rect width="29" height="29" fill="white"/>
</clipPath>
</defs>
</svg>
