<svg width="18" height="18" viewBox="0 0 18 18" fill="none" xmlns="http://www.w3.org/2000/svg">
<g clip-path="url(#clip0)">
<path d="M17.2969 8.04688H9.95312V0.703125C9.95312 0.176718 9.52641 -0.25 9 -0.25C8.47359 -0.25 8.04688 0.176718 8.04688 0.703125V8.04688H0.703125C0.176718 8.04688 -0.25 8.47359 -0.25 9C-0.25 9.52641 0.176718 9.95312 0.703125 9.95312H8.04688V17.2969C8.04688 17.8233 8.47359 18.25 9 18.25C9.52641 18.25 9.95312 17.8233 9.95312 17.2969V9.95312H17.2969C17.8233 9.95312 18.25 9.52641 18.25 9C18.25 8.47359 17.8233 8.04688 17.2969 8.04688Z" fill="#FDCD47" stroke="#FDCD47" stroke-width="0.5"/>
</g>
<defs>
<clipPath id="clip0">
<rect width="18" height="18" fill="white"/>
</clipPath>
</defs>
</svg>
