<svg width="14" height="14" viewBox="0 0 14 14" fill="none" xmlns="http://www.w3.org/2000/svg">
<path d="M7.87866 8.72813C10.2929 8.72813 12.2427 6.7742 12.2427 4.36406C12.2427 1.9577 10.285 0 7.87866 0H3.48542C3.2589 0 3.07526 0.183641 3.07526 0.410156V6.15051H2.16745C1.94093 6.15051 1.75729 6.33415 1.75729 6.56067V8.31797C1.75729 8.54449 1.94093 8.72813 2.16745 8.72813H3.07526V9.66511H2.16745C1.94093 9.66511 1.75729 9.84875 1.75729 10.0753V11.8326C1.75729 12.0591 1.94093 12.2427 2.16745 12.2427H3.07526V13.5898C3.07526 13.8164 3.2589 14 3.48542 14H5.24272C5.46924 14 5.65288 13.8164 5.65288 13.5898V12.2427H8.31796C8.54448 12.2427 8.72812 12.0591 8.72812 11.8325V10.0752C8.72812 9.84873 8.54448 9.66509 8.31796 9.66509H5.65285V8.72813H7.87866ZM5.65285 2.57761H7.87863C8.86366 2.57761 9.66508 3.37903 9.66508 4.36406C9.66508 5.34909 8.86366 6.15051 7.87863 6.15051H5.65285V2.57761Z" fill="#363636"/>
</svg>
