<svg width="9" height="13" viewBox="0 0 9 13" fill="none" xmlns="http://www.w3.org/2000/svg">
<path d="M1.55548 12.0628L1.55489 9.88676L0.162894 9.88713L0.162616 8.84713L1.55462 8.84676L1.55424 7.42276L0.162236 7.42313L0.16191 6.20713L1.55391 6.20676L1.55242 0.638756L4.56042 0.637951C5.95775 0.637577 6.9925 0.919968 7.66465 1.48512C8.34747 2.05027 8.68902 2.87151 8.68931 3.94885C8.6896 5.03685 8.32183 5.89028 7.58599 6.50914C6.85015 7.11734 5.76757 7.42163 4.33824 7.42201L2.99424 7.42237L2.99462 8.84637L5.63462 8.84566L5.63489 9.88566L2.99489 9.88637L2.99548 12.0624L1.55548 12.0628ZM2.99391 6.20637L4.12991 6.20607C5.10058 6.20581 5.85253 6.04561 6.38578 5.72546C6.9297 5.40532 7.20154 4.82925 7.20132 3.99725C7.20113 3.27191 6.97698 2.73331 6.52889 2.38143C6.08079 2.02955 5.38208 1.85373 4.43275 1.85399L2.99275 1.85437L2.99391 6.20637Z" fill="#262626"/>
</svg>
