<svg width="607" height="454" fill="none" xmlns="http://www.w3.org/2000/svg"><path d="M11.257 242.772l-1.548-1.267-.452.553v.714h2zm0 20.672h-2v2.058l2.057-.059-.057-1.999zm88.825-.323h2v-2h-2v2zM99.112 319l-1.985-.238L96.86 321h2.254v-2zm47.805 0v2h2.089l-.091-2.087-1.998.087zm-.646-55.879v-2h-2v2h2zm34.884.646l-.16 1.994 2.16.172v-2.166h-2zm0-35.53h2v-2.181l-2.173.189.173 1.992zm-34.884.969h-2v2h2v-2zm.323-130.815l1.998.077.08-2.077h-2.078v2zm-17.119 0v-2h-.947l-.601.733 1.548 1.267zm-29.393 79.458h2v-6.051l-3.606 4.859 1.606 1.192zm0 51.357v2h2v-2h-2zm-38.114 0l-1.606-1.192-2.369 3.192h3.975v-2zM9.257 242.772v20.672h4v-20.672h-4zm2.057 22.671c11.27-.322 29.002-.322 40.318-.322v-4c-11.294 0-29.092 0-40.432.324l.114 3.998zm40.318-.322h48.45v-4h-48.45v4zm46.45-2v26.809h4v-26.809h-4zm0 26.809c0 11.345-.003 20.901-.955 28.832l3.972.476c.986-8.219.983-18.043.983-29.308h-4zm1.03 31.07h47.805v-4H99.113v4zm49.803-2.087a667.54 667.54 0 01-.644-28.983h-4c0 11.665.324 21.708.648 29.157l3.996-.174zm-.644-28.983v-26.809h-4v26.809h4zm-2-24.809c14.897 0 26.749.002 34.724.64l.319-3.988c-8.174-.654-20.224-.652-35.043-.652v4zm36.884-1.354v-35.53h-4v35.53h4zm-2.173-37.522c-7.338.638-18.893.961-34.711.961v4c15.836 0 27.537-.323 35.057-.977l-.346-3.984zm-32.711 2.961v-92.378h-4v92.378h4zm0-92.378c0-13.911 0-30.011.321-38.36l-3.997-.154c-.324 8.447-.324 24.647-.324 38.514h4zm-1.677-40.437h-17.119v4h17.119v-4zm-18.667.733L9.709 241.505l3.095 2.534L131.022 99.658l-3.095-2.534zm-29.845 80.725v51.357h4v-51.357h-4zm2 49.357H61.968v4h38.114v-4zm-36.508 3.192l38.114-51.357-3.212-2.384-38.114 51.357 3.212 2.384zm159.784-19.603c0 31.259 6.751 59.614 20.105 80.223 13.402 20.681 33.459 33.535 59.738 33.535v-4c-24.755 0-43.62-12.017-56.381-31.711-12.809-19.766-19.462-47.29-19.462-78.047h-4zm79.843 113.758c26.434 0 46.652-12.847 60.177-33.528 13.478-20.609 20.312-48.967 20.312-80.23h-4c0 30.753-6.733 58.274-19.659 78.04-12.88 19.694-31.907 31.718-56.83 31.718v4zm80.489-113.758c0-31.263-6.834-59.463-20.316-79.913-13.531-20.524-33.75-33.199-60.173-33.199v4c24.934 0 43.959 11.873 56.834 31.401 12.923 19.602 19.655 46.958 19.655 77.711h4zM303.201 97.683c-26.269 0-46.327 12.682-59.734 33.206-13.358 20.45-20.109 48.647-20.109 79.906h4c0-30.757 6.653-58.116 19.458-77.718 12.756-19.528 31.62-31.394 56.385-31.394v-4zm-28.685 113.112c0-21.058 2.338-38.774 7.209-51.149 4.872-12.377 12.014-18.88 21.476-18.88v-4c-11.857 0-20.057 8.355-25.198 21.415-5.141 13.06-7.487 31.359-7.487 52.614h4zm28.685-70.029c9.796 0 17.013 6.599 21.879 18.999 4.871 12.414 7.129 30.127 7.129 51.03h4c0-21.087-2.264-39.388-7.406-52.491-5.147-13.118-13.434-21.538-25.602-21.538v4zm29.008 70.029c0 21.066-2.258 38.86-7.13 51.315-4.866 12.44-12.084 19.037-21.878 19.037v4c12.17 0 20.456-8.422 25.603-21.58 5.141-13.143 7.405-31.525 7.405-52.772h-4zm-29.008 70.352c-9.46 0-16.603-6.502-21.475-18.918s-7.21-30.213-7.21-51.434h-4c0 21.415 2.346 39.794 7.486 52.895 5.141 13.101 13.341 21.457 25.199 21.457v-4zm123.338-38.375l-1.547-1.267-.453.553v.714h2zm0 20.672h-2v2.058l2.057-.059-.057-1.999zm88.825-.323h2v-2h-2v2zM514.395 319l-1.986-.238-.268 2.238h2.254v-2zm47.804 0v2h2.089l-.091-2.087-1.998.087zm-.646-55.879v-2h-2v2h2zm34.884.646l-.159 1.994 2.159.172v-2.166h-2zm0-35.53h2v-2.181l-2.173.189.173 1.992zm-34.884.969h-2v2h2v-2zm.323-130.815l1.999.077.079-2.077h-2.078v2zm-17.119 0v-2h-.947l-.6.733 1.547 1.267zm-29.393 79.458h2v-6.051l-3.606 4.859 1.606 1.192zm0 51.357v2h2v-2h-2zm-38.114 0l-1.606-1.192-2.369 3.192h3.975v-2zm-52.711 13.566v20.672h4v-20.672h-4zm2.057 22.671c11.27-.322 29.002-.322 40.318-.322v-4c-11.294 0-29.092 0-40.432.324l.114 3.998zm40.318-.322h48.45v-4h-48.45v4zm46.45-2v26.809h4v-26.809h-4zm0 26.809c0 11.345-.003 20.901-.955 28.832l3.972.476c.986-8.219.983-18.043.983-29.308h-4zm1.031 31.07h47.804v-4h-47.804v4zm49.802-2.087a667.54 667.54 0 01-.644-28.983h-4c0 11.665.324 21.708.648 29.157l3.996-.174zm-.644-28.983v-26.809h-4v26.809h4zm-2-24.809c14.897 0 26.749.002 34.725.64l.319-3.988c-8.175-.654-20.225-.652-35.044-.652v4zm36.884-1.354v-35.53h-4v35.53h4zm-2.173-37.522c-7.338.638-18.893.961-34.711.961v4c15.836 0 27.537-.323 35.057-.977l-.346-3.984zm-32.711 2.961v-92.378h-4v92.378h4zm0-92.378c0-13.911 0-30.011.322-38.36l-3.997-.154c-.325 8.447-.325 24.647-.325 38.514h4zm-1.677-40.437h-17.119v4h17.119v-4zm-18.666.733L424.992 241.505l3.094 2.534L546.305 99.658l-3.095-2.534zm-29.846 80.725v51.357h4v-51.357h-4zm2 49.357H477.25v4h38.114v-4zm-36.508 3.192l38.114-51.357-3.212-2.384-38.114 51.357 3.212 2.384z" fill="#55A865" fill-opacity=".34"/><path d="M287.825 57.16s-18-3.5-21.5-18.7-4.7-20.8-4.7-20.8 11.1-1.5 21.3 8.7c10.1 10.1 9.2 28.9 4.9 30.8z" fill="#C0D23F"/><path d="M287.826 57.76h-.1c-.2 0-18.5-3.8-22.1-19.2-3.5-15-4.7-20.8-4.7-20.8 0-.2 0-.4.1-.5.1-.1.3-.2.4-.3 0 0 .6-.1 1.6-.1 3.4 0 12.1.9 20.2 9 7.9 7.9 9 20 7.8 26.3-.6 3-1.6 5-3 5.6h-.2zm-25.5-39.6c.4 1.9 1.8 8 4.6 20.1 3.2 13.7 18.8 17.8 20.8 18.2.9-.6 1.7-2.2 2.1-4.6 1.1-6 0-17.7-7.5-25.2-8.4-8.4-17.5-8.6-20-8.5z" fill="#84A42E"/><path opacity=".4" d="M287.627 33.26c.3 2.5.4 5.2-.8 7.4 0 .1-.2 0-.2 0-1.2-1.4-1.4-3.1-1.7-4.9-.1-.9-.3-1.9-.6-2.8-.5-1.1-1.4 1.2-1.6 1.6 0 .1-.2.1-.2 0-.7-1.8-.4-3.7-.8-5.5-.1-.2-.6-1.1-.5-1.3-.1.4-.1.7-.1 1.1 0 .8-.1 1.5-.3 2.2 0 .1-.2 0-.2 0-2.2-3.6-3.9-8-6.7-11.2-6.7-3-12.2-2.3-12.2-2.3s1.2 5.6 4.7 20.8c3.5 15.2 21.5 18.7 21.5 18.7 3.3-1.5 4.6-13.7-.3-23.8z" fill="#98C22E"/><path d="M302.126.56s-18 9.6-16.5 23.3c.8 6.9 6.4 30.2 6.4 30.2s17.5-25 13.5-39.1c-3.4-9.2-4.7-12.7-3.4-14.4z" fill="#C0D23F"/><path d="M292.026 54.76h-.1c-.2-.1-.4-.2-.5-.5-.2-1-5.6-23.4-6.4-30.3-1.5-14 16.1-23.5 16.9-23.9.3-.1.6-.1.8.2.2.2.2.6 0 .8-1.1 1.4.3 5.1 3.3 13.3l.2.6c4 14.2-12.9 38.6-13.6 39.7-.2 0-.4.1-.6.1zm9-52.8c-4.2 2.6-15.9 11-14.7 21.8.7 5.8 4.8 23.6 6 28.7 3.4-5.1 16-25.5 12.6-37.3l-.2-.5c-2.6-7-3.8-10.5-3.7-12.7z" fill="#84A42E"/><path opacity=".4" d="M301.626 2.36c-1.2 1.1-2.3 2.2-3.2 3.5-2.3 3.1-2.6 7.1-4.9 10.2 0 .1-.2.1-.2 0-.3-.7-.3-1.4-.4-2.2 0-.5 0-1-.1-1.5 0-.2-.4-1.3-.5-1.2-1.1 1.3-1 3.6-1.1 5.3-.1 2.2 0 4.3-.3 6.5-.1 1.2-.3 2.8-1.5 3.5-.8.4-1.8.1-2.4-.5-.9-1-1-2.6-1-3.9 0-1.9.2-3.8.6-5.6-1 2.4-1.5 5-1.2 7.7.8 6.9 6.4 30.2 6.4 30.2s17.5-25 13.5-39.1c-2.3-7.1-3.7-10.8-3.7-12.9z" fill="#98C22E"/><path opacity=".5" d="M280.526 37.76c-2.9-4.7-8.3-7.4-13.4-9.1-.1 0-.2.2-.2.3 5 2.4 9.5 5.1 13.3 9.2.1 0 .3-.3.3-.4zm3.2 8.4c-2.4-2-5.2-3.4-8.1-4.4-.1 0-.3.3-.2.3 2.8 1.3 5.3 3 7.9 4.7.2.1.6-.4.4-.6zm.9-12.5c0-.2-.1-.1-.2 0-.8 2.2-1.3 4.5-.7 6.8.1.3.5-.1.4-.3-.2-2.2-.1-4.4.5-6.5zm-4.501-2.8c-.3-1.2-.1-2.4-.3-3.6 0-.1-.2.1-.2.2.1 1.5-.1 2.8.2 4.2.3 1.1.7 2.2 1.2 3.2.1.2.4-.2.4-.4-.5-1.2-1-2.3-1.3-3.6zm18.202-9.4c-2.3 2-5 3.9-6 7-.1.3.2.2.3 0 1.3-2.8 3.5-4.9 5.7-7 .1.1.1 0 0 0zm-6.501-7.2c0-.2-.3.1-.2.2.4 1.9.6 3.9 1.1 5.8.1.3.4-.1.4-.3-.2-1.9-.8-3.8-1.3-5.7zm6.8 2c-.9.5-1.8.8-2.4 1.7-.8 1-1.3 2.2-1.9 3.3-.2.4.3.4.4.1.4-.9.8-1.8 1.3-2.6.7-1.1 1.7-1.6 2.6-2.5 0 .1 0 0 0 0z" fill="#84A42E"/><path d="M290.026 63.66s-8.6-35.3-25.7-44.9c16.4 8.7 24.1 30.4 26.3 41.3l-.6 3.6z" fill="#C0D23F"/><path d="M290.027 64.26c-.3 0-.6-.2-.6-.5-.1-.4-8.7-35.1-25.4-44.5-.3-.2-.4-.6-.2-.9.2-.3.6-.4.9-.3 19.8 10.5 26 38.6 26.6 41.8v.2l-.6 3.5c-.1.5-.4.7-.7.7zm-13.2-33.8c7.1 10.7 11.4 24.2 13 30.1l.1-.5c-.5-2.6-3.9-17.7-13.1-29.6z" fill="#5F8533"/><path d="M292.227 56.26s-4.2-28.6 8.3-49.1c-10.4 10.2-13.5 32.9-9.1 51.2l.8-2.1z" fill="#C0D23F"/><path d="M291.527 59.06c-.3 0-.6-.2-.6-.5-4.8-19.6-.8-41.9 9.2-51.8.2-.2.6-.3.8-.1.3.2.3.6.1.8-12.2 20-8.3 48.4-8.2 48.6v.3l-.7 2.1c-.1.4-.4.6-.6.6zm5.2-45.9c-6.1 10.4-8.3 26.9-5.3 42.3-.4-4.5-2.2-24.9 5.3-42.3z" fill="#5F8533"/><path d="M312.925 185.86c-8.2-5.1-6.7-17.7-2.4-24.4 5.4-8.4 15.1-14.3 24.5-17.2 6.5-2 13.9-2.9 20.7-2.5 27 1.8 34-.7 34-.7s-3.6 6.4-5.4 14.4c-1.9 8-3.1 27-16.5 42.4-13.4 15.4-29.6 17.6-40.4 11.9-10.8-5.7-11.7-14.2-11.9-18.3-.4-4.2-2.6-5.6-2.6-5.6z" fill="#86B133"/><path d="M339.325 213.16c-4.4 0-8.6-1-12.2-2.9-11.4-6-12-15.3-12.3-18.9-.3-3.7-2.2-5-2.3-5-2.9-1.8-4.9-4.8-5.7-8.5-1.4-6.1.6-12.9 3.1-16.8 5-7.8 14.1-14.1 24.9-17.5 6.6-2 14.3-2.9 20.9-2.5 6.5.4 12.4.7 17.5.7 12.4 0 16.2-1.3 16.3-1.3.2-.1.5 0 .7.2.2.2.2.5.1.7 0 .1-3.5 6.4-5.3 14.2-.3 1.3-.6 2.9-.9 4.8-1.7 9.3-4.5 24.9-15.7 37.9-8.6 9.6-18.9 14.9-29.1 14.9zm-26.1-27.9s2.6 1.5 2.9 6c.3 3.6.8 12.2 11.6 17.8 3.4 1.8 7.5 2.8 11.6 2.8 9.9 0 19.8-5.2 28-14.6 11-12.7 13.8-28.1 15.4-37.2.3-1.9.6-3.5.9-4.9 1.4-5.9 3.7-11 4.8-13.3-2.1.4-6.6 1.1-15.3 1.1-5.1 0-11-.2-17.6-.7-6.5-.4-14 .5-20.5 2.4-10.5 3.2-19.3 9.4-24.2 16.9-2.4 3.7-4.3 10.1-3 15.9 1 3.6 2.7 6.2 5.4 7.8z" fill="#528C45"/><path opacity=".5" d="M386.226 144.26c-4.3 1.3-8.8 2.5-13.2 3.5-4.7 1.1-9.3 3.9-14.2 2.7-.1 0-.1-.2-.1-.2.5-.6.6-1.3 1-1.9.2-.3-.8-.3-1-.3-1.2 0-2.4.3-3.5.9-2.1 1.2-3.7 2.9-5.4 4.5-1.6 1.4-3.4 2.8-5.4 3.5-.8.3-1.9.6-2.5-.2-.7-.9-.2-2.4.1-3.4.5-1.8 1.4-3.5 2.3-5 .2-.4-.5 0-.7 0-.3.1-.5.1-.8.2-.5.2-1 .4-1.4.7-1 .6-1.8 1.4-2.6 2.3-1.7 1.9-2.9 4.2-4.2 6.3-1.1 1.9-2.3 4-3.9 5.6-1.3 1.4-3.7 3.1-5.7 2.6-1.9-.4-2.5-2.4-2.5-4.2.1-2.6 1.8-5 3.3-7 1-1.3 2-2.5 2.7-3.9-.3.6-1.1 1-1.6 1.5-.6.6-1.2 1.1-1.8 1.7-2.4 2.6-4.5 5.7-5.8 9.1-.5 1.3-3.2 12.4-6.2 8.6-3.1-4-2.2-9.5-.4-13.8v-.1c-.9 1-1.7 2.1-2.4 3.2-4.3 6.7-5.8 19.3 2.4 24.4 0 0 2.3 1.4 2.6 5.5.3 4.1 1.1 12.7 11.9 18.3 10.8 5.7 27 3.4 40.4-11.9 13.4-15.4 14.7-34.4 16.5-42.4 1.1-4.9 2.9-9.1 4.1-11.7-.6.5-1.3.7-2 .9z" fill="#86B133"/><path opacity=".5" d="M384.225 144.86c-.8.8-1.5 1.6-2.1 2.6-2.6 4.3-3.4 9.1-4.9 13.8-2.9 9.7-5.9 19.7-11.7 28.1-2.6 3.8-5.8 7.2-9.7 9.6-4.2 2.6-9 3.8-13.9 3.9-4.3.1-9.5-.2-12.6-3.6-2.2-2.4-3.5-6.2-2.1-9.4 1.6-3.6 5.6-4.5 9.1-3.8 2.4.4 4.7 1.1 7.1 1.6 2.5.5 5.6 1.2 8 .1.6-.3 1.2-.6 1.6-1.1.5-.5.5-.5-.2-.6l-3-.3c-2.4-.2-4.9-.4-7.2-.9-3-.7-8.6-2.9-6.6-7.1 1-2.1 3.1-3.5 5.1-4.5 1.9-1 4-1.9 6.2-2.3 5.6-1 11.4.3 17-.8 1.5-.3 2.9-.7 4.2-1.4.6-.3 1.1-.6 1.6-1 .3-.3.7-.6 1-.9.4-.4.2-.2-.3-.1-3.6.7-7.2 1.4-10.9 1.3-1.4 0-11.5-1.1-7.7-4.6 1.7-1.6 4.6-2.3 6.8-2.7 2.7-.4 5.4-.5 8.1-.7 2.7-.2 5.6-.5 8-1.7.6-.3 1.2-.6 1.7-1 .3-.2.6-.4.8-.7.1-.1.5-.2.3-.2-.8 0-1.6.1-2.3.1-1.6.1-8.1 1.1-8.1-1.9 0-1.5 2.1-2.3 3.2-2.8 2.1-1 4.3-1.8 6.3-2.9.2-.1.4-.2.6-.4-.3.2-1.1.1-1.4.1-.9.1-1.8.1-2.7.2-1.8.2-3.5.3-5.2.6-.1 0-.2 0-.3.1-2.4.8-4.9 1.5-7.4 1.4-.8.2-1.6.3-2.4.6-3.1.8-6.1 1.8-9.1 2.9-1.4 1.2-2.9 2.3-4.6 2.9-.7.2-1.5.4-2.2.1-1.3.6-2.6 1.3-3.8 2-5.7 3.2-11.5 7.2-15.9 12.2-1.6 1.8-3.1 3.8-4.8 5.5-1.4 1.5-3.1 3.1-5.1 3.7-1.8.5-3.4-.1-4.7-1.2.9 2.6 2.5 4.9 5 6.4 0 0 2.3 1.4 2.6 5.5.3 4.1 1.1 12.7 11.9 18.3 10.8 5.7 27 3.4 40.4-11.9 13.4-15.4 14.7-34.4 16.5-42.4 1.1-4.9 2.9-9.1 4.1-11.7-.7.2-1.4.5-2.2.7-.7-.1-1.4.1-2.1.3z" fill="#86B133"/><path d="M275.926 200.86s8.2 9.7-.3 22-26.7 8.5-35.8-7.5c-9.1-16-19-33.7-27.5-37.7 0 0 12.5-8.9 34.4-10.2 21.9-1.3 29.4 9.6 34.2 17.3 4.8 7.7 2.6 15.2-2.6 13.9-3.8-1.3-4-.5-2.4 2.2z" fill="#86B133"/><path d="M261.927 230.86c-8.7 0-17.4-5.8-22.7-15.1l-.8-1.5c-8.6-15.1-18.3-32.2-26.4-36-.2-.1-.3-.3-.4-.5 0-.2.1-.5.3-.6.1-.1 12.9-9.1 34.7-10.3 21.3-1.2 29.1 8.5 34.8 17.6 3.2 5.2 3.3 10.1 1.8 12.7-1.1 1.9-3 2.7-5.1 2.2-1.2-.4-2-.6-2.4-.6h-.2c.1 0 .1.3.9 1.8 0 0 8.3 10.2-.3 22.7-3.3 4.9-8.4 7.6-14.2 7.6zm-48.3-53.2c8.1 4.7 17.2 20.6 25.9 36l.8 1.5c5.1 8.9 13.3 14.5 21.6 14.5 5.4 0 10-2.5 13.2-7 8.1-11.8.4-21.2.4-21.3-.9-1.6-1.4-2.6-.9-3.3.5-.8 1.5-.8 4 0 .3.1.6.1.9.1 1.4 0 2.3-.9 2.7-1.7 1.2-2.2 1.2-6.6-1.8-11.4-4.2-6.7-11.4-18.3-33.6-17-18.3 1.1-30 7.6-33.2 9.6z" fill="#528C45"/><path opacity=".5" d="M278.327 198.66c5.1 1.3 7.3-6.2 2.6-13.9-.5-.9-1.1-1.8-1.8-2.7.6 1.5 1.1 3 1.4 4.6.3 1.6.8 4-.6 5.2-.6.6-1.4.5-2.1.2-1.2-.6-2.2-1.7-3.1-2.7-1.4-1.6-2.6-3.2-3.8-4.9-1.2-1.8-2.4-3.5-3.7-5.3-1-1.3-2-2.8-3.2-3.9-.2-.2-.5-.4-.8-.5-.2-.1.4.4.5.4.2.3.5.6.7.9.9 1.2 1.8 2.3 2.5 3.6 1.6 2.7 2.6 5.5 2 8.7h-.1c-2.2-.2-3.8-3-5-4.6-1.8-2.6-3.2-5.6-5.5-7.8-3.7-3.5-8.6-5.8-13.8-5.1.2 0 .3.1.5.1.4.1.9.3 1.3.5.9.4 1.7 1 2.4 1.7 1.1 1.1 2.2 2.4 2.8 3.8.3.8.8 2.1.2 2.8-.6.8-1.9.6-2.7.3-1.2-.4-2.2-1-3.3-1.5-1.8-.9-3.6-1.8-5.4-2.5-6-2.3-12.5-3.4-19-3-6 2.4-9.1 4.7-9.1 4.7 8.5 4 18.4 21.7 27.5 37.7 9.1 16 27.3 19.8 35.8 7.5 8.5-12.3.3-22 .3-22-1.5-2.8-1.3-3.6 2.5-2.3z" fill="#86B133"/><path opacity=".5" d="M278.327 198.66c1.1.3 2 .1 2.8-.3-.5 0-1 0-1.4-.1-2.7-.5-5-2-7.2-3.4-1.2-.8-2.3-1.5-3.5-2.2-1.4-.7-2.9-1.3-4.3-2-6.2-3-12-6.6-18.5-9-3.6-1.3-7.2-2.1-11-2.4-2.1-.2-4.2-.4-6.2-.2-.4 0-.8.1-1.1.1.9 0 1.8.1 2.7.2 3.6.5 7.1 1.8 10.7 2.4 3 .5 6.1.6 8.9 1.8 1.3.5 4.1 1.8 4.2 3.5.1 1.1-2 1.2-2.6 1.2-4.1.3-8.3-.8-12.4.4-1.2.4-2.6.9-3.4 2-.2.2-.3.4-.4.6-.3.7.1.7.7.7.9 0 1.9-.1 2.8-.2 1.7-.3 3.5-.9 5.2-.9 1.8-.1 3.6-.1 5.4 0 3.3.2 6.5.5 9.8 1 2.1.3 4.4.8 6.3 1.8 1.1.7 2.8 2.2 1.8 3.7-1.2 1.6-3.5 1.9-5.2 2.7-1.9.8-3.8 2.2-5.2 3.7-.5.6-1.8 2.3-.8 3.1.8.6 2.3-.2 3-.6 1.9-1 3.7-2.3 5.5-3.5 1.6-1 3.5-1.7 5.4-1.3 5 1 6 7.4 4.4 11.5-2 5-7.2 7.8-12.4 8.4-4.6.5-9.6 0-13.3-3-1.9-1.6-3.4-3.6-4.3-5.9-.7-1.7-1.2-3.4-1.3-5.2-.1-1.8.1-3.6-.3-5.3-.8-3.3-3.7-5.5-5.9-7.9-.6-.6-1.2-1.2-1.7-1.8h-.3l-.1-.1c0-.1.1-.1.1-.2-1.6-1.6-3.2-3.2-5.1-4.5-3.5-2.4-7.7-4.2-12-5.1 7 7.2 14.6 20.8 21.7 33.2 9.1 16 27.3 19.8 35.8 7.5 8.5-12.3.3-22 .3-22-1.6-2.9-1.4-3.7 2.4-2.4z" fill="#86B133"/><path d="M313.826 91.86s-9.6-1.2-9.9-11.1c-.3-9.9 9.9-19 20.5-21.7 10.6-2.6 28.6-7.6 53.3-1.5-6.6 6.3-9.4 17.4-12.4 25.8-3 8.4-7.4 21.8-20.7 28.1-13.2 6.3-26.3-.8-29-9.6-1.9-8.5 1.1-10.3-1.8-10z" fill="#86B133"/><path d="M334.327 114.56c-8.8 0-17.1-5.4-19.3-12.4-1-4.5-.8-7.2-.6-8.7 0-.4.1-.8.1-1h-.5c-.3 0-10.3-1.3-10.6-11.7-.4-10.6 10.4-19.7 21-22.3l1.1-.3c7-1.8 16.6-4.2 28.9-4.2 7.8 0 15.7 1 23.6 2.9.2.1.4.2.5.5.1.2 0 .5-.2.6-5.4 5.2-8.3 13.7-10.8 21.3-.5 1.5-1 2.9-1.5 4.3l-.2.6c-3 8.6-7.6 21.7-20.8 27.9-3.5 1.7-7.1 2.5-10.7 2.5zm-19.9-23.4c.3 0 .8 0 1.1.4.4.4.4 1 .3 2-.1 1.5-.4 4 .6 8.2 2 6.5 9.7 11.5 18 11.5 3.4 0 6.8-.8 10-2.3 12.7-6 17.2-18.8 20.2-27.2l.2-.6c.5-1.4 1-2.8 1.4-4.3 2.4-7.3 5.2-15.6 10.3-21-7.4-1.8-14.9-2.6-22.2-2.6-12.2 0-21.7 2.4-28.6 4.1l-1.1.3c-9.9 2.5-20.4 11.2-20 21 .3 9.3 9 10.4 9.4 10.5h.4z" fill="#528C45"/><path opacity=".5" d="M374.226 59.76c-2.7.9-5.5 1.8-8.3 2.5-2.3.5-5 1-7.3.2 0 0-.1 0 0-.1.4-.7.5-1.5 1-2.2.4-.6.6-.7-.4-.7-1.8 0-3.5.5-5.1 1.3-2.7 1.4-4.9 3.5-7.6 5-1.7 1-4.3 2.5-6.3 1.9-1.3-.4-.9-2-.6-2.9.8-1.9 2.1-3.5 3.6-4.9 0 0 .6-.4.4-.3-.4.1-.7.2-1.1.4-.9.3-1.7.7-2.4 1.2-1.2.8-2.3 1.7-3.3 2.8-3.7 4-6.6 9.2-11.7 11.6-.9.4-2.4 1-3.2.1-.9-1-.5-2.8-.1-3.9.3-.8.6-1.6 1-2.3-2.4 3.6-4.7 7.4-7.9 10.3-2.4 2.2-5.6 3.5-8.2.8-1.7-1.7-1.9-4.1-1.4-6.4-.9 2.1-1.4 4.3-1.3 6.6.3 9.9 9.9 11.1 9.9 11.1 2.8-.3-.2 1.5 1.8 10.1 2.6 8.8 15.7 15.9 29 9.6 13.2-6.3 17.7-19.7 20.7-28.1 2.8-7.8 5.4-17.9 11.1-24.3-.8.2-1.6.4-2.3.6z" fill="#86B133"/><path opacity=".5" d="M373.626 62.96c-5.2 5.2-9 11.4-12.2 18-1.5 3.1-2.8 6.3-4 9.5-1.1 2.8-2.2 5.5-3.7 8.1-2.5 4.2-6.5 8.3-11.5 9.4-3.6.7-7.7.5-11.3-.6-2.7-.9-5.9-2.7-5.8-6 .2-4.4 3.9-6.4 7.8-6.8 2.4-.2 4.8-.1 7.2-.2 2.2-.1 4.6-.3 6.5-1.6.5-.3.9-.7 1.3-1.1-.1.1-.2.1-.3.2-.9.4-1.8.6-2.8.7-2.5.3-5.1.2-7.6-.2-2-.3-4.4-.7-6.2-1.9-1.4-.9-2.8-2.5-1.7-4.2 2.7-4 8.9-3.5 13-3 2.8.3 5.6.7 8.4.6 2.5-.1 5.3-.4 7.3-2.1.3-.2.6-.5.8-.8.2-.2.5-.3.2-.3-.4-.1-.7-.1-1.1-.2-.9-.1-1.8-.1-2.7-.2-1.9-.1-3.8-.2-5.6-.7-1.1-.3-2.5-.9-3-2-.6-1.5.3-3.4 1.2-4.6 3-3.8 8.5-5 12.9-6.2 1.4-.4 2.7-.7 4.1-1.2.5-.2 1-.3 1.5-.5.2-.1.5-.2.7-.3.1-.1.6-.1.3-.1-3.8 0-7.6.4-11.3 1.2-7.7 1.7-15.1 4.6-22.3 8-4 1.9-7.8 3.9-11.6 6.1-3.5 2.1-7.1 4.2-10.9 5.6-1.8.6-3.9 1.3-5.9 1.1 2.8 4.6 8.3 5.3 8.3 5.3 2.8-.3-.2 1.5 1.8 10.1 2.6 8.8 15.7 15.9 29 9.6 13.2-6.3 17.7-19.7 20.7-28.1 2.3-6.4 4.5-14.4 8.4-20.6.1-.1.1-.1.1 0z" fill="#86B133"/><path d="M267.725 90.06s6.3 11.2-6.6 17.4c-12.9 6.2-27.8.2-38.5-20.4-10.7-20.6-13.1-29.4-13.1-29.4s31.8-14.1 51.6.5 19.2 32.5 6.6 31.9z" fill="#86B133"/><path d="M251.226 110.46c-11.1 0-21.4-8.2-29.1-23.1-10.6-20.4-13-29.1-13.1-29.5-.1-.3.1-.6.4-.8.1-.1 14.1-6.2 29.1-6.2 9.3 0 17 2.3 23.1 6.8 13.4 9.9 17.3 21.2 15.2 27.4-1.1 3.5-4.1 5.5-8 5.7.7 1.7 1.9 5.3.7 9.1-1.1 3.4-3.8 6.2-8 8.2-3.4 1.6-6.9 2.4-10.3 2.4zm-40.8-52.4c.7 2.2 3.8 11.2 12.8 28.7 7.5 14.4 17.4 22.4 28 22.4 3.2 0 6.5-.8 9.6-2.3 3.9-1.9 6.4-4.4 7.3-7.4 1.4-4.6-1-9-1-9-.1-.2-.1-.5 0-.6.1-.2.3-.3.6-.3 3.9.2 6.7-1.5 7.8-4.8 1.9-5.8-1.9-16.4-14.8-26-5.8-4.3-13.3-6.5-22.3-6.5-13.1-.1-25.4 4.7-28 5.8z" fill="#528C45"/><path opacity=".5" d="M274.227 72.66c.6 1.7 1 3.5.9 5.3-.1.9-.4 3.3-1.6 3.5-.7.1-1.5-.3-2.1-.6-.9-.5-1.8-.9-2.5-1.5-4-3.1-6.5-7.7-9.1-11.9-1.2-1.9-2.1-3.9-3.3-5.7-.5-.7-1.4-2.3-2.5-2.3-1.9.1-1.4 2.6-1.2 3.8.2 1.1.7 3.4-.9 3.8-1.1.3-2-.9-2.6-1.6-2.5-3.2-3.9-7.1-6.1-10.5-.2-.4-.5-.8-.8-1.1-.2-.3-.4-.7-.3-.1.2 1.4.9 2.6 1.6 3.7 1.2 2.1 2.7 4.3 2.1 6.8 0 0-.1.2-.1.1-1.4-.5-2.5-1.4-3.7-2.3-1.5-1.1-2.9-2-4.6-2.8-3.2-1.5-6.7-2.7-10.3-3.1-5.8-.7-11.7.1-17.4 1.3.1.3 2.6 9.1 13.1 29.4 10.7 20.6 25.5 26.6 38.5 20.4 12.9-6.2 6.6-17.4 6.6-17.4 8.3.6 11.3-7.4 6.3-17.2z" fill="#86B133"/><path opacity=".5" d="M272.027 89.46c-1.5-.7-2.9-1.7-4.2-2.7-3.1-2.4-5.8-5.3-8.5-8.1-8.9-9.2-21.5-15.9-34.6-15.2-1.9.1-3.8.3-5.6.8-.8.2-1.6.4-2.4.7.3-.1 1.4 0 2 0 3.3.1 6.5.7 9.6 1.6 6.6 1.9 12.6 5.3 17.7 10 .1.1-.1.1-.2.1-1.5-1-3.3-1.6-5.1-1.9-3-.5-6.2-.3-9.2.5-1.4.4-2.9.9-4.2 1.7-.3.2-.5.3-.8.5-.2.3-.4.4-.7.3h.2c.3 0 .6-.1.9-.1 4.1-.4 8.3-.6 12.5-.4 4.5.2 9.2.6 13.5 2 3.1 1 6.5 2.7 7.5 6v.1c-3.9 1.5-8 .5-12.1.8-2.3.2-4.6.8-6.3 2.5-.3.3-.9.7-.2.7h.8c.8 0 1.5-.1 2.3-.2 3.3-.4 6.6-1.2 9.9-1.4 2.8-.2 5.9-.2 8.4 1.3 2.8 1.7 4.8 5.9 3.5 9.2-1.3 3-4.8 4.3-7.8 4.8-3.7.7-7.5.7-11.2.1-4.2-.7-8.2-2.7-11.2-5.7-4-3.9-6.2-8.9-8.7-13.9-2.7-5.5-5.9-10.9-9.9-15.7-2.1-2.6-4.6-5-7.2-7 1.5 4.1 4.9 12.6 12.1 26.4 10.7 20.6 25.5 26.6 38.5 20.4 12.9-6.2 6.6-17.4 6.6-17.4 1.4-.1 2.9-.3 4.1-.8z" fill="#86B133"/><path d="M295.227 48.86s-6.3-11.2 8.4-23.8c9.7-7.2 22.1-10.2 22.1-10.2s.7 11.8-3.1 22.1c-5.1 14-22.5 23.3-27.4 11.9z" fill="#C0D23F"/><path d="M302.726 54.56c-3.8 0-6.6-1.9-8.1-5.5 0-.1-6.4-11.8 8.6-24.5 9.8-7.3 22.3-10.3 22.4-10.3.2-.1.4 0 .5.1.2.1.2.3.3.5 0 .1.7 12.1-3.1 22.4-3.6 9.4-13 17.3-20.6 17.3zm22.4-38.8c-2.8.8-13 3.8-21.2 9.9-14.1 12-8.5 22.5-8.2 22.9 1.3 3.1 3.7 4.8 7 4.8 7.2 0 16-7.5 19.4-16.5 3.1-8.6 3.1-18.3 3-21.1z" fill="#84A42E"/><path opacity=".4" d="M325.525 14.96c-.7 1.2-1.5 2.4-2.6 3.3-1.9 1.6-4 2.9-5.9 4.4-1.9 1.4-3.8 2.8-5.9 3.8-.1 0-.2-.1-.2-.1 0-.2-.1-2.1-.2-2.1-.6.2-1.1.4-1.5.8-1 .9-1.6 2-2.3 3.2-.9 1.7-1.8 3.7-3.1 5.2-.4.5-1.3 1.4-2 1.1-.4-.2-.7-.5-.7-1 0-.9.3-1.8.6-2.6.2-.5.4-1 .4-1.4 0 .2-1.1.8-1.3 1-1.6 1.9-1.6 4.6-2.2 6.9-.4 1.5-1.6 4.2-3.6 3.9-.4-.1-.7-.2-.9-.4-.5 4.9 1.2 8.1 1.2 8.1 4.9 11.4 22.3 2.1 27.5-11.8 3.8-10.3 3.1-22.1 3.1-22.1s-.3-.2-.4-.2z" fill="#98C22E"/><path opacity=".4" d="M325.526 14.96c-.1.3-.2.6-.2.8-.6 3-.3 6.2-.8 9.2-.5 2.7-1 5.4-1.8 8.1-1.1 3.8-3.1 7.6-5.6 10.6-2.2 2.6-5.2 4.9-8.8 4.2l-.1-.1c0-.3 0-.6.1-.9.5-1.4 2-2.2 3.2-2.8 1.8-.9 3.7-1.5 5.5-2.3.6-.3 1.5-.6 1.9-1.2.6-.9-.8-1.1-1.3-1-1.9.2-3.7 1.2-5.5 1.9-1.5.6-6.5 3.1-6.4-.4.1-2.9 4.2-4.8 6.3-6 1.9-1 3.8-1.9 5.7-2.9 1.4-.7 3-1.4 4.3-2.4.2-.2.4-.3.6-.6-.1.1-.7 0-.9.1-1 .1-2 .4-3 .5-1.3.2-3.3.3-3.3-1.5 0-1.2 1.9-2.4 2.7-3 1.8-1.4 3.8-2.6 5.5-4.1.3-.3.7-.7 1-1.1-.2.4-1.6.6-2 .8-1.6.7-3.1 1.6-4.6 2.6-2.8 1.9-5.4 4.2-8.2 6.1-.1 0-.1 0-.1-.1 0-.7-.2-1.3-.3-2-.1-.6.1-.5-.3 0-.7 1.1-1.4 2.3-2.1 3.5-1.1 2-2.2 4.3-4.1 5.7-.6.4-2 1.3-2.6.5-.1-.2-.1-.3-.2-.5-.6 2.7-1.5 5.5-4 7-.7.4-1.5.7-2.2.6.3 2.9 1.3 4.7 1.3 4.7 4.9 11.4 22.3 2.1 27.5-11.8 3.8-10.3 3.1-22.1 3.1-22.1s-.2-.1-.3-.1z" fill="#98C22E"/><path d="M322.825 155.26c-4.1 7.5-4.6 15.4-3.8 23.8.1.6.9-.2.9-.6-.5-8.5 0-15.3 3.3-23.1.2-.4-.2-.4-.4-.1zm16.501-3.8c-3.1 4.4-3.8 10.1-4 15.3 0 .8.9 0 .9-.4.5-5.1.7-10.2 3.4-14.7.2-.3-.1-.4-.3-.2zm16.399-.8c-1.5 1.7-2.7 3.5-3.5 5.6-.2.5.5.3.6 0 .9-1.8 1.9-3.5 3.2-5.1.3-.4.1-1-.3-.5zm-10.999 36.8c-7.1-.5-13.1-4.7-19.5-7.4-.2-.1-.6.4-.4.6 5.2 3.8 13.2 7.2 19.6 7.5.3-.1.6-.7.3-.7zm23.199-19.9c-8 2.1-16.9.8-24.7-1.4-.3-.1-.8.7-.4.8 7.9 2.2 17 3.5 25 1.1.1 0 .4-.6.1-.5zm6.401-11.9c-5.1.8-10.8-.4-15.8-1.9-.3-.1-.8.7-.5.8 4.5 2.2 11.2 3 16.1 1.7.2 0 .5-.6.2-.6zm-125.7 14.7c-.2-.2-.6.3-.4.4 3.1 4.1 4.7 8.7 7 13.2.1.3.6-.3.5-.5-1.2-4.7-4.1-9.3-7.1-13.1zm17.3 7.1c-.1-.1-.3.2-.2.3 2.8 4 4 9.6 5.2 14.3.1.4.6-.2.6-.4-.7-4.8-2.5-10.7-5.6-14.2zm-21 4.5c-6-2.1-12.7-1.9-19-1.9-.1 0-.3.3-.2.4 6.3.5 12.6 1 18.8 2.4.4 0 .8-.7.4-.9zm21.1 9.8c-3.8-2.7-9.5-2.3-14-2.5-4.7-.3-9.6.1-14 1.8-.2.1-.4.6-.1.5 8.2-2.1 19.6-2.3 27.6.9.3.1.8-.5.5-.7zm8.401 6c-6 1.1-13.4 3-16.8 8.7-.1.2.1.2.2.1 1.8-2.7 4.4-3.9 7.3-5.3 3-1.5 6.1-1.7 9.1-2.7.3-.2.7-.9.2-.8zm49.399-131.8c-1.5 3.1-3.3 5.7-4.4 9-1.1 3.4-1.6 7-1.6 10.6 0 .8.9 0 1-.5.3-3.5.7-6.9 1.6-10.3.9-3.2 2.7-5.8 3.9-8.9.1-.3-.4-.1-.5.1zm16.101-4.3c-3.3 3.1-5.5 7.2-6 11.8-.1.7.7 0 .8-.4.9-4.1 2.5-7.9 5.5-10.9.2-.4.1-.9-.3-.5zm19.599-1.8c-2.9 1.2-5.6 3-7.7 5.4-.4.4-.2 1.2.3.6 2.2-2.1 4.6-4 7.3-5.5.3-.1.5-.7.1-.5zm-6.201 19.4c-7.1 1.2-14.4.3-21.3-1.2-.4-.1-1.1.9-.6 1.1 6.5 2.1 15.3 2.7 21.8.4.1 0 .2-.3.1-.3zm-17.399 12.6c-6 1-11.4-1-17.2-2.3-.2-.1-.6.5-.4.6 5.5 2.3 11.5 3.7 17.4 2.2.2-.1.5-.6.2-.5zm-94.401-38.3c-.1-.1-.4.2-.3.3 2.7 4.6 3.9 9.6 5.6 14.6.1.2.5-.2.4-.4-1.1-5-2.9-10.1-5.7-14.5zm18.1 13.9c-.8-2.6-2.3-5-3.2-7.7-.1-.2-.3.1-.3.2.5 1.9 1.5 3.8 2.2 5.6 1.3 3.3 1.9 6.8 2.5 10.3.1.3.5-.1.5-.4-.1-2.7-.9-5.3-1.7-8zm-24.6-.6c-4.8-.9-9.9-.9-14.8-.5-.2 0-.5.5-.2.5 4.9.2 9.7.3 14.6.8.3 0 .8-.7.4-.8zm20.2 11.3c-4.1-.8-8.3-.9-12.5-1.2-4.4-.3-8.6-1-13-.4-.1 0-.2.2-.1.2 4.3-.3 8.4.6 12.6 1.1 4.2.5 8.4.7 12.5 1.2.4 0 .9-.8.5-.9zm8.5 9.5c-5.7-1.7-11.5-1.3-17.2 0-.2 0-.4.5-.2.5 5.7-.9 11.3-1 17 .3.3 0 .7-.7.4-.8z" fill="#528C45"/><path opacity=".5" d="M316.527 40.16c-4.8 1.7-10.1 3.9-14.2 6.9-.2.1-.4.9 0 .7 4.6-2.7 9.4-4.9 14.2-7.4 0-.1.1-.3 0-.2zm.799-9.1c-1.6 0-3.4.7-5 1.1-1.6.4-3.1 1.1-4.4 2.2-.1.1-.2.5.1.4 1.4-.7 2.7-1.4 4.2-2 1.6-.6 3.5-.8 5.1-1.6 0 0 .1-.1 0-.1zm-7.999-5.5c-.2 2-.8 4.1-1.8 5.9-.1.3.1.3.3.1 1.3-1.8 1.9-4 1.8-6.1 0-.2-.3 0-.3.1zm-9.2 9.8c.2-1.7.5-3.3.5-5 0-.4-.4 0-.4.2-.6 3.3-1.7 7.1-.7 10.4.1.3.6-.3.6-.5-.1-1.7-.2-3.3 0-5.1z" fill="#84A42E"/><path d="M233.327 377.16s6.3-8.4 20.1-6.3c13.8 2.1 24.8 7 40.2-3.7-7.5 11.5-20.8 18.3-26.4 27.9-5.6 9.6-9.4 20.4-8 30.7 1.2-13.6 5.9-29.7 15.4-37.7 9.6-8 24.1-19.2 29.3-30.2-2.6 22.7 4.9 36.3 11.7 51.5 6.8 15.2 12.4 28.1 11.9 39.8.7-17.6-1.2-22-6.6-33.7-5.4-11.7-11.9-27.9-10.8-42.6.9-9.6 2.3-15.9 4-11.9 1.6 4 5.6 12.9 28.6 18 22.9 5.1 28.5 12.9 30.9 20.4-.9-12.6-14.3-19.9-30.2-22.9-15.9-3-30-15.4-30-34.4s3.5-35.3-2.5-75.9c-5.2-35.4-8.2-58.6 8.4-79.6 17.6-20.6 35.2-30.5 49.8-35.9 0 0-24.3 5.4-44.8 23-20.6 17.6-20.8 33.4-20.8 33.4s-6.7-39.4-6.2-57.7c.5-18.3 5.6-44 23.8-63.2 12.1-11.8 42.2-21.8 42.2-21.8s-26.9 2.8-44.3 19.9c-17.2 16.9-24.5 39.9-24.5 39.9s-.4-40.5 1.8-58.7c2.2-18.2 11.8-34.2 25.2-44.7 0 0-31.3 19.5-33.6 53.4-2.2 33.9-1.3 39.9-1.3 39.9s-15.6-49.9-66.1-51.5c26.1 8.6 56.2 18.2 66.8 76.7 10.5 58.5 15 104.2 15 104.2s-6.7-56.5-69.8-65.4c0 0 51.7 7.4 64.7 62 6 28.3 9 59.1 7.7 83.3-1.3 24.3-5.4 39.7-26.7 45.5-13.2 3.2-17.8.4-25-.3-7-.5-16.3 2.4-19.9 8.6z" fill="#3D742E"/><path d="M327.626 449.56c-.4 0-.7-.3-.6-.7.5-11.8-5.5-25.3-11.9-39.5-.6-1.4-1.3-2.8-1.9-4.2-6-13.1-11.6-25.5-10.2-44.5-5.5 9.2-16.7 18.4-25.1 25.3l-2.8 2.3c-12 9.9-14.7 31-15.2 37.2 0 .3-.3.6-.6.6s-.6-.2-.6-.6c-1.3-9.3 1.4-19.8 8-31.1 2.8-4.8 7.5-8.9 12.5-13.2 4.2-3.7 8.6-7.4 12.1-11.9-5.7 3.4-11.3 5-17.4 5-4.6 0-9-.9-13.7-1.8-2.2-.4-4.4-.9-6.7-1.2-1.4-.2-2.9-.3-4.2-.3-10.3 0-15.2 6.3-15.3 6.4-.2.3-.6.3-.9.1-.3-.2-.4-.6-.2-.9 3.6-6.1 12.3-8.8 18.8-8.8.7 0 1.3 0 2 .1 1.9.2 3.7.5 5.4.8 2.5.5 5.1 1 8.4 1 3.3 0 6.9-.5 11-1.5 20.3-5.5 24.9-20 26.2-44.9 1.3-23.9-1.5-54.3-7.7-83.2-12.7-53.4-63.5-61.4-64.2-61.5-.4-.1-.6-.4-.5-.7.1-.4.4-.6.7-.5 46.6 6.6 62.7 39.4 68 56.1-1.9-16.6-6.4-52.2-13.9-94.1-10.4-57.7-39.8-67.5-65.8-76.1l-.5-.2c-.3-.1-.5-.4-.4-.7.1-.3.3-.5.7-.5 42.2 1.4 60.3 36.4 65.3 48.2-.1-4.9.1-15.2 1.5-36 2.2-33.8 33.5-53.7 33.9-53.9.3-.2.7-.1.9.2.2.3.1.7-.1.9-13.8 10.8-22.9 27-25 44.3-1.8 14.8-1.9 44.7-1.8 55 2.7-7.1 10.2-23.9 23.6-37 17.3-17 44.4-20.1 44.6-20.1.3 0 .6.2.7.5.1.3-.1.6-.4.7-.3.1-30 10.1-41.9 21.7-19.7 20.7-23.2 48.2-23.6 62.7-.4 14.6 3.9 43.1 5.5 53.6 1.4-5.9 5.9-17.4 20.4-29.8 20.4-17.5 44.9-23.1 45.1-23.2.3-.1.7.1.8.4.1.3-.1.7-.4.8-18.7 7-34.9 18.7-49.5 35.7-16 20.3-13.7 42.2-8.3 79.1 4.5 30.3 3.7 46.9 2.9 61.6-.2 4.9-.5 9.6-.5 14.4 0 19.4 14.8 31 29.4 33.8 10.9 2.1 29.4 7.9 30.7 23.3 0 .1.1.2.1.3 0 .4-.3.6-.6.6s-.5-.2-.6-.5c-2.2-7-7.5-14.8-30.4-19.9-23.6-5.3-27.4-14.5-29-18.4-.2-.4-.3-.6-.4-.7-.3.4-1.4 2.4-2.4 12.5-1.1 14.3 5.1 30.1 10.7 42.3 5.2 11.3 7.3 15.9 6.6 34-.7.4-1 .6-1.3.6zm-23.6-92.5h.2c.3.1.5.4.5.7-2.3 20.4 3.5 33.3 9.8 47 .6 1.4 1.3 2.8 1.9 4.2 4.4 9.8 8.6 19.3 10.7 28.2-.6-8.7-2.6-13.3-6.5-21.6-5.6-12.3-12-28.3-10.8-42.9 1.3-13.7 2.8-13.7 3.6-13.7.8 0 1.3.9 1.6 1.6 1.5 3.7 5.1 12.5 28.1 17.6 16.8 3.8 24.5 9 28.3 14.4-5-9.9-19-14.1-27.8-15.7-15.2-2.9-30.5-14.9-30.5-35 0-4.8.2-9.5.5-14.4.7-14.6 1.5-31.1-2.9-61.4-5-33.9-8.6-58.3 8.6-80.1 11.7-13.6 24.3-23.9 38.5-31-8.9 3.4-21.3 9.4-32.6 19-20.1 17.2-20.6 32.8-20.6 33 0 .3-.3.6-.6.6s-.6-.2-.7-.5c-.1-.4-6.7-39.7-6.2-57.8.4-14.7 4-42.6 24-63.6 8.6-8.4 25.7-15.7 35.3-19.4-9.2 2.1-25 7.1-36.5 18.4-17.3 16.6-24.7 39.5-24.7 39.7-.1.3-.4.5-.7.4-.3 0-.5-.3-.5-.6 0-.4-.4-40.7 1.8-58.8 1.6-13 7-25.3 15.3-35.3-9.2 8.8-21.1 23.9-22.4 44.1-2.2 33.2-1.3 39.7-1.3 39.8 0 .3-.2.6-.5.7-.3.1-.7-.1-.8-.4-.2-.5-15-46.2-60.6-50.7 25.2 8.5 52.5 20.3 62.5 75.7 10.4 57.8 15 103.8 15 104.2 0 .3-.2.7-.6.7-.4 0-.7-.2-.7-.6-.1-.5-6-45.2-51.8-60.8 16.4 7.1 39.9 22.9 48 57.1 6.2 29 9 59.5 7.7 83.5-1.3 25.5-6.1 40.4-27.1 46.1-4.2 1-7.9 1.5-11.3 1.5-3.4 0-6.1-.5-8.6-1-1.8-.3-3.4-.6-5.3-.8-2.7-.2-5.8.1-8.9.9 2.6-.5 5.8-.6 9.1-.1 2.3.4 4.6.8 6.8 1.2 4.6.9 9 1.7 13.5 1.7 6.9 0 13.1-2.1 19.5-6.6.2-.2.6-.2.8.1.2.2.3.6.1.8-3.8 5.9-9.1 10.5-14.2 14.9-1.9 1.7-3.8 3.3-5.5 4.9l2.6-2.1c9.1-7.5 21.7-17.8 26.3-27.7.1 0 .3-.1.6-.1zm-40.6 46.8c-1.8 4.4-3 8.6-3.5 12.7.7-3.9 1.8-8.3 3.5-12.7z" fill="#346227"/><g opacity=".4" fill="#3D742E"><path opacity=".4" d="M303.726 108.96c-11.8 30-9.9 35.8-7.7 61.7 2.2 25.9 7.2 56.4 7.6 36.2 0 0-6.7-39.4-6.2-57.7.5-18.3 5.6-44 23.8-63.2 12.1-11.8 42.2-21.8 42.2-21.8s-2.3.3-6 1c-16.6 5.2-43.6 17.5-53.7 43.8zm-70.199 69.3c-.5-.1-.8-.1-.8-.1.2 0 .5.1.8.1z"/><path opacity=".4" d="M343.527 376.16c-15.9-3-30-15.4-30-34.4s3.5-35.3-2.5-75.9c-5.2-35.4-8.2-58.6 8.4-79.6 17.6-20.6 35.2-30.5 49.8-35.9 0 0-.2 0-.4.1-10.3 3.9-35.2 14.7-49.2 31.7-17.9 21.7-17.1 37.8-14.1 60.7 3.5 26.6 8.7 58.6-.5 56.3.4 8.5.4 16.7 0 24.2-1.3 24.3-5.4 39.7-26.7 45.5-13.2 3.2-17.8.4-25-.3-7.2-.6-16.5 2.3-20.1 8.4 0 0 6.3-8.4 20.1-6.3 13.8 2.1 24.8 7 40.2-3.7-7.5 11.5-20.8 18.3-26.4 27.9-5.6 9.6-9.4 20.4-8 30.7 1.2-13.6 5.9-29.7 15.4-37.7 9.6-8 24.1-19.2 29.3-30.2-2.6 22.7 4.9 36.3 11.7 51.5 6.8 15.2 12.4 28.1 11.9 39.8.7-17.6-1.2-22-6.6-33.7-5.4-11.7-11.9-27.9-10.8-42.6.9-9.6 2.3-15.9 4-11.9 1.6 4 5.6 12.9 28.6 18 22.9 5.1 28.5 12.9 30.9 20.4-.7-12.7-14.1-19.9-30-23zm-49.5-251.2c.2-1.2.3-2.4.5-3.6 0-9.5 0-40.5 1.8-55.9 2.2-18.2 11.8-34.2 25.2-44.7 0 0-10.4 6.5-19.7 18.5-4.9 9.7-10.6 25-10.6 43.6.2 33 1.1 55.6 2.8 42.1z"/></g><path d="M265.725 398.26s-3.7 3-8.8 6.7c-5.1 3.7-13.6 11.8-16.9 23.6 3-11.8 3.6-14.2 10.5-20.2s17.1-14.6 17.1-14.6l-1.9 4.5z" fill="#EBD9B3"/><path d="M240.026 429.16h-.2c-.3-.1-.5-.4-.5-.8 3-11.9 3.6-14.3 10.7-20.6 6.8-6 17.1-14.5 17.2-14.6.2-.2.6-.2.8 0 .2.2.3.5.2.8l-2 4.6c0 .1-.1.2-.2.2 0 0-3.8 3-8.8 6.7-3 2.2-13 10.3-16.7 23.2.1.3-.2.5-.5.5zm26-33.2c-3.3 2.8-10.1 8.5-15.1 12.8-4.5 3.9-6.3 6.2-7.8 10.7 4.6-8.2 11.1-13.4 13.4-15.1 4.5-3.3 7.9-6 8.6-6.5l.9-1.9z" fill="#BD7A43"/><path d="M249.225 409.26s-14.8 5.3-24.2 18.9c.9-6 7.8-12 13-14.6 5.1-2.6 11.2-4.3 11.2-4.3z" fill="#EBD9B3"/><path d="M225.026 428.76h-.2c-.3-.1-.4-.4-.4-.7.9-6.6 8.5-12.6 13.3-15 5.2-2.6 11.3-4.3 11.3-4.4.3-.1.7.1.8.4.1.3-.1.7-.4.8-.1.1-14.7 5.4-23.9 18.6-.1.2-.3.3-.5.3zm14.7-15.3c-.5.2-1 .5-1.5.7-4.3 2.2-9.1 6.2-11.3 10.4 4.1-4.9 8.8-8.6 12.8-11.1z" fill="#BD7A43"/><path d="M235.526 414.96s-13.3 1-22.1 6.8c3.9-6.3 16.5-8.7 22.1-6.8z" fill="#EBD9B3"/><path d="M213.425 422.36c-.2 0-.3-.1-.4-.2-.2-.2-.3-.5-.1-.8 3.2-5.1 11.5-7.7 18.1-7.7 1.8 0 3.5.2 4.8.6.3.1.5.4.4.7 0 .3-.3.5-.6.6-.1 0-13.3 1-21.8 6.7-.2.1-.3.1-.4.1zm17-7.4c-4.5.1-9.8 1.5-13.4 4 4.6-2.1 9.7-3.4 13.4-4z" fill="#BD7A43"/><path d="M290.624 374.56s-5.3 9.4-.4 23.9c4.9 14.5 13.6 23.9 10.2 38.4 0-10.4-3.4-18.3-7.5-25.6-4-7.2-4.5-10.2-4.5-10.2s-4.7 10-6.2 19c-.6-7.5 3.2-16.4 3.2-16.4s-15.3 18.1-18.5 30.9c-1.9-6.8 7.2-21.9 17.9-32.6 3.3-3.5-1.6-22.5 5.8-27.4z" fill="#EBD9B3"/><path d="M300.425 437.46c-.4 0-.6-.3-.6-.6 0-10.6-3.5-18.4-7.4-25.3-2.4-4.2-3.5-7-4.1-8.6-1.4 3.2-4.3 10.5-5.4 17.2-.1.3-.4.5-.7.5-.3 0-.6-.3-.6-.6-.4-4.6.9-9.7 1.9-13.1-4.4 5.7-13.6 18.2-16 27.7-.1.3-.3.5-.6.5s-.5-.2-.6-.5c-2.1-7.3 7.8-22.9 18.1-33.2 1.1-1.1 1.1-5 1.1-9.1 0-6.7 0-15.1 4.8-18.3.2-.2.6-.1.8.1.2.2.3.5.1.8-.1.1-5.1 9.3-.4 23.3 1.5 4.3 3.2 8.2 5 11.9 4.1 8.8 7.7 16.5 5.3 26.8-.1.3-.4.5-.7.5zm-11.7-59.6c-1.9 3.7-1.9 9.6-1.9 14.5 0 4.7 0 8.4-1.4 9.9-9.4 9.4-16.7 21.2-17.8 28.3 4.7-12.2 16.9-26.8 17.5-27.5.2-.2.5-.3.8-.1.3.2.4.5.2.8 0 .1-1.6 3.8-2.5 8.4 1.9-6.2 4.3-11.4 4.4-11.5.1-.3.4-.4.7-.4.3 0 .5.3.5.5 0 0 .5 3 4.4 10 3 5.4 5.9 11.5 7 19-.1-6.8-2.9-12.7-5.9-19.2-1.7-3.7-3.6-7.6-5-12-3.3-9.4-2.2-16.7-1-20.7z" fill="#BD7A43"/><path d="M296.325 417.86s-9.2 10-8.6 28c-2.7-9 .8-23.3 7.1-31l1.5 3z" fill="#EBD9B3"/><path d="M287.726 446.46c-.3 0-.5-.2-.6-.5-2.7-9 .7-23.5 7.3-31.6.1-.2.3-.3.6-.2.2 0 .4.2.5.4l1.4 3.1c.1.2.1.5-.1.7-.1.1-8.9 10-8.4 27.3v.2c0 .3-.3.6-.7.6zm7-30.4c-4.1 5.5-6.8 13.9-7.2 21.2 1.6-11.3 6.7-18 8-19.5l-.8-1.7z" fill="#BD7A43"/><path d="M314.426 406.66s-6.8 19.9-2.7 36.1c-4.7-12.1-2.8-28.5.6-40.5 2 3.2 2.1 4.4 2.1 4.4z" fill="#EBD9B3"/><path d="M311.726 443.36c-.3 0-.5-.2-.6-.4-5.9-15.3-1-35.2.6-40.9.1-.2.3-.4.5-.5.3 0 .5.1.6.3 1.9 3.2 2.2 4.5 2.2 4.6v.3c-.1.2-6.6 19.8-2.8 35.6.1.1.1.2.1.3.1.4-.2.8-.6.7zm.9-39.4c-1.4 5.2-3.8 16.3-2.8 27.3 0-12 3.5-23.1 4-24.6-.1-.3-.4-1.2-1.2-2.7z" fill="#BD7A43"/><path d="M325.725 427.16s8.8 8.5 12.1 25.8c-.7-12.4-3.9-22.2-13.2-30.2 1.2 3.2 1.1 4.4 1.1 4.4z" fill="#EBD9B3"/><path d="M337.726 453.56c-.3 0-.6-.2-.6-.5-3.2-16.9-11.8-25.3-11.9-25.4-.1-.1-.2-.3-.2-.6 0 0 .1-1.1-1.1-4.1-.1-.3 0-.6.2-.8.2-.2.6-.2.8 0 8.7 7.5 12.7 16.6 13.4 30.6.1.4-.2.7-.6.8.1 0 .1 0 0 0zm-11.4-26.7c1.1 1.1 6.1 6.7 9.7 16.9-1.6-7.8-4.8-13.8-10-18.9.2 1 .3 1.7.3 2z" fill="#BD7A43"/><path d="M268.624 373.36s-1.3-.4-5.9 6.1c-4.6 6.5-12.7 15.2-19.3 15.2 9.6-6.2 13.7-10.6 16.4-16 2.7-5.4 5.4-6.8 5.4-6.8l3.4 1.5z" fill="#EBD9B3"/><path d="M243.425 395.36c-.3 0-.5-.2-.6-.5-.1-.3 0-.6.3-.7 9-5.9 13.4-10.2 16.2-15.8 2.8-5.5 5.6-7.1 5.7-7.1.2-.1.4-.1.6 0l3.3 1.5c.3.1.5.3.5.6 0 .4-.4.6-.7.6h-.2c.1 0-1.3.3-5.2 5.9-1.9 2.6-11.4 15.5-19.9 15.5zm21.9-22.8c-.7.5-2.8 2.2-4.9 6.4-2.6 5.3-6.6 9.4-14.1 14.6 5.5-1.9 11.8-8.6 15.9-14.4 2-2.8 3.7-4.8 4.9-5.7l-1.8-.9z" fill="#BD7A43"/><path d="M257.726 385.86s-2.9 10.6-8.3 15c5.8-2.8 9.4-10.9 10.4-17.8-1.1 1.7-2.1 2.8-2.1 2.8z" fill="#EBD9B3"/><path d="M249.425 401.46c-.2 0-.4-.1-.5-.3-.2-.3-.1-.6.1-.8 5.1-4.2 8-14.6 8-14.7 0-.1.1-.2.2-.3 0 0 1-1 2-2.7.2-.3.5-.4.8-.3.3.1.5.4.4.7-.9 7-4.6 15.3-10.7 18.3-.1.1-.2.1-.3.1zm8.8-15.3c-.3.9-1.6 5.5-4 9.6 2.1-2.9 3.6-6.5 4.4-10.1-.1.3-.3.4-.4.5z" fill="#BD7A43"/><path d="M245.425 370.56s-3.2 12.9-13.7 18.1c-10.5 5.1-12.6 10.7-12.6 10.7s6.1-5.8 10.9-8c4.8-2.2 13.4-5.4 17.6-20.9l-2.2.1z" fill="#EBD9B3"/><path d="M219.025 399.96c-.1 0-.2 0-.4-.1-.3-.2-.4-.5-.3-.8.1-.2 2.3-5.9 12.9-11.1 10.1-4.9 13.4-17.5 13.4-17.6.1-.3.3-.5.6-.5l2.1-.2c.2 0 .4.1.5.2.1.2.2.4.1.6-4 15-12.2 18.7-17.1 21l-.8.4c-4.6 2.2-10.6 7.8-10.7 7.9.1.2-.1.2-.3.2zm26.9-28.8c-.7 2.4-4.3 13.3-14 18-3.8 1.8-6.5 3.8-8.4 5.4 1.9-1.5 4.1-2.9 6.1-3.9l.8-.4c4.6-2.1 12.3-5.6 16.2-19.3l-.7.2z" fill="#BD7A43"/><path d="M237.725 386.36s.5 5.6-4.2 10.5c-4.8 5.4-4.8 7.8-4.8 7.8s10.4-8.1 11.2-20.1l-2.2 1.8z" fill="#EBD9B3"/><path d="M228.825 405.36c-.1 0-.2 0-.3-.1-.2-.1-.4-.3-.4-.6s.1-2.8 5-8.3c4.4-4.7 4-10 4-10.1 0-.2.1-.4.2-.6l2.2-1.8c.2-.2.5-.2.7-.1.2.1.4.4.3.6-.8 12.1-11 20.2-11.4 20.6 0 .4-.2.4-.3.4zm9.6-18.7c0 1.3-.2 6.2-4.3 10.7-2 2.2-3.1 4-3.8 5.2 2.8-2.8 7.8-8.8 8.9-16.5l-.8.6z" fill="#BD7A43"/><path d="M244.426 370.46s-13.1-5.3-23-.6c5.8-4.2 17.7-3.7 25.2-.2l-2.2.8z" fill="#EBD9B3"/><path d="M244.426 371.06h-.2c-.1 0-6.3-2.5-13.3-2.5-3.5 0-6.6.6-9.2 1.8-.3.1-.7 0-.8-.3-.2-.3-.1-.7.2-.8 2.7-2 7-3.1 12.1-3.1 4.9 0 10 1 13.8 2.9.2.1.4.3.4.6s-.2.5-.4.6l-2.2.8h-.4zm-8.9-3.5c4.5.6 8 1.8 8.9 2.2l.5-.2c-2.8-1.1-6-1.8-9.4-2z" fill="#BD7A43"/><path d="M311.925 389.96s2.8 4.3 10.5 10 16.8 9.3 21.3 22.2c-2.5-11.5-8-14.8-14.9-19.4-6.9-4.7-16.4-11.4-17.8-17 .7 3.6.9 4.2.9 4.2z" fill="#EBD9B3"/><path d="M343.726 422.86c-.3 0-.5-.2-.6-.4-3.6-10.2-10.1-14.5-16.5-18.7-1.5-1-3.1-2.1-4.6-3.2-7.7-5.7-10.5-10-10.6-10.1-.1-.2-.4-.9-1-4.5-.1-.3.2-.7.5-.7.3-.1.7.1.8.5 1.4 5.8 12.3 13.1 17.5 16.7l.7.5c6.7 4.5 11.9 8 14.4 19.3.1.3-.1.7-.5.8.1-.2 0-.2-.1-.2zm-26-27.5c1.4 1.2 3 2.6 5 4.1 1.5 1.1 3.1 2.1 4.6 3.1 4 2.7 8.2 5.4 11.6 9.6-2.6-3.7-5.9-5.9-9.7-8.5l-.7-.5c-3.9-2.5-7.7-5.2-10.8-7.8z" fill="#BD7A43"/><path d="M319.225 396.46s11.2-.4 17.9 2.6c-4.4-3.1-10.1-5.2-19.4-4.7 1 1.1 1.2 1.9 1.5 2.1z" fill="#EBD9B3"/><path d="M337.225 399.76c-.1 0-.2 0-.3-.1-5.2-2.4-13.2-2.6-16.4-2.6h-1.4c-.4-.1-.6-.5-.8-.9-.2-.4-.5-.8-.9-1.3-.2-.2-.2-.4-.1-.7.1-.2.3-.4.6-.4 1-.1 1.9-.1 2.8-.1 6.9 0 12.3 1.5 16.9 4.8.2.1.4.3.4.6-.2.4-.4.7-.8.7zm-16.7-4c2.2 0 6.6.1 11 .9-3.5-1.3-7.5-1.9-12.4-1.7.1.2.2.4.3.5 0 .1.1.2.1.3h1z" fill="#BD7A43"/><path d="M327.725 373.86s13.4 11.1 18.3 19.3c5 8.2 17.4 19.8 23.3 19.3-8.2-5-14.9-10.7-18.3-16.9-3.5-6.2-8.8-15-13.9-18.5l-9.4-3.2z" fill="#EBD9B3"/><path d="M368.925 413.06c-6.6 0-18.8-11.9-23.4-19.6-4.8-8-18.1-19-18.2-19.1-.2-.2-.3-.5-.2-.8.2-.3.5-.4.8-.3l9.4 3.2c.1 0 .1 0 .2.1 5.2 3.6 10.5 12.4 14.1 18.7 3.2 5.6 9.4 11.4 18.1 16.6.2.1.3.4.3.7-.1.3-.3.5-.6.5h-.5zm-38.3-37.5c4.1 3.7 12.3 11.2 16 17.3 4.3 7.1 13.5 15.9 19.6 18.4-7.4-4.9-12.8-10.1-15.7-15.3-3.5-6.2-8.7-14.8-13.7-18.2l-6.2-2.2z" fill="#BD7A43"/><path d="M356.424 402.96s19.8 4.5 30.1 16.9c-6.2-9.6-18.3-17.9-31.7-19l1.6 2.1z" fill="#EBD9B3"/><path d="M386.625 420.46c-.2 0-.4-.1-.5-.2-10-12-29.601-16.6-29.801-16.7-.1 0-.3-.1-.4-.2l-1.6-2.1c-.1-.2-.2-.5 0-.7.1-.2.4-.4.6-.3 12.7 1 25.401 8.6 32.201 19.3.2.3.099.7-.201.9-.1-.1-.199 0-.299 0zm-29.801-18.1c1.8.4 13.4 3.5 23.1 10.5-6.5-6-15.1-10.2-23.6-11.3l.5.8z" fill="#BD7A43"/><path d="M368.425 387.16s20.2 2.1 29.8 12.6c-9.4-10.9-24.7-15.6-32.6-14.7l2.8 2.1z" fill="#EBD9B3"/><path d="M398.226 400.36c-.2 0-.3-.1-.5-.2-9.3-10.1-29.2-12.3-29.4-12.4-.1 0-.2-.1-.3-.1l-2.8-2.1c-.2-.2-.3-.4-.2-.7.1-.3.3-.4.5-.5.6-.1 1.3-.1 2-.1 9 0 22.6 5.2 31.1 15 .2.3.2.7-.1.9 0 .1-.1.2-.3.2zm-29.6-13.8c1.4.2 9.9 1.3 18.3 4.9-6.7-3.8-14-5.8-19.3-5.8h-.2l1.2.9z" fill="#BD7A43"/><path d="M331.727 377.76s5.8 8.7 8.7 19.4c3 10.7 11.3 19.4 12.1 26 .9 6.6 2.8 17.5 8.7 22.2-5.3-11.5-6-12.1-7.7-24.3-1.9-11.7-5.5-10.7-8.9-19.4-3.4-8.7-5.3-14.3-8.1-20l-4.8-3.9z" fill="#EBD9B3"/><path d="M361.426 445.96c-.1 0-.3-.1-.4-.1-6.7-5.3-8.4-18.3-9-22.6-.4-3.1-2.5-6.8-5-11-2.6-4.4-5.5-9.4-7.1-14.9-2.9-10.4-8.6-19.1-8.7-19.2-.2-.3-.1-.6.1-.8.2-.2.6-.2.8 0l4.9 3.8.2.2c2.1 4.3 3.7 8.5 5.7 13.8.7 1.9 1.5 4 2.4 6.2 1.3 3.4 2.7 5.3 4 7.1 2 2.7 3.8 5.3 5 12.4 1.6 11.1 2.2 12.5 6.4 21.6l1.2 2.6c.1.3.1.6-.2.8-.1 0-.2.1-.3.1zm-27.3-65.6c2 3.5 5.1 9.7 7 16.6 1.5 5.4 4.4 10.3 7 14.6 2.6 4.3 4.8 8.1 5.2 11.5.5 3.5 1.7 13 5.8 18.9-3.8-8.3-4.5-10-6-20.8-1.1-6.9-2.8-9.2-4.8-11.9-1.3-1.8-2.8-3.8-4.1-7.4-.9-2.3-1.7-4.3-2.4-6.3-2-5.3-3.6-9.4-5.6-13.6l-2.1-1.6z" fill="#BD7A43"/><path d="M352.826 418.86s10.2 7.5 16.8 16.8c-4.7-11.7-17.3-20.5-17.3-20.5l.5 3.7z" fill="#EBD9B3"/><path d="M369.726 436.36c-.2 0-.4-.1-.5-.3-6.5-9.2-16.6-16.6-16.7-16.7-.1-.1-.2-.3-.3-.4l-.4-3.6c0-.2.1-.5.3-.6.2-.1.5-.1.7 0 .5.4 12.8 9 17.5 20.7.1.3 0 .6-.3.8-.1.1-.2.1-.3.1zm-16.3-17.8c1.2.9 7.1 5.4 12.5 11.5-4.3-6.5-10.2-11.4-12.7-13.3l.2 1.8z" fill="#BD7A43"/><path d="M332.025 405.86s.4 10.9 4.5 20c-5.3-7.7-6.4-20.9-6.4-20.9l1.9.9z" fill="#EBD9B3"/><path d="M336.426 426.56c-.2 0-.4-.1-.5-.3-5.4-7.7-6.5-20.7-6.5-21.2 0-.2.1-.4.3-.6.2-.1.4-.1.6-.1l1.9.9c.2.1.4.3.4.6 0 .1.5 10.7 4.3 19.6.1.1.2.3.2.4 0 .4-.3.7-.7.7.1 0 0 0 0 0zm-5.6-20.5c.2 1.7.7 5.1 1.7 8.9-.8-4.2-1.1-7.5-1.1-8.7l-.6-.2z" fill="#BD7A43"/><path d="M352.125 377.96s3.6-2.1 8.3-4.4c5.3-2.6 17.5-4.4 20.8-3.7-6.8-3.6-12.8-1.4-21.1 1.9-8.3 3.2-11.9 5.4-11.9 5.4l3.9.8z" fill="#EBD9B3"/><path d="M352.125 378.66h-.1l-3.9-.9c-.3-.1-.5-.3-.5-.5 0-.3.1-.5.3-.7.1-.1 3.7-2.3 12-5.5 5-1.9 9.7-3.8 14.1-3.8 2.6 0 5 .6 7.4 1.9.3.1.5.3.5.6 0 .4-.3.6-.6.6h-.1c-.4-.1-1-.1-1.7-.1-4.8 0-14.4 1.8-18.6 3.8-4.7 2.3-8.3 4.4-8.3 4.4-.3.1-.4.2-.5.2zm-2.1-1.8l2 .4c.9-.5 4.1-2.4 8.2-4.3 4-2 12.2-3.6 17.5-3.9-1.2-.3-2.4-.5-3.7-.5-4.2 0-8.6 1.7-13.6 3.7-5.3 2.1-8.7 3.7-10.4 4.6z" fill="#BD7A43"/><path d="M374.325 369.96s9.5 12.1 24 11.4c-9.5 1.7-17.5-2.2-26.2-11.1 1.6-.3 2.2-.3 2.2-.3z" fill="#EBD9B3"/><path d="M394.026 382.46c-7.6 0-14.5-3.6-22.4-11.7-.2-.2-.2-.4-.2-.6.1-.2.3-.4.5-.4 1.7-.3 2.3-.4 2.3-.4.2 0 .4.1.5.2.1.1 9.5 11.9 23.5 11.2.3 0 .6.2.7.6 0 .3-.2.6-.5.7-1.5.2-3 .4-4.4.4zm-20.6-11.7c4.3 4.2 8.2 7.1 12.2 8.7-6.4-3-10.6-7.6-11.6-8.8-.2 0-.4 0-.6.1z" fill="#BD7A43"/><path d="M343.526 376.16c-15.9-3-30-15.4-30-34.4 0-11.7 1.3-22.5 1-38.5-3.1.8-6.5 1.1-9.2 0 .2 7.1.2 13.8-.2 20.2-1.3 24.3-5.4 39.7-26.7 45.5-13.2 3.2-17.8.4-25-.3-7.2-.6-16.5 2.3-20.1 8.4 0 0 6.3-8.4 20.1-6.3 13.8 2.1 24.8 7 40.2-3.7-7.5 11.5-20.8 18.3-26.4 27.9-5.6 9.6-9.4 20.4-8 30.7 1.2-13.6 5.9-29.7 15.4-37.7 9.6-8 24.1-19.2 29.3-30.2-2.6 22.7 4.9 36.3 11.7 51.5 6.8 15.2 12.4 28.1 11.9 39.8.7-17.6-1.2-22-6.6-33.7-5.4-11.7-11.9-27.9-10.8-42.6.9-9.6 2.3-15.9 4-11.9 1.6 4 5.6 12.9 28.6 18 22.9 5.1 28.5 12.9 30.9 20.4-.8-12.8-14.2-20-30.1-23.1z" fill="#EBD9B3"/><path d="M327.626 449.56c-.4 0-.7-.3-.6-.7.5-11.8-5.5-25.3-11.9-39.5-.6-1.4-1.3-2.8-1.9-4.2-6-13.1-11.6-25.5-10.2-44.5-5.5 9.2-16.7 18.4-25.1 25.3l-2.8 2.3c-12 9.9-14.7 31-15.2 37.2 0 .3-.3.6-.6.6s-.6-.2-.6-.6c-1.3-9.3 1.4-19.8 8-31.1 2.8-4.8 7.5-8.9 12.5-13.2 4.2-3.7 8.6-7.4 12.1-11.9-5.7 3.4-11.3 5-17.4 5-4.6 0-9-.9-13.7-1.8-2.2-.4-4.4-.9-6.7-1.2-1.4-.2-2.9-.3-4.2-.3-10.3 0-15.2 6.3-15.3 6.4-.2.3-.6.3-.9.1-.3-.2-.4-.6-.2-.9 3.6-6.1 12.3-8.8 18.8-8.8.7 0 1.3 0 2 .1 1.9.2 3.7.5 5.4.8 2.5.5 5.1 1 8.4 1 3.3 0 6.9-.5 11-1.5 20.3-5.5 24.9-20 26.2-44.9.3-6.2.4-13 .2-20.1 0-.2.1-.4.3-.5.2-.1.4-.2.6-.1 2.2.9 5.2.9 8.8-.1.2 0 .4 0 .5.1.2.1.3.3.3.5.2 9.5-.1 17-.5 24.2-.2 4.9-.5 9.6-.5 14.4 0 19.4 14.8 31 29.4 33.8 11 2.1 29.5 7.9 30.7 23.5 0 .3-.2.6-.5.7-.3.1-.6-.1-.7-.4-2.2-7-7.5-14.8-30.4-19.9-23.6-5.3-27.4-14.5-29-18.4-.2-.4-.3-.6-.4-.7-.3.4-1.4 2.4-2.4 12.5-1.1 14.3 5.1 30.1 10.7 42.3 5.2 11.3 7.3 15.9 6.6 34-.2.3-.5.5-.8.5zm-23.6-92.5h.2c.3.1.5.4.5.7-2.3 20.4 3.5 33.3 9.8 47 .6 1.4 1.3 2.8 1.9 4.2 4.4 9.8 8.6 19.3 10.7 28.2-.6-8.7-2.6-13.3-6.5-21.6-5.6-12.3-12-28.3-10.8-42.9 1.3-13.7 2.8-13.7 3.6-13.7.8 0 1.3.9 1.6 1.6 1.5 3.7 5.1 12.5 28.1 17.6 16.8 3.8 24.5 9 28.3 14.4-5-9.9-19-14.1-27.8-15.7-15.2-2.9-30.5-14.9-30.5-35 0-4.8.2-9.5.5-14.4.3-7 .7-14.2.5-23.3-3.1.7-5.8.7-7.9.1.2 6.8.1 13.3-.2 19.3-1.3 25.5-6.1 40.4-27.1 46.1-4.2 1-7.9 1.5-11.3 1.5-3.4 0-6.1-.5-8.6-1-1.8-.3-3.4-.6-5.3-.8-2.7-.2-5.8.1-8.9.9 2.6-.5 5.8-.6 9.1-.1 2.3.4 4.6.8 6.8 1.2 4.6.9 9 1.7 13.5 1.7 6.9 0 13.1-2.1 19.5-6.6.2-.2.6-.2.8.1.2.2.3.6.1.8-3.8 5.9-9.1 10.5-14.2 14.9-1.9 1.7-3.8 3.3-5.5 4.9l2.6-2.1c9.1-7.5 21.7-17.8 26.3-27.7-.3-.2-.1-.3.2-.3zm-40.6 46.8c-1.8 4.4-3 8.6-3.5 12.7.7-3.9 1.8-8.3 3.5-12.7z" fill="#BD7A43"/><path opacity=".4" d="M293.726 367.06c-1.1 1.7-2.4 3.3-3.7 4.9l.9-.9c2.7-2.9 5.3-5.9 7.8-8.9-.1.1-.3.2-.4.3l-1.2.9c-.8.6-1.7 1.1-2.6 1.7-2.2 1.3-4.5 2.4-7 3.3-5.6 2.2-13.2 3.9-19.4 2.1-6 .1-9.7-1.3-14.6-1.8-7.2-.6-16.5 2.3-20.1 8.4 0 0 6.3-8.4 20.1-6.3 13.7 2.1 24.7 7.1 40.2-3.7zm49.799 9.1c-15.9-3-30-15.4-30-34.4 0-11.7 1.3-22.5 1-38.5-1.2.3-2.5.5-3.7.6-.2 10.7-.7 21.3-.9 32-.1 4.2.3 8.3.3 12.5 0 3.8-.4 7.5-1 11.2-.6 3.7-1.4 7.3-1.8 11-.4 3.8-.3 7.5.2 11.3.6 4.5 1.7 9 2.1 13.6 1.9 4.6 4 9.1 6.1 13.7 6.8 15.2 12.4 28.1 11.9 39.8.7-17.6-1.2-22-6.6-33.7-5.4-11.7-11.9-27.9-10.8-42.6.9-9.6 2.3-15.9 4-11.9 1.6 4 5.6 12.9 28.6 18 22.9 5.1 28.5 12.9 30.9 20.4-1-12.7-14.4-19.9-30.3-23z" fill="#CB9049"/><path d="M307.826 308.66c0-.2-.4.1-.4.2-.5 8.3-1.1 16.5-2.1 24.8-.6 5.6-1.1 11.1-3.5 16.3-1.8 4-4.9 7.3-7.6 10.6-.4.5 0 1.1.5.6 5.3-5.3 9.2-11.4 10.7-18.8 2.1-10.8 2.9-22.7 2.4-33.7z" fill="#EBD9B3"/><path d="M301.327 235.76c0-.1-.1 0-.1.1 2.6 12.6 3.4 26 4 38.8 0 .4.7-.2.7-.5-.2-12.4-1-26.5-4.6-38.4z" fill="#346227"/><path opacity=".4" d="M385.226 142.76c-3.3 2.2-7.1 1.5-10.7 1.2-4.8-.4-9.6-.6-14.4-1.1-6.1-.6-12.2-.8-18.3-.2-11.6 1.1-21.5 7.5-26.7 19.9-.6 1.5.7 1.3 1.2.2 8.1-16.8 24.6-18.9 37.5-18.5 6.7.2 13.3.8 20 .9 4 .1 7.9.6 11.3-2.2.2.1.4-.3.1-.2zm-15.801-85.5c-19.9-.4-44.7-4.5-59 12.8-.5.6 0 1.4.6.7 8-8.8 17.8-11.2 29.2-12.5 9.7-1.1 19.3.1 28.9-.4.3 0 .6-.6.3-.6zm-90.198 126.6c-9.7-13.6-24.7-17-40.3-13.9-.1 0-.2.3-.1.3 7.5-.6 14.1-.5 21.4 1.6 10.5 3 11.9 6.9 18 13.1.4.3 1.2-.8 1-1.1zm-9.501-114c-8.8-14.2-23.5-18.5-39.3-16.4-.1 0-.3.3-.1.3 7.5-.1 14.1.4 21.3 2.9 10.5 3.7 11.3 7.5 17.2 14.2.3.3 1.1-.7.9-1z" fill="#86B133"/><path opacity=".5" d="M321.526 16.86c-4.3 2.5-9.5 4.1-14 6.4-3.6 1.8-6.3 4.7-8.6 7.9-.5.7.1 1.1.6.4 3.7-4.8 8-7.7 13.5-10.2 2.8-1.3 6.2-2.3 8.5-4.3.1 0 .2-.3 0-.2z" fill="#A2C629"/><path opacity=".4" d="M293.027 221.66c6.8 18.7 8.6 22.4 10.8 44.6.5 10.3 2.3 5.8 1.2-5.2-.7-6.8-2.6-17.4-4.8-27.1-4.1-13.4-15.4-37.5-44.5-49.6 11.7 6.5 29.5 19 37.3 37.3z" fill="#3D742E"/><g opacity=".4"><path opacity=".4" d="M233.525 178.26c-.5-.1-.8-.1-.8-.1.2 0 .5.1.8.1z" fill="#3D742E"/><path opacity=".4" d="M233.525 178.86c-.1 0-.1 0 0 0l-.5-.1-.4-.1c-.3-.1-.6-.4-.5-.7.1-.3.4-.6.7-.5l.4.1.5.1c.3.1.6.4.5.7-.2.3-.4.5-.7.5z" fill="#346227"/></g><path opacity=".4" d="M278.927 103.46c8.1 21.8 9.4 21.4 7.8 10.3-1.5-4.3-17.4-48-63.6-51 14.1 2.6 43.3 11.5 55.8 40.7z" fill="#3D742E"/><path d="M233.527 178.26c-.5-.1-.8-.1-.8-.1.2 0 .5.1.8.1z" fill="#3D742E"/><path d="M233.527 178.86c-.1 0-.1 0 0 0l-.5-.1-.4-.1c-.3-.1-.6-.4-.5-.7.1-.3.4-.6.7-.5l.4.1.5.1c.3.1.6.4.5.7-.2.3-.4.5-.7.5z" fill="#346227"/><path d="M293.726 53.66c-5.1 13.5-5.1 28.6-4.8 42.9 0 .4.7-.1.7-.4.3-14.5.4-28.3 4.3-42.5 0-.1-.1 0-.2 0zm-20.1 42.5c-3.4-6.5-8.8-10.9-14.2-15.7l-.1.1c5 5.2 10.1 9.8 13.7 16.1 3.5 6.1 6.4 12.9 8.9 19.5.1.2.4-.2.4-.3-1.9-6.9-5.3-13.4-8.7-19.7zm15.9 46.6c0-.2-.2.1-.2.2.9 7.9 2.5 15.7 3.4 23.6 1 7.8 1.8 15.8 3.3 23.5.1.5.8-.2.7-.5-1.6-15.7-4.6-31.2-7.2-46.8zm45.5 23.1c-4.5 3.2-9 6.3-13 10.1-3.8 3.7-7 8.1-10 12.4-.3.4.1.7.4.3 3.2-4.1 6.3-8.4 9.9-12.2 3.8-4 8.6-6.9 12.8-10.5-.1-.1 0-.2-.1-.1z" fill="#3D742E"/></svg>